<svg class="main-svg" xmlns="http://www.w3.org/2000/svg" xmlns:xlink="http://www.w3.org/1999/xlink" width="700" height="500" style="" viewBox="0 0 700 500"><rect x="0" y="0" width="700" height="500" style="fill: rgb(255, 255, 255); fill-opacity: 1;"/><defs id="defs-e0ce95"><g class="clips"><clipPath id="clipe0ce95xyplot" class="plotclip"><rect width="632" height="468"/></clipPath><clipPath class="axesclip" id="clipe0ce95x"><rect x="50" y="0" width="632" height="500"/></clipPath><clipPath class="axesclip" id="clipe0ce95y"><rect x="0" y="0" width="700" height="468"/></clipPath><clipPath class="axesclip" id="clipe0ce95xy"><rect x="50" y="0" width="632" height="468"/></clipPath></g><g class="gradients"/><g class="patterns"/></defs><g class="bglayer"/><g class="layer-below"><g class="imagelayer"/><g class="shapelayer"/></g><g class="cartesianlayer"><g class="subplot xy"><g class="layer-subplot"><g class="shapelayer"/><g class="imagelayer"/></g><g class="minor-gridlayer"><g class="x"/><g class="y"/></g><g class="gridlayer"><g class="x"/><g class="y"><path class="ygrid crisp" transform="translate(0,465.48)" d="M50,0h632" style="stroke: rgb(235, 240, 248); stroke-opacity: 1; stroke-width: 1px;"/><path class="ygrid crisp" transform="translate(0,401.96)" d="M50,0h632" style="stroke: rgb(235, 240, 248); stroke-opacity: 1; stroke-width: 1px;"/><path class="ygrid crisp" transform="translate(0,338.44)" d="M50,0h632" style="stroke: rgb(235, 240, 248); stroke-opacity: 1; stroke-width: 1px;"/><path class="ygrid crisp" transform="translate(0,211.39)" d="M50,0h632" style="stroke: rgb(235, 240, 248); stroke-opacity: 1; stroke-width: 1px;"/><path class="ygrid crisp" transform="translate(0,147.87)" d="M50,0h632" style="stroke: rgb(235, 240, 248); stroke-opacity: 1; stroke-width: 1px;"/><path class="ygrid crisp" transform="translate(0,84.35)" d="M50,0h632" style="stroke: rgb(235, 240, 248); stroke-opacity: 1; stroke-width: 1px;"/><path class="ygrid crisp" transform="translate(0,20.82)" d="M50,0h632" style="stroke: rgb(235, 240, 248); stroke-opacity: 1; stroke-width: 1px;"/></g></g><g class="zerolinelayer"><path class="yzl zl crisp" transform="translate(0,274.91)" d="M50,0h632" style="stroke: rgb(235, 240, 248); stroke-opacity: 1; stroke-width: 2px;"/></g><path class="xlines-below"/><path class="ylines-below"/><g class="overlines-below"/><g class="xaxislayer-below"/><g class="yaxislayer-below"/><g class="overaxes-below"/><g class="plot" transform="translate(50,0)" clip-path="url(#clipe0ce95xyplot)"><g class="boxlayer mlayer"><g class="trace boxes" style="opacity: 1;"><path class="box" d="M17.91,260.44H52.32M17.91,312.42H52.32V193.42H17.91ZM35.11,312.42V420.98M35.11,193.42V51.86M26.51,420.98H43.71M26.51,51.86H43.71" style="vector-effect: none; stroke-width: 2px; stroke: rgb(0, 0, 0); stroke-opacity: 1; fill: rgb(211, 211, 211); fill-opacity: 1;"/><path class="box" d="M88.13,257.53H122.54M88.13,297.98H122.54V205.63H88.13ZM105.33,297.98V418.11M105.33,205.63V80.06M96.73,418.11H113.94M96.73,80.06H113.94" style="vector-effect: none; stroke-width: 2px; stroke: rgb(0, 0, 0); stroke-opacity: 1; fill: rgb(211, 211, 211); fill-opacity: 1;"/><path class="box" d="M158.35,190.07H192.76M158.35,299.2H192.76V135.32H158.35ZM175.56,299.2V431.81M175.56,135.32V23.4M166.95,431.81H184.16M166.95,23.4H184.16" style="vector-effect: none; stroke-width: 2px; stroke: rgb(0, 0, 0); stroke-opacity: 1; fill: rgb(211, 211, 211); fill-opacity: 1;"/><path class="box" d="M228.57,257.49H262.98M228.57,295.61H262.98V221.24H228.57ZM245.78,295.61V397.14M245.78,221.24V111.06M237.18,397.14H254.38M237.18,111.06H254.38" style="vector-effect: none; stroke-width: 2px; stroke: rgb(0, 0, 0); stroke-opacity: 1; fill: rgb(211, 211, 211); fill-opacity: 1;"/><path class="box" d="M298.8,269.73H333.2M298.8,299.28H333.2V204.63H298.8ZM316,299.28V401.87M316,204.63V73.03M307.4,401.87H324.6M307.4,73.03H324.6" style="vector-effect: none; stroke-width: 2px; stroke: rgb(0, 0, 0); stroke-opacity: 1; fill: rgb(211, 211, 211); fill-opacity: 1;"/><path class="box" d="M369.02,275.87H403.43M369.02,297.81H403.43V253.46H369.02ZM386.22,297.81V360.43M386.22,253.46V207.75M377.62,360.43H394.82M377.62,207.75H394.82" style="vector-effect: none; stroke-width: 2px; stroke: rgb(0, 0, 0); stroke-opacity: 1; fill: rgb(211, 211, 211); fill-opacity: 1;"/><path class="box" d="M439.24,239.34H473.65M439.24,330.45H473.65V178.23H439.24ZM456.44,330.45V444.6M456.44,178.23V44.8M447.84,444.6H465.05M447.84,44.8H465.05" style="vector-effect: none; stroke-width: 2px; stroke: rgb(0, 0, 0); stroke-opacity: 1; fill: rgb(211, 211, 211); fill-opacity: 1;"/><path class="box" d="M509.46,272.55H543.87M509.46,297.38H543.87V246.79H509.46ZM526.67,297.38V359.34M526.67,246.79V195.4M518.06,359.34H535.27M518.06,195.4H535.27" style="vector-effect: none; stroke-width: 2px; stroke: rgb(0, 0, 0); stroke-opacity: 1; fill: rgb(211, 211, 211); fill-opacity: 1;"/><path class="box" d="M579.68,262.34H614.09M579.68,299.61H614.09V215.51H579.68ZM596.89,299.61V384.39M596.89,215.51V99.03M588.29,384.39H605.49M588.29,99.03H605.49" style="vector-effect: none; stroke-width: 2px; stroke: rgb(0, 0, 0); stroke-opacity: 1; fill: rgb(211, 211, 211); fill-opacity: 1;"/><g class="points"/><g class="points"/><g class="points"/><g class="points"><path class="point" transform="translate(245.78,107.36)" d="M3,0A3,3 0 1,1 0,-3A3,3 0 0,1 3,0Z" style="opacity: 1; stroke-width: 0px; fill: rgb(0, 0, 0); fill-opacity: 1;"/><path class="point" transform="translate(245.78,93.07)" d="M3,0A3,3 0 1,1 0,-3A3,3 0 0,1 3,0Z" style="opacity: 1; stroke-width: 0px; fill: rgb(0, 0, 0); fill-opacity: 1;"/><path class="point" transform="translate(245.78,81.45)" d="M3,0A3,3 0 1,1 0,-3A3,3 0 0,1 3,0Z" style="opacity: 1; stroke-width: 0px; fill: rgb(0, 0, 0); fill-opacity: 1;"/></g><g class="points"/><g class="points"/><g class="points"/><g class="points"/><g class="points"/><path class="mean" d="M17.91,249.24H52.32" style="fill: none; vector-effect: non-scaling-stroke; stroke-width: 2; stroke-dasharray: 4px, 2px; stroke: rgb(0, 0, 0); stroke-opacity: 1;"/><path class="mean" d="M88.13,252.11H122.54" style="fill: none; vector-effect: non-scaling-stroke; stroke-width: 2; stroke-dasharray: 4px, 2px; stroke: rgb(0, 0, 0); stroke-opacity: 1;"/><path class="mean" d="M158.35,208.16H192.76" style="fill: none; vector-effect: non-scaling-stroke; stroke-width: 2; stroke-dasharray: 4px, 2px; stroke: rgb(0, 0, 0); stroke-opacity: 1;"/><path class="mean" d="M228.57,257.82H262.98" style="fill: none; vector-effect: non-scaling-stroke; stroke-width: 2; stroke-dasharray: 4px, 2px; stroke: rgb(0, 0, 0); stroke-opacity: 1;"/><path class="mean" d="M298.8,250.65H333.2" style="fill: none; vector-effect: non-scaling-stroke; stroke-width: 2; stroke-dasharray: 4px, 2px; stroke: rgb(0, 0, 0); stroke-opacity: 1;"/><path class="mean" d="M369.02,274.62H403.43" style="fill: none; vector-effect: non-scaling-stroke; stroke-width: 2; stroke-dasharray: 4px, 2px; stroke: rgb(0, 0, 0); stroke-opacity: 1;"/><path class="mean" d="M439.24,243.57H473.65" style="fill: none; vector-effect: non-scaling-stroke; stroke-width: 2; stroke-dasharray: 4px, 2px; stroke: rgb(0, 0, 0); stroke-opacity: 1;"/><path class="mean" d="M509.46,272.38H543.87" style="fill: none; vector-effect: non-scaling-stroke; stroke-width: 2; stroke-dasharray: 4px, 2px; stroke: rgb(0, 0, 0); stroke-opacity: 1;"/><path class="mean" d="M579.68,255.84H614.09" style="fill: none; vector-effect: non-scaling-stroke; stroke-width: 2; stroke-dasharray: 4px, 2px; stroke: rgb(0, 0, 0); stroke-opacity: 1;"/></g></g></g><g class="overplot"/><path class="xlines-above crisp" d="M0,0" style="fill: none;"/><path class="ylines-above crisp" d="M0,0" style="fill: none;"/><g class="overlines-above"/><g class="xaxislayer-above"><path class="xdivider crisp" transform="translate(682,0)" d="M0,469v31.5" style="stroke: rgb(68, 68, 68); stroke-opacity: 1; stroke-width: 1px;"/><path class="xdivider crisp" transform="translate(611.78,0)" d="M0,469v31.5" style="stroke: rgb(68, 68, 68); stroke-opacity: 1; stroke-width: 1px;"/><path class="xdivider crisp" transform="translate(541.56,0)" d="M0,469v31.5" style="stroke: rgb(68, 68, 68); stroke-opacity: 1; stroke-width: 1px;"/><path class="xdivider crisp" transform="translate(471.33,0)" d="M0,469v31.5" style="stroke: rgb(68, 68, 68); stroke-opacity: 1; stroke-width: 1px;"/><path class="xdivider crisp" transform="translate(401.11,0)" d="M0,469v31.5" style="stroke: rgb(68, 68, 68); stroke-opacity: 1; stroke-width: 1px;"/><path class="xdivider crisp" transform="translate(330.89,0)" d="M0,469v31.5" style="stroke: rgb(68, 68, 68); stroke-opacity: 1; stroke-width: 1px;"/><path class="xdivider crisp" transform="translate(260.66999999999996,0)" d="M0,469v31.5" style="stroke: rgb(68, 68, 68); stroke-opacity: 1; stroke-width: 1px;"/><path class="xdivider crisp" transform="translate(190.44,0)" d="M0,469v31.5" style="stroke: rgb(68, 68, 68); stroke-opacity: 1; stroke-width: 1px;"/><path class="xdivider crisp" transform="translate(120.22,0)" d="M0,469v31.5" style="stroke: rgb(68, 68, 68); stroke-opacity: 1; stroke-width: 1px;"/><path class="xdivider crisp" transform="translate(50,0)" d="M0,469v31.5" style="stroke: rgb(68, 68, 68); stroke-opacity: 1; stroke-width: 1px;"/><g class="xtick"><text text-anchor="middle" x="0" y="481" transform="translate(85.11,0)" style="font-family: 'Open Sans', verdana, arial, sans-serif; font-size: 12px; fill: rgb(42, 63, 95); fill-opacity: 1; white-space: pre; opacity: 1;">Middle</text></g><g class="xtick"><text text-anchor="middle" x="0" y="481" transform="translate(155.32999999999998,0)" style="font-family: 'Open Sans', verdana, arial, sans-serif; font-size: 12px; fill: rgb(42, 63, 95); fill-opacity: 1; white-space: pre; opacity: 1;">Middle</text></g><g class="xtick"><text text-anchor="middle" x="0" y="481" transform="translate(225.56,0)" style="font-family: 'Open Sans', verdana, arial, sans-serif; font-size: 12px; fill: rgb(42, 63, 95); fill-opacity: 1; white-space: pre; opacity: 1;">Middle</text></g><g class="xtick"><text text-anchor="middle" x="0" y="481" transform="translate(295.78,0)" style="font-family: 'Open Sans', verdana, arial, sans-serif; font-size: 12px; fill: rgb(42, 63, 95); fill-opacity: 1; white-space: pre; opacity: 1;">Middle</text></g><g class="xtick"><text text-anchor="middle" x="0" y="481" transform="translate(366,0)" style="font-family: 'Open Sans', verdana, arial, sans-serif; font-size: 12px; fill: rgb(42, 63, 95); fill-opacity: 1; white-space: pre; opacity: 1;">Middle</text></g><g class="xtick"><text text-anchor="middle" x="0" y="481" transform="translate(436.22,0)" style="font-family: 'Open Sans', verdana, arial, sans-serif; font-size: 12px; fill: rgb(42, 63, 95); fill-opacity: 1; white-space: pre; opacity: 1;">Middle</text></g><g class="xtick"><text text-anchor="middle" x="0" y="481" transform="translate(506.44,0)" style="font-family: 'Open Sans', verdana, arial, sans-serif; font-size: 12px; fill: rgb(42, 63, 95); fill-opacity: 1; white-space: pre; opacity: 1;">Middle</text></g><g class="xtick"><text text-anchor="middle" x="0" y="481" transform="translate(576.67,0)" style="font-family: 'Open Sans', verdana, arial, sans-serif; font-size: 12px; fill: rgb(42, 63, 95); fill-opacity: 1; white-space: pre; opacity: 1;">Middle</text></g><g class="xtick"><text text-anchor="middle" x="0" y="481" transform="translate(646.89,0)" style="font-family: 'Open Sans', verdana, arial, sans-serif; font-size: 12px; fill: rgb(42, 63, 95); fill-opacity: 1; white-space: pre; opacity: 1;">Middle</text></g><g class="xtick2"><text text-anchor="middle" x="0" y="497" transform="translate(85.11,0)" style="font-family: 'Open Sans', verdana, arial, sans-serif; font-size: 12px; fill: rgb(42, 63, 95); fill-opacity: 1; white-space: pre; opacity: 1;">FO</text></g><g class="xtick2"><text text-anchor="middle" x="0" y="497" transform="translate(155.32999999999998,0)" style="font-family: 'Open Sans', verdana, arial, sans-serif; font-size: 12px; fill: rgb(42, 63, 95); fill-opacity: 1; white-space: pre; opacity: 1;">FO - TSR</text></g><g class="xtick2"><text text-anchor="middle" x="0" y="497" transform="translate(225.56,0)" style="font-family: 'Open Sans', verdana, arial, sans-serif; font-size: 12px; fill: rgb(42, 63, 95); fill-opacity: 1; white-space: pre; opacity: 1;">GRAD</text></g><g class="xtick2"><text text-anchor="middle" x="0" y="497" transform="translate(295.78,0)" style="font-family: 'Open Sans', verdana, arial, sans-serif; font-size: 12px; fill: rgb(42, 63, 95); fill-opacity: 1; white-space: pre; opacity: 1;">GRAD - TSR</text></g><g class="xtick2"><text text-anchor="middle" x="0" y="497" transform="translate(366,0)" style="font-family: 'Open Sans', verdana, arial, sans-serif; font-size: 12px; fill: rgb(42, 63, 95); fill-opacity: 1; white-space: pre; opacity: 1;">GS</text></g><g class="xtick2"><text text-anchor="middle" x="0" y="497" transform="translate(436.22,0)" style="font-family: 'Open Sans', verdana, arial, sans-serif; font-size: 12px; fill: rgb(42, 63, 95); fill-opacity: 1; white-space: pre; opacity: 1;">GS - TSR</text></g><g class="xtick2"><text text-anchor="middle" x="0" y="497" transform="translate(506.44,0)" style="font-family: 'Open Sans', verdana, arial, sans-serif; font-size: 12px; fill: rgb(42, 63, 95); fill-opacity: 1; white-space: pre; opacity: 1;">SG</text></g><g class="xtick2"><text text-anchor="middle" x="0" y="497" transform="translate(576.67,0)" style="font-family: 'Open Sans', verdana, arial, sans-serif; font-size: 12px; fill: rgb(42, 63, 95); fill-opacity: 1; white-space: pre; opacity: 1;">SG - TSR</text></g><g class="xtick2"><text text-anchor="middle" x="0" y="497" transform="translate(646.89,0)" style="font-family: 'Open Sans', verdana, arial, sans-serif; font-size: 12px; fill: rgb(42, 63, 95); fill-opacity: 1; white-space: pre; opacity: 1;">TSEvo - information</text></g></g><g class="yaxislayer-above"><g class="ytick"><text text-anchor="end" x="49" y="4.199999999999999" transform="translate(0,465.48)" style="font-family: 'Open Sans', verdana, arial, sans-serif; font-size: 12px; fill: rgb(42, 63, 95); fill-opacity: 1; white-space: pre; opacity: 1;">−0.6</text></g><g class="ytick"><text text-anchor="end" x="49" y="4.199999999999999" style="font-family: 'Open Sans', verdana, arial, sans-serif; font-size: 12px; fill: rgb(42, 63, 95); fill-opacity: 1; white-space: pre; opacity: 1;" transform="translate(0,401.96)">−0.4</text></g><g class="ytick"><text text-anchor="end" x="49" y="4.199999999999999" style="font-family: 'Open Sans', verdana, arial, sans-serif; font-size: 12px; fill: rgb(42, 63, 95); fill-opacity: 1; white-space: pre; opacity: 1;" transform="translate(0,338.44)">−0.2</text></g><g class="ytick"><text text-anchor="end" x="49" y="4.199999999999999" style="font-family: 'Open Sans', verdana, arial, sans-serif; font-size: 12px; fill: rgb(42, 63, 95); fill-opacity: 1; white-space: pre; opacity: 1;" transform="translate(0,274.91)">0</text></g><g class="ytick"><text text-anchor="end" x="49" y="4.199999999999999" style="font-family: 'Open Sans', verdana, arial, sans-serif; font-size: 12px; fill: rgb(42, 63, 95); fill-opacity: 1; white-space: pre; opacity: 1;" transform="translate(0,211.39)">0.2</text></g><g class="ytick"><text text-anchor="end" x="49" y="4.199999999999999" style="font-family: 'Open Sans', verdana, arial, sans-serif; font-size: 12px; fill: rgb(42, 63, 95); fill-opacity: 1; white-space: pre; opacity: 1;" transform="translate(0,147.87)">0.4</text></g><g class="ytick"><text text-anchor="end" x="49" y="4.199999999999999" style="font-family: 'Open Sans', verdana, arial, sans-serif; font-size: 12px; fill: rgb(42, 63, 95); fill-opacity: 1; white-space: pre; opacity: 1;" transform="translate(0,84.35)">0.6</text></g><g class="ytick"><text text-anchor="end" x="49" y="4.199999999999999" style="font-family: 'Open Sans', verdana, arial, sans-serif; font-size: 12px; fill: rgb(42, 63, 95); fill-opacity: 1; white-space: pre; opacity: 1;" transform="translate(0,20.82)">0.8</text></g></g><g class="overaxes-above"/></g></g><g class="polarlayer"/><g class="smithlayer"/><g class="ternarylayer"/><g class="geolayer"/><g class="funnelarealayer"/><g class="pielayer"/><g class="iciclelayer"/><g class="treemaplayer"/><g class="sunburstlayer"/><g class="glimages"/><defs id="topdefs-e0ce95"><g class="clips"/><clipPath id="legende0ce95"><rect width="216" height="48" x="0" y="0"/></clipPath></defs><g class="layer-above"><g class="imagelayer"/><g class="shapelayer"/></g><g class="infolayer"><g class="legend" pointer-events="all" transform="translate(56.32,4.680000000000004)"><rect class="bg" shape-rendering="crispEdges" width="216" height="48" x="0" y="0" style="stroke: rgb(68, 68, 68); stroke-opacity: 1; fill: rgb(255, 255, 255); fill-opacity: 1; stroke-width: 0px;"/><g class="scrollbox" transform="" clip-path="url(#legende0ce95)"><g class="groups"><g class="traces" transform="translate(0,14.5)" style="opacity: 1;"><text class="legendtext" text-anchor="start" x="40" y="4.680000000000001" style="font-family: 'Open Sans', verdana, arial, sans-serif; font-size: 12px; fill: rgb(42, 63, 95); fill-opacity: 1; white-space: pre;">faithfulness correlation synthetic</text><g class="layers" style="opacity: 1;"><g class="legendfill"/><g class="legendlines"/><g class="legendsymbols"><g class="legendpoints"><path class="legendbox" d="M6,6H-6V-6H6Z" transform="translate(20,0)" style="stroke-width: 2px; fill: rgb(211, 211, 211); fill-opacity: 1; stroke: rgb(0, 0, 0); stroke-opacity: 1;"/></g></g></g><rect class="legendtoggle" x="0" y="-9.5" width="210.765625" height="19" style="fill: rgb(0, 0, 0); fill-opacity: 0;"/></g><g class="traces" transform="translate(0,33.5)" style="opacity: 1;"><text class="legendtext" text-anchor="start" x="40" y="4.680000000000001" style="font-family: 'Open Sans', verdana, arial, sans-serif; font-size: 12px; fill: rgb(42, 63, 95); fill-opacity: 1; white-space: pre;">monoton synthetic</text><g class="layers" style="opacity: 1;"><g class="legendfill"/><g class="legendlines"/><g class="legendsymbols"><g class="legendpoints"><path class="legendbox" d="M6,6H-6V-6H6Z" transform="translate(20,0)" style="stroke-width: 2px; fill: rgb(255, 255, 255); fill-opacity: 1; stroke: rgb(0, 0, 0); stroke-opacity: 1;"/></g></g></g><rect class="legendtoggle" x="0" y="-9.5" width="210.765625" height="19" style="fill: rgb(0, 0, 0); fill-opacity: 0;"/></g></g></g><rect class="scrollbar" rx="20" ry="3" width="0" height="0" x="0" y="0" style="fill: rgb(128, 139, 164); fill-opacity: 1;"/></g><g class="g-gtitle"/><g class="g-xtitle"/><g class="g-ytitle" transform="translate(12.0029296875,0)"><text class="ytitle" transform="rotate(-90,0.9968750000000028,234)" x="0.9968750000000028" y="234" text-anchor="middle" style="font-family: 'Open Sans', verdana, arial, sans-serif; font-size: 14px; fill: rgb(42, 63, 95); opacity: 1; font-weight: normal; white-space: pre;">values</text></g></g></svg>