<?xml version="1.0" encoding="utf-8" standalone="no"?>
<!DOCTYPE svg PUBLIC "-//W3C//DTD SVG 1.1//EN"
  "http://www.w3.org/Graphics/SVG/1.1/DTD/svg11.dtd">
<svg xmlns:xlink="http://www.w3.org/1999/xlink" width="460.8pt" height="345.6pt" viewBox="0 0 460.8 345.6" xmlns="http://www.w3.org/2000/svg" version="1.1">
 <metadata>
  <rdf:RDF xmlns:dc="http://purl.org/dc/elements/1.1/" xmlns:cc="http://creativecommons.org/ns#" xmlns:rdf="http://www.w3.org/1999/02/22-rdf-syntax-ns#">
   <cc:Work>
    <dc:type rdf:resource="http://purl.org/dc/dcmitype/StillImage"/>
    <dc:date>2023-07-26T22:20:47.029483</dc:date>
    <dc:format>image/svg+xml</dc:format>
    <dc:creator>
     <cc:Agent>
      <dc:title>Matplotlib v3.7.2, https://matplotlib.org/</dc:title>
     </cc:Agent>
    </dc:creator>
   </cc:Work>
  </rdf:RDF>
 </metadata>
 <defs>
  <style type="text/css">*{stroke-linejoin: round; stroke-linecap: butt}</style>
 </defs>
 <g id="figure_1">
  <g id="patch_1">
   <path d="M 0 345.6 
L 460.8 345.6 
L 460.8 0 
L 0 0 
z
" style="fill: #ffffff"/>
  </g>
  <g id="axes_1">
   <g id="patch_2">
    <path d="M 57.6 119.740235 
L 414.72 119.740235 
L 414.72 41.472 
L 57.6 41.472 
z
" style="fill: #ffffff"/>
   </g>
   <g id="QuadMesh_1">
    <path d="M 57.6 41.472 
L 64.7424 41.472 
L 64.7424 119.740235 
L 57.6 119.740235 
L 57.6 41.472 
" clip-path="url(#p5d0c07a2ff)" style="fill: #440154"/>
    <path d="M 64.7424 41.472 
L 71.8848 41.472 
L 71.8848 119.740235 
L 64.7424 119.740235 
L 64.7424 41.472 
" clip-path="url(#p5d0c07a2ff)" style="fill: #46075a"/>
    <path d="M 71.8848 41.472 
L 79.0272 41.472 
L 79.0272 119.740235 
L 71.8848 119.740235 
L 71.8848 41.472 
" clip-path="url(#p5d0c07a2ff)" style="fill: #38588c"/>
    <path d="M 79.0272 41.472 
L 86.1696 41.472 
L 86.1696 119.740235 
L 79.0272 119.740235 
L 79.0272 41.472 
" clip-path="url(#p5d0c07a2ff)" style="fill: #3b528b"/>
    <path d="M 86.1696 41.472 
L 93.312 41.472 
L 93.312 119.740235 
L 86.1696 119.740235 
L 86.1696 41.472 
" clip-path="url(#p5d0c07a2ff)" style="fill: #b0dd2f"/>
    <path d="M 93.312 41.472 
L 100.4544 41.472 
L 100.4544 119.740235 
L 93.312 119.740235 
L 93.312 41.472 
" clip-path="url(#p5d0c07a2ff)" style="fill: #404688"/>
    <path d="M 100.4544 41.472 
L 107.5968 41.472 
L 107.5968 119.740235 
L 100.4544 119.740235 
L 100.4544 41.472 
" clip-path="url(#p5d0c07a2ff)" style="fill: #2b758e"/>
    <path d="M 107.5968 41.472 
L 114.7392 41.472 
L 114.7392 119.740235 
L 107.5968 119.740235 
L 107.5968 41.472 
" clip-path="url(#p5d0c07a2ff)" style="fill: #b8de29"/>
    <path d="M 114.7392 41.472 
L 121.8816 41.472 
L 121.8816 119.740235 
L 114.7392 119.740235 
L 114.7392 41.472 
" clip-path="url(#p5d0c07a2ff)" style="fill: #24aa83"/>
    <path d="M 121.8816 41.472 
L 129.024 41.472 
L 129.024 119.740235 
L 121.8816 119.740235 
L 121.8816 41.472 
" clip-path="url(#p5d0c07a2ff)" style="fill: #bddf26"/>
    <path d="M 129.024 41.472 
L 136.1664 41.472 
L 136.1664 119.740235 
L 129.024 119.740235 
L 129.024 41.472 
" clip-path="url(#p5d0c07a2ff)" style="fill: #e7e419"/>
    <path d="M 136.1664 41.472 
L 143.3088 41.472 
L 143.3088 119.740235 
L 136.1664 119.740235 
L 136.1664 41.472 
" clip-path="url(#p5d0c07a2ff)" style="fill: #84d44b"/>
    <path d="M 143.3088 41.472 
L 150.4512 41.472 
L 150.4512 119.740235 
L 143.3088 119.740235 
L 143.3088 41.472 
" clip-path="url(#p5d0c07a2ff)" style="fill: #440154"/>
    <path d="M 150.4512 41.472 
L 157.5936 41.472 
L 157.5936 119.740235 
L 150.4512 119.740235 
L 150.4512 41.472 
" clip-path="url(#p5d0c07a2ff)" style="fill: #440154"/>
    <path d="M 157.5936 41.472 
L 164.736 41.472 
L 164.736 119.740235 
L 157.5936 119.740235 
L 157.5936 41.472 
" clip-path="url(#p5d0c07a2ff)" style="fill: #440154"/>
    <path d="M 164.736 41.472 
L 171.8784 41.472 
L 171.8784 119.740235 
L 164.736 119.740235 
L 164.736 41.472 
" clip-path="url(#p5d0c07a2ff)" style="fill: #440154"/>
    <path d="M 171.8784 41.472 
L 179.0208 41.472 
L 179.0208 119.740235 
L 171.8784 119.740235 
L 171.8784 41.472 
" clip-path="url(#p5d0c07a2ff)" style="fill: #a0da39"/>
    <path d="M 179.0208 41.472 
L 186.1632 41.472 
L 186.1632 119.740235 
L 179.0208 119.740235 
L 179.0208 41.472 
" clip-path="url(#p5d0c07a2ff)" style="fill: #440154"/>
    <path d="M 186.1632 41.472 
L 193.3056 41.472 
L 193.3056 119.740235 
L 186.1632 119.740235 
L 186.1632 41.472 
" clip-path="url(#p5d0c07a2ff)" style="fill: #e2e418"/>
    <path d="M 193.3056 41.472 
L 200.448 41.472 
L 200.448 119.740235 
L 193.3056 119.740235 
L 193.3056 41.472 
" clip-path="url(#p5d0c07a2ff)" style="fill: #440154"/>
    <path d="M 200.448 41.472 
L 207.5904 41.472 
L 207.5904 119.740235 
L 200.448 119.740235 
L 200.448 41.472 
" clip-path="url(#p5d0c07a2ff)" style="fill: #2f6b8e"/>
    <path d="M 207.5904 41.472 
L 214.7328 41.472 
L 214.7328 119.740235 
L 207.5904 119.740235 
L 207.5904 41.472 
" clip-path="url(#p5d0c07a2ff)" style="fill: #32b67a"/>
    <path d="M 214.7328 41.472 
L 221.8752 41.472 
L 221.8752 119.740235 
L 214.7328 119.740235 
L 214.7328 41.472 
" clip-path="url(#p5d0c07a2ff)" style="fill: #440154"/>
    <path d="M 221.8752 41.472 
L 229.0176 41.472 
L 229.0176 119.740235 
L 221.8752 119.740235 
L 221.8752 41.472 
" clip-path="url(#p5d0c07a2ff)" style="fill: #440154"/>
    <path d="M 229.0176 41.472 
L 236.16 41.472 
L 236.16 119.740235 
L 229.0176 119.740235 
L 229.0176 41.472 
" clip-path="url(#p5d0c07a2ff)" style="fill: #440154"/>
    <path d="M 236.16 41.472 
L 243.3024 41.472 
L 243.3024 119.740235 
L 236.16 119.740235 
L 236.16 41.472 
" clip-path="url(#p5d0c07a2ff)" style="fill: #1f958b"/>
    <path d="M 243.3024 41.472 
L 250.4448 41.472 
L 250.4448 119.740235 
L 243.3024 119.740235 
L 243.3024 41.472 
" clip-path="url(#p5d0c07a2ff)" style="fill: #58c765"/>
    <path d="M 250.4448 41.472 
L 257.5872 41.472 
L 257.5872 119.740235 
L 250.4448 119.740235 
L 250.4448 41.472 
" clip-path="url(#p5d0c07a2ff)" style="fill: #440154"/>
    <path d="M 257.5872 41.472 
L 264.7296 41.472 
L 264.7296 119.740235 
L 257.5872 119.740235 
L 257.5872 41.472 
" clip-path="url(#p5d0c07a2ff)" style="fill: #440154"/>
    <path d="M 264.7296 41.472 
L 271.872 41.472 
L 271.872 119.740235 
L 264.7296 119.740235 
L 264.7296 41.472 
" clip-path="url(#p5d0c07a2ff)" style="fill: #440154"/>
    <path d="M 271.872 41.472 
L 279.0144 41.472 
L 279.0144 119.740235 
L 271.872 119.740235 
L 271.872 41.472 
" clip-path="url(#p5d0c07a2ff)" style="fill: #440154"/>
    <path d="M 279.0144 41.472 
L 286.1568 41.472 
L 286.1568 119.740235 
L 279.0144 119.740235 
L 279.0144 41.472 
" clip-path="url(#p5d0c07a2ff)" style="fill: #9dd93b"/>
    <path d="M 286.1568 41.472 
L 293.2992 41.472 
L 293.2992 119.740235 
L 286.1568 119.740235 
L 286.1568 41.472 
" clip-path="url(#p5d0c07a2ff)" style="fill: #440154"/>
    <path d="M 293.2992 41.472 
L 300.4416 41.472 
L 300.4416 119.740235 
L 293.2992 119.740235 
L 293.2992 41.472 
" clip-path="url(#p5d0c07a2ff)" style="fill: #1f948c"/>
    <path d="M 300.4416 41.472 
L 307.584 41.472 
L 307.584 119.740235 
L 300.4416 119.740235 
L 300.4416 41.472 
" clip-path="url(#p5d0c07a2ff)" style="fill: #2f6b8e"/>
    <path d="M 307.584 41.472 
L 314.7264 41.472 
L 314.7264 119.740235 
L 307.584 119.740235 
L 307.584 41.472 
" clip-path="url(#p5d0c07a2ff)" style="fill: #440154"/>
    <path d="M 314.7264 41.472 
L 321.8688 41.472 
L 321.8688 119.740235 
L 314.7264 119.740235 
L 314.7264 41.472 
" clip-path="url(#p5d0c07a2ff)" style="fill: #440154"/>
    <path d="M 321.8688 41.472 
L 329.0112 41.472 
L 329.0112 119.740235 
L 321.8688 119.740235 
L 321.8688 41.472 
" clip-path="url(#p5d0c07a2ff)" style="fill: #1f988b"/>
    <path d="M 329.0112 41.472 
L 336.1536 41.472 
L 336.1536 119.740235 
L 329.0112 119.740235 
L 329.0112 41.472 
" clip-path="url(#p5d0c07a2ff)" style="fill: #d5e21a"/>
    <path d="M 336.1536 41.472 
L 343.296 41.472 
L 343.296 119.740235 
L 336.1536 119.740235 
L 336.1536 41.472 
" clip-path="url(#p5d0c07a2ff)" style="fill: #2cb17e"/>
    <path d="M 343.296 41.472 
L 350.4384 41.472 
L 350.4384 119.740235 
L 343.296 119.740235 
L 343.296 41.472 
" clip-path="url(#p5d0c07a2ff)" style="fill: #440154"/>
    <path d="M 350.4384 41.472 
L 357.5808 41.472 
L 357.5808 119.740235 
L 350.4384 119.740235 
L 350.4384 41.472 
" clip-path="url(#p5d0c07a2ff)" style="fill: #440154"/>
    <path d="M 357.5808 41.472 
L 364.7232 41.472 
L 364.7232 119.740235 
L 357.5808 119.740235 
L 357.5808 41.472 
" clip-path="url(#p5d0c07a2ff)" style="fill: #440154"/>
    <path d="M 364.7232 41.472 
L 371.8656 41.472 
L 371.8656 119.740235 
L 364.7232 119.740235 
L 364.7232 41.472 
" clip-path="url(#p5d0c07a2ff)" style="fill: #440154"/>
    <path d="M 371.8656 41.472 
L 379.008 41.472 
L 379.008 119.740235 
L 371.8656 119.740235 
L 371.8656 41.472 
" clip-path="url(#p5d0c07a2ff)" style="fill: #1fa188"/>
    <path d="M 379.008 41.472 
L 386.1504 41.472 
L 386.1504 119.740235 
L 379.008 119.740235 
L 379.008 41.472 
" clip-path="url(#p5d0c07a2ff)" style="fill: #440154"/>
    <path d="M 386.1504 41.472 
L 393.2928 41.472 
L 393.2928 119.740235 
L 386.1504 119.740235 
L 386.1504 41.472 
" clip-path="url(#p5d0c07a2ff)" style="fill: #440154"/>
    <path d="M 393.2928 41.472 
L 400.4352 41.472 
L 400.4352 119.740235 
L 393.2928 119.740235 
L 393.2928 41.472 
" clip-path="url(#p5d0c07a2ff)" style="fill: #fde725"/>
    <path d="M 400.4352 41.472 
L 407.5776 41.472 
L 407.5776 119.740235 
L 400.4352 119.740235 
L 400.4352 41.472 
" clip-path="url(#p5d0c07a2ff)" style="fill: #218f8d"/>
    <path d="M 407.5776 41.472 
L 414.72 41.472 
L 414.72 119.740235 
L 407.5776 119.740235 
L 407.5776 41.472 
" clip-path="url(#p5d0c07a2ff)" style="fill: #440154"/>
   </g>
   <g id="matplotlib.axis_1">
    <g id="xtick_1">
     <g id="line2d_1">
      <defs>
       <path id="m0a42a35d34" d="M 0 0 
L 0 3.5 
" style="stroke: #000000; stroke-width: 0.8"/>
      </defs>
      <g>
       <use xlink:href="#m0a42a35d34" x="61.1712" y="119.740235" style="stroke: #000000; stroke-width: 0.8"/>
      </g>
     </g>
    </g>
    <g id="xtick_2">
     <g id="line2d_2">
      <g>
       <use xlink:href="#m0a42a35d34" x="75.456" y="119.740235" style="stroke: #000000; stroke-width: 0.8"/>
      </g>
     </g>
    </g>
    <g id="xtick_3">
     <g id="line2d_3">
      <g>
       <use xlink:href="#m0a42a35d34" x="89.7408" y="119.740235" style="stroke: #000000; stroke-width: 0.8"/>
      </g>
     </g>
    </g>
    <g id="xtick_4">
     <g id="line2d_4">
      <g>
       <use xlink:href="#m0a42a35d34" x="104.0256" y="119.740235" style="stroke: #000000; stroke-width: 0.8"/>
      </g>
     </g>
    </g>
    <g id="xtick_5">
     <g id="line2d_5">
      <g>
       <use xlink:href="#m0a42a35d34" x="118.3104" y="119.740235" style="stroke: #000000; stroke-width: 0.8"/>
      </g>
     </g>
    </g>
    <g id="xtick_6">
     <g id="line2d_6">
      <g>
       <use xlink:href="#m0a42a35d34" x="132.5952" y="119.740235" style="stroke: #000000; stroke-width: 0.8"/>
      </g>
     </g>
    </g>
    <g id="xtick_7">
     <g id="line2d_7">
      <g>
       <use xlink:href="#m0a42a35d34" x="146.88" y="119.740235" style="stroke: #000000; stroke-width: 0.8"/>
      </g>
     </g>
    </g>
    <g id="xtick_8">
     <g id="line2d_8">
      <g>
       <use xlink:href="#m0a42a35d34" x="161.1648" y="119.740235" style="stroke: #000000; stroke-width: 0.8"/>
      </g>
     </g>
    </g>
    <g id="xtick_9">
     <g id="line2d_9">
      <g>
       <use xlink:href="#m0a42a35d34" x="175.4496" y="119.740235" style="stroke: #000000; stroke-width: 0.8"/>
      </g>
     </g>
    </g>
    <g id="xtick_10">
     <g id="line2d_10">
      <g>
       <use xlink:href="#m0a42a35d34" x="189.7344" y="119.740235" style="stroke: #000000; stroke-width: 0.8"/>
      </g>
     </g>
    </g>
    <g id="xtick_11">
     <g id="line2d_11">
      <g>
       <use xlink:href="#m0a42a35d34" x="204.0192" y="119.740235" style="stroke: #000000; stroke-width: 0.8"/>
      </g>
     </g>
    </g>
    <g id="xtick_12">
     <g id="line2d_12">
      <g>
       <use xlink:href="#m0a42a35d34" x="218.304" y="119.740235" style="stroke: #000000; stroke-width: 0.8"/>
      </g>
     </g>
    </g>
    <g id="xtick_13">
     <g id="line2d_13">
      <g>
       <use xlink:href="#m0a42a35d34" x="232.5888" y="119.740235" style="stroke: #000000; stroke-width: 0.8"/>
      </g>
     </g>
    </g>
    <g id="xtick_14">
     <g id="line2d_14">
      <g>
       <use xlink:href="#m0a42a35d34" x="246.8736" y="119.740235" style="stroke: #000000; stroke-width: 0.8"/>
      </g>
     </g>
    </g>
    <g id="xtick_15">
     <g id="line2d_15">
      <g>
       <use xlink:href="#m0a42a35d34" x="261.1584" y="119.740235" style="stroke: #000000; stroke-width: 0.8"/>
      </g>
     </g>
    </g>
    <g id="xtick_16">
     <g id="line2d_16">
      <g>
       <use xlink:href="#m0a42a35d34" x="275.4432" y="119.740235" style="stroke: #000000; stroke-width: 0.8"/>
      </g>
     </g>
    </g>
    <g id="xtick_17">
     <g id="line2d_17">
      <g>
       <use xlink:href="#m0a42a35d34" x="289.728" y="119.740235" style="stroke: #000000; stroke-width: 0.8"/>
      </g>
     </g>
    </g>
    <g id="xtick_18">
     <g id="line2d_18">
      <g>
       <use xlink:href="#m0a42a35d34" x="304.0128" y="119.740235" style="stroke: #000000; stroke-width: 0.8"/>
      </g>
     </g>
    </g>
    <g id="xtick_19">
     <g id="line2d_19">
      <g>
       <use xlink:href="#m0a42a35d34" x="318.2976" y="119.740235" style="stroke: #000000; stroke-width: 0.8"/>
      </g>
     </g>
    </g>
    <g id="xtick_20">
     <g id="line2d_20">
      <g>
       <use xlink:href="#m0a42a35d34" x="332.5824" y="119.740235" style="stroke: #000000; stroke-width: 0.8"/>
      </g>
     </g>
    </g>
    <g id="xtick_21">
     <g id="line2d_21">
      <g>
       <use xlink:href="#m0a42a35d34" x="346.8672" y="119.740235" style="stroke: #000000; stroke-width: 0.8"/>
      </g>
     </g>
    </g>
    <g id="xtick_22">
     <g id="line2d_22">
      <g>
       <use xlink:href="#m0a42a35d34" x="361.152" y="119.740235" style="stroke: #000000; stroke-width: 0.8"/>
      </g>
     </g>
    </g>
    <g id="xtick_23">
     <g id="line2d_23">
      <g>
       <use xlink:href="#m0a42a35d34" x="375.4368" y="119.740235" style="stroke: #000000; stroke-width: 0.8"/>
      </g>
     </g>
    </g>
    <g id="xtick_24">
     <g id="line2d_24">
      <g>
       <use xlink:href="#m0a42a35d34" x="389.7216" y="119.740235" style="stroke: #000000; stroke-width: 0.8"/>
      </g>
     </g>
    </g>
    <g id="xtick_25">
     <g id="line2d_25">
      <g>
       <use xlink:href="#m0a42a35d34" x="404.0064" y="119.740235" style="stroke: #000000; stroke-width: 0.8"/>
      </g>
     </g>
    </g>
   </g>
   <g id="matplotlib.axis_2">
    <g id="ytick_1">
     <g id="line2d_26">
      <defs>
       <path id="m38a65454f9" d="M 0 0 
L -3.5 0 
" style="stroke: #000000; stroke-width: 0.8"/>
      </defs>
      <g>
       <use xlink:href="#m38a65454f9" x="57.6" y="80.606118" style="stroke: #000000; stroke-width: 0.8"/>
      </g>
     </g>
    </g>
    <g id="text_1">
     <!-- E(x) -->
     <g transform="translate(41.60875 104.654868) rotate(-90) scale(0.24 -0.24)">
      <defs>
       <path id="DejaVuSans-45" d="M 628 4666 
L 3578 4666 
L 3578 4134 
L 1259 4134 
L 1259 2753 
L 3481 2753 
L 3481 2222 
L 1259 2222 
L 1259 531 
L 3634 531 
L 3634 0 
L 628 0 
L 628 4666 
z
" transform="scale(0.015625)"/>
       <path id="DejaVuSans-28" d="M 1984 4856 
Q 1566 4138 1362 3434 
Q 1159 2731 1159 2009 
Q 1159 1288 1364 580 
Q 1569 -128 1984 -844 
L 1484 -844 
Q 1016 -109 783 600 
Q 550 1309 550 2009 
Q 550 2706 781 3412 
Q 1013 4119 1484 4856 
L 1984 4856 
z
" transform="scale(0.015625)"/>
       <path id="DejaVuSans-78" d="M 3513 3500 
L 2247 1797 
L 3578 0 
L 2900 0 
L 1881 1375 
L 863 0 
L 184 0 
L 1544 1831 
L 300 3500 
L 978 3500 
L 1906 2253 
L 2834 3500 
L 3513 3500 
z
" transform="scale(0.015625)"/>
       <path id="DejaVuSans-29" d="M 513 4856 
L 1013 4856 
Q 1481 4119 1714 3412 
Q 1947 2706 1947 2009 
Q 1947 1309 1714 600 
Q 1481 -109 1013 -844 
L 513 -844 
Q 928 -128 1133 580 
Q 1338 1288 1338 2009 
Q 1338 2731 1133 3434 
Q 928 4138 513 4856 
z
" transform="scale(0.015625)"/>
      </defs>
      <use xlink:href="#DejaVuSans-45"/>
      <use xlink:href="#DejaVuSans-28" x="63.183594"/>
      <use xlink:href="#DejaVuSans-78" x="102.197266"/>
      <use xlink:href="#DejaVuSans-29" x="161.376953"/>
     </g>
    </g>
   </g>
  </g>
  <g id="axes_2">
   <g id="patch_3">
    <path d="M 57.6 213.662118 
L 414.72 213.662118 
L 414.72 135.393882 
L 57.6 135.393882 
z
" style="fill: #ffffff"/>
   </g>
   <g id="QuadMesh_2">
    <path d="M 57.6 135.393882 
L 64.7424 135.393882 
L 64.7424 213.662118 
L 57.6 213.662118 
L 57.6 135.393882 
" clip-path="url(#pa50a8e2155)" style="fill: #440154"/>
    <path d="M 64.7424 135.393882 
L 71.8848 135.393882 
L 71.8848 213.662118 
L 64.7424 213.662118 
L 64.7424 135.393882 
" clip-path="url(#pa50a8e2155)" style="fill: #440256"/>
    <path d="M 71.8848 135.393882 
L 79.0272 135.393882 
L 79.0272 213.662118 
L 71.8848 213.662118 
L 71.8848 135.393882 
" clip-path="url(#pa50a8e2155)" style="fill: #440154"/>
    <path d="M 79.0272 135.393882 
L 86.1696 135.393882 
L 86.1696 213.662118 
L 79.0272 213.662118 
L 79.0272 135.393882 
" clip-path="url(#pa50a8e2155)" style="fill: #414487"/>
    <path d="M 86.1696 135.393882 
L 93.312 135.393882 
L 93.312 213.662118 
L 86.1696 213.662118 
L 86.1696 135.393882 
" clip-path="url(#pa50a8e2155)" style="fill: #218e8d"/>
    <path d="M 93.312 135.393882 
L 100.4544 135.393882 
L 100.4544 213.662118 
L 93.312 213.662118 
L 93.312 135.393882 
" clip-path="url(#pa50a8e2155)" style="fill: #440154"/>
    <path d="M 100.4544 135.393882 
L 107.5968 135.393882 
L 107.5968 213.662118 
L 100.4544 213.662118 
L 100.4544 135.393882 
" clip-path="url(#pa50a8e2155)" style="fill: #440154"/>
    <path d="M 107.5968 135.393882 
L 114.7392 135.393882 
L 114.7392 213.662118 
L 107.5968 213.662118 
L 107.5968 135.393882 
" clip-path="url(#pa50a8e2155)" style="fill: #440154"/>
    <path d="M 114.7392 135.393882 
L 121.8816 135.393882 
L 121.8816 213.662118 
L 114.7392 213.662118 
L 114.7392 135.393882 
" clip-path="url(#pa50a8e2155)" style="fill: #95d840"/>
    <path d="M 121.8816 135.393882 
L 129.024 135.393882 
L 129.024 213.662118 
L 121.8816 213.662118 
L 121.8816 135.393882 
" clip-path="url(#pa50a8e2155)" style="fill: #440154"/>
    <path d="M 129.024 135.393882 
L 136.1664 135.393882 
L 136.1664 213.662118 
L 129.024 213.662118 
L 129.024 135.393882 
" clip-path="url(#pa50a8e2155)" style="fill: #440154"/>
    <path d="M 136.1664 135.393882 
L 143.3088 135.393882 
L 143.3088 213.662118 
L 136.1664 213.662118 
L 136.1664 135.393882 
" clip-path="url(#pa50a8e2155)" style="fill: #440154"/>
    <path d="M 143.3088 135.393882 
L 150.4512 135.393882 
L 150.4512 213.662118 
L 143.3088 213.662118 
L 143.3088 135.393882 
" clip-path="url(#pa50a8e2155)" style="fill: #440154"/>
    <path d="M 150.4512 135.393882 
L 157.5936 135.393882 
L 157.5936 213.662118 
L 150.4512 213.662118 
L 150.4512 135.393882 
" clip-path="url(#pa50a8e2155)" style="fill: #440154"/>
    <path d="M 157.5936 135.393882 
L 164.736 135.393882 
L 164.736 213.662118 
L 157.5936 213.662118 
L 157.5936 135.393882 
" clip-path="url(#pa50a8e2155)" style="fill: #440154"/>
    <path d="M 164.736 135.393882 
L 171.8784 135.393882 
L 171.8784 213.662118 
L 164.736 213.662118 
L 164.736 135.393882 
" clip-path="url(#pa50a8e2155)" style="fill: #440154"/>
    <path d="M 171.8784 135.393882 
L 179.0208 135.393882 
L 179.0208 213.662118 
L 171.8784 213.662118 
L 171.8784 135.393882 
" clip-path="url(#pa50a8e2155)" style="fill: #440154"/>
    <path d="M 179.0208 135.393882 
L 186.1632 135.393882 
L 186.1632 213.662118 
L 179.0208 213.662118 
L 179.0208 135.393882 
" clip-path="url(#pa50a8e2155)" style="fill: #440154"/>
    <path d="M 186.1632 135.393882 
L 193.3056 135.393882 
L 193.3056 213.662118 
L 186.1632 213.662118 
L 186.1632 135.393882 
" clip-path="url(#pa50a8e2155)" style="fill: #440154"/>
    <path d="M 193.3056 135.393882 
L 200.448 135.393882 
L 200.448 213.662118 
L 193.3056 213.662118 
L 193.3056 135.393882 
" clip-path="url(#pa50a8e2155)" style="fill: #440154"/>
    <path d="M 200.448 135.393882 
L 207.5904 135.393882 
L 207.5904 213.662118 
L 200.448 213.662118 
L 200.448 135.393882 
" clip-path="url(#pa50a8e2155)" style="fill: #32648e"/>
    <path d="M 207.5904 135.393882 
L 214.7328 135.393882 
L 214.7328 213.662118 
L 207.5904 213.662118 
L 207.5904 135.393882 
" clip-path="url(#pa50a8e2155)" style="fill: #7ad151"/>
    <path d="M 214.7328 135.393882 
L 221.8752 135.393882 
L 221.8752 213.662118 
L 214.7328 213.662118 
L 214.7328 135.393882 
" clip-path="url(#pa50a8e2155)" style="fill: #440154"/>
    <path d="M 221.8752 135.393882 
L 229.0176 135.393882 
L 229.0176 213.662118 
L 221.8752 213.662118 
L 221.8752 135.393882 
" clip-path="url(#pa50a8e2155)" style="fill: #440154"/>
    <path d="M 229.0176 135.393882 
L 236.16 135.393882 
L 236.16 213.662118 
L 229.0176 213.662118 
L 229.0176 135.393882 
" clip-path="url(#pa50a8e2155)" style="fill: #440154"/>
    <path d="M 236.16 135.393882 
L 243.3024 135.393882 
L 243.3024 213.662118 
L 236.16 213.662118 
L 236.16 135.393882 
" clip-path="url(#pa50a8e2155)" style="fill: #86d549"/>
    <path d="M 243.3024 135.393882 
L 250.4448 135.393882 
L 250.4448 213.662118 
L 243.3024 213.662118 
L 243.3024 135.393882 
" clip-path="url(#pa50a8e2155)" style="fill: #c2df23"/>
    <path d="M 250.4448 135.393882 
L 257.5872 135.393882 
L 257.5872 213.662118 
L 250.4448 213.662118 
L 250.4448 135.393882 
" clip-path="url(#pa50a8e2155)" style="fill: #440154"/>
    <path d="M 257.5872 135.393882 
L 264.7296 135.393882 
L 264.7296 213.662118 
L 257.5872 213.662118 
L 257.5872 135.393882 
" clip-path="url(#pa50a8e2155)" style="fill: #fde725"/>
    <path d="M 264.7296 135.393882 
L 271.872 135.393882 
L 271.872 213.662118 
L 264.7296 213.662118 
L 264.7296 135.393882 
" clip-path="url(#pa50a8e2155)" style="fill: #440154"/>
    <path d="M 271.872 135.393882 
L 279.0144 135.393882 
L 279.0144 213.662118 
L 271.872 213.662118 
L 271.872 135.393882 
" clip-path="url(#pa50a8e2155)" style="fill: #440154"/>
    <path d="M 279.0144 135.393882 
L 286.1568 135.393882 
L 286.1568 213.662118 
L 279.0144 213.662118 
L 279.0144 135.393882 
" clip-path="url(#pa50a8e2155)" style="fill: #1f988b"/>
    <path d="M 286.1568 135.393882 
L 293.2992 135.393882 
L 293.2992 213.662118 
L 286.1568 213.662118 
L 286.1568 135.393882 
" clip-path="url(#pa50a8e2155)" style="fill: #440154"/>
    <path d="M 293.2992 135.393882 
L 300.4416 135.393882 
L 300.4416 213.662118 
L 293.2992 213.662118 
L 293.2992 135.393882 
" clip-path="url(#pa50a8e2155)" style="fill: #228c8d"/>
    <path d="M 300.4416 135.393882 
L 307.584 135.393882 
L 307.584 213.662118 
L 300.4416 213.662118 
L 300.4416 135.393882 
" clip-path="url(#pa50a8e2155)" style="fill: #365d8d"/>
    <path d="M 307.584 135.393882 
L 314.7264 135.393882 
L 314.7264 213.662118 
L 307.584 213.662118 
L 307.584 135.393882 
" clip-path="url(#pa50a8e2155)" style="fill: #23898e"/>
    <path d="M 314.7264 135.393882 
L 321.8688 135.393882 
L 321.8688 213.662118 
L 314.7264 213.662118 
L 314.7264 135.393882 
" clip-path="url(#pa50a8e2155)" style="fill: #8ed645"/>
    <path d="M 321.8688 135.393882 
L 329.0112 135.393882 
L 329.0112 213.662118 
L 321.8688 213.662118 
L 321.8688 135.393882 
" clip-path="url(#pa50a8e2155)" style="fill: #287d8e"/>
    <path d="M 329.0112 135.393882 
L 336.1536 135.393882 
L 336.1536 213.662118 
L 329.0112 213.662118 
L 329.0112 135.393882 
" clip-path="url(#pa50a8e2155)" style="fill: #2c718e"/>
    <path d="M 336.1536 135.393882 
L 343.296 135.393882 
L 343.296 213.662118 
L 336.1536 213.662118 
L 336.1536 135.393882 
" clip-path="url(#pa50a8e2155)" style="fill: #482677"/>
    <path d="M 343.296 135.393882 
L 350.4384 135.393882 
L 350.4384 213.662118 
L 343.296 213.662118 
L 343.296 135.393882 
" clip-path="url(#pa50a8e2155)" style="fill: #56c667"/>
    <path d="M 350.4384 135.393882 
L 357.5808 135.393882 
L 357.5808 213.662118 
L 350.4384 213.662118 
L 350.4384 135.393882 
" clip-path="url(#pa50a8e2155)" style="fill: #75d054"/>
    <path d="M 357.5808 135.393882 
L 364.7232 135.393882 
L 364.7232 213.662118 
L 357.5808 213.662118 
L 357.5808 135.393882 
" clip-path="url(#pa50a8e2155)" style="fill: #2e6e8e"/>
    <path d="M 364.7232 135.393882 
L 371.8656 135.393882 
L 371.8656 213.662118 
L 364.7232 213.662118 
L 364.7232 135.393882 
" clip-path="url(#pa50a8e2155)" style="fill: #1f978b"/>
    <path d="M 371.8656 135.393882 
L 379.008 135.393882 
L 379.008 213.662118 
L 371.8656 213.662118 
L 371.8656 135.393882 
" clip-path="url(#pa50a8e2155)" style="fill: #355e8d"/>
    <path d="M 379.008 135.393882 
L 386.1504 135.393882 
L 386.1504 213.662118 
L 379.008 213.662118 
L 379.008 135.393882 
" clip-path="url(#pa50a8e2155)" style="fill: #21a685"/>
    <path d="M 386.1504 135.393882 
L 393.2928 135.393882 
L 393.2928 213.662118 
L 386.1504 213.662118 
L 386.1504 135.393882 
" clip-path="url(#pa50a8e2155)" style="fill: #440154"/>
    <path d="M 393.2928 135.393882 
L 400.4352 135.393882 
L 400.4352 213.662118 
L 393.2928 213.662118 
L 393.2928 135.393882 
" clip-path="url(#pa50a8e2155)" style="fill: #297b8e"/>
    <path d="M 400.4352 135.393882 
L 407.5776 135.393882 
L 407.5776 213.662118 
L 400.4352 213.662118 
L 400.4352 135.393882 
" clip-path="url(#pa50a8e2155)" style="fill: #52c569"/>
    <path d="M 407.5776 135.393882 
L 414.72 135.393882 
L 414.72 213.662118 
L 407.5776 213.662118 
L 407.5776 135.393882 
" clip-path="url(#pa50a8e2155)" style="fill: #addc30"/>
   </g>
   <g id="matplotlib.axis_3">
    <g id="xtick_26">
     <g id="line2d_27">
      <g>
       <use xlink:href="#m0a42a35d34" x="61.1712" y="213.662118" style="stroke: #000000; stroke-width: 0.8"/>
      </g>
     </g>
    </g>
    <g id="xtick_27">
     <g id="line2d_28">
      <g>
       <use xlink:href="#m0a42a35d34" x="75.456" y="213.662118" style="stroke: #000000; stroke-width: 0.8"/>
      </g>
     </g>
    </g>
    <g id="xtick_28">
     <g id="line2d_29">
      <g>
       <use xlink:href="#m0a42a35d34" x="89.7408" y="213.662118" style="stroke: #000000; stroke-width: 0.8"/>
      </g>
     </g>
    </g>
    <g id="xtick_29">
     <g id="line2d_30">
      <g>
       <use xlink:href="#m0a42a35d34" x="104.0256" y="213.662118" style="stroke: #000000; stroke-width: 0.8"/>
      </g>
     </g>
    </g>
    <g id="xtick_30">
     <g id="line2d_31">
      <g>
       <use xlink:href="#m0a42a35d34" x="118.3104" y="213.662118" style="stroke: #000000; stroke-width: 0.8"/>
      </g>
     </g>
    </g>
    <g id="xtick_31">
     <g id="line2d_32">
      <g>
       <use xlink:href="#m0a42a35d34" x="132.5952" y="213.662118" style="stroke: #000000; stroke-width: 0.8"/>
      </g>
     </g>
    </g>
    <g id="xtick_32">
     <g id="line2d_33">
      <g>
       <use xlink:href="#m0a42a35d34" x="146.88" y="213.662118" style="stroke: #000000; stroke-width: 0.8"/>
      </g>
     </g>
    </g>
    <g id="xtick_33">
     <g id="line2d_34">
      <g>
       <use xlink:href="#m0a42a35d34" x="161.1648" y="213.662118" style="stroke: #000000; stroke-width: 0.8"/>
      </g>
     </g>
    </g>
    <g id="xtick_34">
     <g id="line2d_35">
      <g>
       <use xlink:href="#m0a42a35d34" x="175.4496" y="213.662118" style="stroke: #000000; stroke-width: 0.8"/>
      </g>
     </g>
    </g>
    <g id="xtick_35">
     <g id="line2d_36">
      <g>
       <use xlink:href="#m0a42a35d34" x="189.7344" y="213.662118" style="stroke: #000000; stroke-width: 0.8"/>
      </g>
     </g>
    </g>
    <g id="xtick_36">
     <g id="line2d_37">
      <g>
       <use xlink:href="#m0a42a35d34" x="204.0192" y="213.662118" style="stroke: #000000; stroke-width: 0.8"/>
      </g>
     </g>
    </g>
    <g id="xtick_37">
     <g id="line2d_38">
      <g>
       <use xlink:href="#m0a42a35d34" x="218.304" y="213.662118" style="stroke: #000000; stroke-width: 0.8"/>
      </g>
     </g>
    </g>
    <g id="xtick_38">
     <g id="line2d_39">
      <g>
       <use xlink:href="#m0a42a35d34" x="232.5888" y="213.662118" style="stroke: #000000; stroke-width: 0.8"/>
      </g>
     </g>
    </g>
    <g id="xtick_39">
     <g id="line2d_40">
      <g>
       <use xlink:href="#m0a42a35d34" x="246.8736" y="213.662118" style="stroke: #000000; stroke-width: 0.8"/>
      </g>
     </g>
    </g>
    <g id="xtick_40">
     <g id="line2d_41">
      <g>
       <use xlink:href="#m0a42a35d34" x="261.1584" y="213.662118" style="stroke: #000000; stroke-width: 0.8"/>
      </g>
     </g>
    </g>
    <g id="xtick_41">
     <g id="line2d_42">
      <g>
       <use xlink:href="#m0a42a35d34" x="275.4432" y="213.662118" style="stroke: #000000; stroke-width: 0.8"/>
      </g>
     </g>
    </g>
    <g id="xtick_42">
     <g id="line2d_43">
      <g>
       <use xlink:href="#m0a42a35d34" x="289.728" y="213.662118" style="stroke: #000000; stroke-width: 0.8"/>
      </g>
     </g>
    </g>
    <g id="xtick_43">
     <g id="line2d_44">
      <g>
       <use xlink:href="#m0a42a35d34" x="304.0128" y="213.662118" style="stroke: #000000; stroke-width: 0.8"/>
      </g>
     </g>
    </g>
    <g id="xtick_44">
     <g id="line2d_45">
      <g>
       <use xlink:href="#m0a42a35d34" x="318.2976" y="213.662118" style="stroke: #000000; stroke-width: 0.8"/>
      </g>
     </g>
    </g>
    <g id="xtick_45">
     <g id="line2d_46">
      <g>
       <use xlink:href="#m0a42a35d34" x="332.5824" y="213.662118" style="stroke: #000000; stroke-width: 0.8"/>
      </g>
     </g>
    </g>
    <g id="xtick_46">
     <g id="line2d_47">
      <g>
       <use xlink:href="#m0a42a35d34" x="346.8672" y="213.662118" style="stroke: #000000; stroke-width: 0.8"/>
      </g>
     </g>
    </g>
    <g id="xtick_47">
     <g id="line2d_48">
      <g>
       <use xlink:href="#m0a42a35d34" x="361.152" y="213.662118" style="stroke: #000000; stroke-width: 0.8"/>
      </g>
     </g>
    </g>
    <g id="xtick_48">
     <g id="line2d_49">
      <g>
       <use xlink:href="#m0a42a35d34" x="375.4368" y="213.662118" style="stroke: #000000; stroke-width: 0.8"/>
      </g>
     </g>
    </g>
    <g id="xtick_49">
     <g id="line2d_50">
      <g>
       <use xlink:href="#m0a42a35d34" x="389.7216" y="213.662118" style="stroke: #000000; stroke-width: 0.8"/>
      </g>
     </g>
    </g>
    <g id="xtick_50">
     <g id="line2d_51">
      <g>
       <use xlink:href="#m0a42a35d34" x="404.0064" y="213.662118" style="stroke: #000000; stroke-width: 0.8"/>
      </g>
     </g>
    </g>
   </g>
   <g id="matplotlib.axis_4">
    <g id="text_2">
     <!-- E(x+e) -->
     <g transform="translate(48.60875 216.016125) rotate(-90) scale(0.24 -0.24)">
      <defs>
       <path id="DejaVuSans-2b" d="M 2944 4013 
L 2944 2272 
L 4684 2272 
L 4684 1741 
L 2944 1741 
L 2944 0 
L 2419 0 
L 2419 1741 
L 678 1741 
L 678 2272 
L 2419 2272 
L 2419 4013 
L 2944 4013 
z
" transform="scale(0.015625)"/>
       <path id="DejaVuSans-65" d="M 3597 1894 
L 3597 1613 
L 953 1613 
Q 991 1019 1311 708 
Q 1631 397 2203 397 
Q 2534 397 2845 478 
Q 3156 559 3463 722 
L 3463 178 
Q 3153 47 2828 -22 
Q 2503 -91 2169 -91 
Q 1331 -91 842 396 
Q 353 884 353 1716 
Q 353 2575 817 3079 
Q 1281 3584 2069 3584 
Q 2775 3584 3186 3129 
Q 3597 2675 3597 1894 
z
M 3022 2063 
Q 3016 2534 2758 2815 
Q 2500 3097 2075 3097 
Q 1594 3097 1305 2825 
Q 1016 2553 972 2059 
L 3022 2063 
z
" transform="scale(0.015625)"/>
      </defs>
      <use xlink:href="#DejaVuSans-45"/>
      <use xlink:href="#DejaVuSans-28" x="63.183594"/>
      <use xlink:href="#DejaVuSans-78" x="102.197266"/>
      <use xlink:href="#DejaVuSans-2b" x="161.376953"/>
      <use xlink:href="#DejaVuSans-65" x="245.166016"/>
      <use xlink:href="#DejaVuSans-29" x="306.689453"/>
     </g>
    </g>
   </g>
  </g>
  <g id="axes_3">
   <g id="patch_4">
    <path d="M 57.6 307.584 
L 414.72 307.584 
L 414.72 229.315765 
L 57.6 229.315765 
z
" style="fill: #ffffff"/>
   </g>
   <g id="QuadMesh_3">
    <path d="M 57.6 229.315765 
L 64.7424 229.315765 
L 64.7424 307.584 
L 57.6 307.584 
L 57.6 229.315765 
" clip-path="url(#p63e01c91eb)" style="fill: #440154"/>
    <path d="M 64.7424 229.315765 
L 71.8848 229.315765 
L 71.8848 307.584 
L 64.7424 307.584 
L 64.7424 229.315765 
" clip-path="url(#p63e01c91eb)" style="fill: #440154"/>
    <path d="M 71.8848 229.315765 
L 79.0272 229.315765 
L 79.0272 307.584 
L 71.8848 307.584 
L 71.8848 229.315765 
" clip-path="url(#p63e01c91eb)" style="fill: #440154"/>
    <path d="M 79.0272 229.315765 
L 86.1696 229.315765 
L 86.1696 307.584 
L 79.0272 307.584 
L 79.0272 229.315765 
" clip-path="url(#p63e01c91eb)" style="fill: #440154"/>
    <path d="M 86.1696 229.315765 
L 93.312 229.315765 
L 93.312 307.584 
L 86.1696 307.584 
L 86.1696 229.315765 
" clip-path="url(#p63e01c91eb)" style="fill: #440154"/>
    <path d="M 93.312 229.315765 
L 100.4544 229.315765 
L 100.4544 307.584 
L 93.312 307.584 
L 93.312 229.315765 
" clip-path="url(#p63e01c91eb)" style="fill: #440154"/>
    <path d="M 100.4544 229.315765 
L 107.5968 229.315765 
L 107.5968 307.584 
L 100.4544 307.584 
L 100.4544 229.315765 
" clip-path="url(#p63e01c91eb)" style="fill: #440154"/>
    <path d="M 107.5968 229.315765 
L 114.7392 229.315765 
L 114.7392 307.584 
L 107.5968 307.584 
L 107.5968 229.315765 
" clip-path="url(#p63e01c91eb)" style="fill: #440154"/>
    <path d="M 114.7392 229.315765 
L 121.8816 229.315765 
L 121.8816 307.584 
L 114.7392 307.584 
L 114.7392 229.315765 
" clip-path="url(#p63e01c91eb)" style="fill: #440154"/>
    <path d="M 121.8816 229.315765 
L 129.024 229.315765 
L 129.024 307.584 
L 121.8816 307.584 
L 121.8816 229.315765 
" clip-path="url(#p63e01c91eb)" style="fill: #440154"/>
    <path d="M 129.024 229.315765 
L 136.1664 229.315765 
L 136.1664 307.584 
L 129.024 307.584 
L 129.024 229.315765 
" clip-path="url(#p63e01c91eb)" style="fill: #440154"/>
    <path d="M 136.1664 229.315765 
L 143.3088 229.315765 
L 143.3088 307.584 
L 136.1664 307.584 
L 136.1664 229.315765 
" clip-path="url(#p63e01c91eb)" style="fill: #440154"/>
    <path d="M 143.3088 229.315765 
L 150.4512 229.315765 
L 150.4512 307.584 
L 143.3088 307.584 
L 143.3088 229.315765 
" clip-path="url(#p63e01c91eb)" style="fill: #440154"/>
    <path d="M 150.4512 229.315765 
L 157.5936 229.315765 
L 157.5936 307.584 
L 150.4512 307.584 
L 150.4512 229.315765 
" clip-path="url(#p63e01c91eb)" style="fill: #440154"/>
    <path d="M 157.5936 229.315765 
L 164.736 229.315765 
L 164.736 307.584 
L 157.5936 307.584 
L 157.5936 229.315765 
" clip-path="url(#p63e01c91eb)" style="fill: #440154"/>
    <path d="M 164.736 229.315765 
L 171.8784 229.315765 
L 171.8784 307.584 
L 164.736 307.584 
L 164.736 229.315765 
" clip-path="url(#p63e01c91eb)" style="fill: #440154"/>
    <path d="M 171.8784 229.315765 
L 179.0208 229.315765 
L 179.0208 307.584 
L 171.8784 307.584 
L 171.8784 229.315765 
" clip-path="url(#p63e01c91eb)" style="fill: #440154"/>
    <path d="M 179.0208 229.315765 
L 186.1632 229.315765 
L 186.1632 307.584 
L 179.0208 307.584 
L 179.0208 229.315765 
" clip-path="url(#p63e01c91eb)" style="fill: #440154"/>
    <path d="M 186.1632 229.315765 
L 193.3056 229.315765 
L 193.3056 307.584 
L 186.1632 307.584 
L 186.1632 229.315765 
" clip-path="url(#p63e01c91eb)" style="fill: #440154"/>
    <path d="M 193.3056 229.315765 
L 200.448 229.315765 
L 200.448 307.584 
L 193.3056 307.584 
L 193.3056 229.315765 
" clip-path="url(#p63e01c91eb)" style="fill: #440154"/>
    <path d="M 200.448 229.315765 
L 207.5904 229.315765 
L 207.5904 307.584 
L 200.448 307.584 
L 200.448 229.315765 
" clip-path="url(#p63e01c91eb)" style="fill: #440154"/>
    <path d="M 207.5904 229.315765 
L 214.7328 229.315765 
L 214.7328 307.584 
L 207.5904 307.584 
L 207.5904 229.315765 
" clip-path="url(#p63e01c91eb)" style="fill: #440154"/>
    <path d="M 214.7328 229.315765 
L 221.8752 229.315765 
L 221.8752 307.584 
L 214.7328 307.584 
L 214.7328 229.315765 
" clip-path="url(#p63e01c91eb)" style="fill: #fde725"/>
    <path d="M 221.8752 229.315765 
L 229.0176 229.315765 
L 229.0176 307.584 
L 221.8752 307.584 
L 221.8752 229.315765 
" clip-path="url(#p63e01c91eb)" style="fill: #fde725"/>
    <path d="M 229.0176 229.315765 
L 236.16 229.315765 
L 236.16 307.584 
L 229.0176 307.584 
L 229.0176 229.315765 
" clip-path="url(#p63e01c91eb)" style="fill: #fde725"/>
    <path d="M 236.16 229.315765 
L 243.3024 229.315765 
L 243.3024 307.584 
L 236.16 307.584 
L 236.16 229.315765 
" clip-path="url(#p63e01c91eb)" style="fill: #fde725"/>
    <path d="M 243.3024 229.315765 
L 250.4448 229.315765 
L 250.4448 307.584 
L 243.3024 307.584 
L 243.3024 229.315765 
" clip-path="url(#p63e01c91eb)" style="fill: #fde725"/>
    <path d="M 250.4448 229.315765 
L 257.5872 229.315765 
L 257.5872 307.584 
L 250.4448 307.584 
L 250.4448 229.315765 
" clip-path="url(#p63e01c91eb)" style="fill: #fde725"/>
    <path d="M 257.5872 229.315765 
L 264.7296 229.315765 
L 264.7296 307.584 
L 257.5872 307.584 
L 257.5872 229.315765 
" clip-path="url(#p63e01c91eb)" style="fill: #440154"/>
    <path d="M 264.7296 229.315765 
L 271.872 229.315765 
L 271.872 307.584 
L 264.7296 307.584 
L 264.7296 229.315765 
" clip-path="url(#p63e01c91eb)" style="fill: #440154"/>
    <path d="M 271.872 229.315765 
L 279.0144 229.315765 
L 279.0144 307.584 
L 271.872 307.584 
L 271.872 229.315765 
" clip-path="url(#p63e01c91eb)" style="fill: #440154"/>
    <path d="M 279.0144 229.315765 
L 286.1568 229.315765 
L 286.1568 307.584 
L 279.0144 307.584 
L 279.0144 229.315765 
" clip-path="url(#p63e01c91eb)" style="fill: #440154"/>
    <path d="M 286.1568 229.315765 
L 293.2992 229.315765 
L 293.2992 307.584 
L 286.1568 307.584 
L 286.1568 229.315765 
" clip-path="url(#p63e01c91eb)" style="fill: #440154"/>
    <path d="M 293.2992 229.315765 
L 300.4416 229.315765 
L 300.4416 307.584 
L 293.2992 307.584 
L 293.2992 229.315765 
" clip-path="url(#p63e01c91eb)" style="fill: #440154"/>
    <path d="M 300.4416 229.315765 
L 307.584 229.315765 
L 307.584 307.584 
L 300.4416 307.584 
L 300.4416 229.315765 
" clip-path="url(#p63e01c91eb)" style="fill: #440154"/>
    <path d="M 307.584 229.315765 
L 314.7264 229.315765 
L 314.7264 307.584 
L 307.584 307.584 
L 307.584 229.315765 
" clip-path="url(#p63e01c91eb)" style="fill: #440154"/>
    <path d="M 314.7264 229.315765 
L 321.8688 229.315765 
L 321.8688 307.584 
L 314.7264 307.584 
L 314.7264 229.315765 
" clip-path="url(#p63e01c91eb)" style="fill: #440154"/>
    <path d="M 321.8688 229.315765 
L 329.0112 229.315765 
L 329.0112 307.584 
L 321.8688 307.584 
L 321.8688 229.315765 
" clip-path="url(#p63e01c91eb)" style="fill: #440154"/>
    <path d="M 329.0112 229.315765 
L 336.1536 229.315765 
L 336.1536 307.584 
L 329.0112 307.584 
L 329.0112 229.315765 
" clip-path="url(#p63e01c91eb)" style="fill: #440154"/>
    <path d="M 336.1536 229.315765 
L 343.296 229.315765 
L 343.296 307.584 
L 336.1536 307.584 
L 336.1536 229.315765 
" clip-path="url(#p63e01c91eb)" style="fill: #440154"/>
    <path d="M 343.296 229.315765 
L 350.4384 229.315765 
L 350.4384 307.584 
L 343.296 307.584 
L 343.296 229.315765 
" clip-path="url(#p63e01c91eb)" style="fill: #440154"/>
    <path d="M 350.4384 229.315765 
L 357.5808 229.315765 
L 357.5808 307.584 
L 350.4384 307.584 
L 350.4384 229.315765 
" clip-path="url(#p63e01c91eb)" style="fill: #440154"/>
    <path d="M 357.5808 229.315765 
L 364.7232 229.315765 
L 364.7232 307.584 
L 357.5808 307.584 
L 357.5808 229.315765 
" clip-path="url(#p63e01c91eb)" style="fill: #440154"/>
    <path d="M 364.7232 229.315765 
L 371.8656 229.315765 
L 371.8656 307.584 
L 364.7232 307.584 
L 364.7232 229.315765 
" clip-path="url(#p63e01c91eb)" style="fill: #440154"/>
    <path d="M 371.8656 229.315765 
L 379.008 229.315765 
L 379.008 307.584 
L 371.8656 307.584 
L 371.8656 229.315765 
" clip-path="url(#p63e01c91eb)" style="fill: #440154"/>
    <path d="M 379.008 229.315765 
L 386.1504 229.315765 
L 386.1504 307.584 
L 379.008 307.584 
L 379.008 229.315765 
" clip-path="url(#p63e01c91eb)" style="fill: #440154"/>
    <path d="M 386.1504 229.315765 
L 393.2928 229.315765 
L 393.2928 307.584 
L 386.1504 307.584 
L 386.1504 229.315765 
" clip-path="url(#p63e01c91eb)" style="fill: #440154"/>
    <path d="M 393.2928 229.315765 
L 400.4352 229.315765 
L 400.4352 307.584 
L 393.2928 307.584 
L 393.2928 229.315765 
" clip-path="url(#p63e01c91eb)" style="fill: #440154"/>
    <path d="M 400.4352 229.315765 
L 407.5776 229.315765 
L 407.5776 307.584 
L 400.4352 307.584 
L 400.4352 229.315765 
" clip-path="url(#p63e01c91eb)" style="fill: #440154"/>
    <path d="M 407.5776 229.315765 
L 414.72 229.315765 
L 414.72 307.584 
L 407.5776 307.584 
L 407.5776 229.315765 
" clip-path="url(#p63e01c91eb)" style="fill: #440154"/>
   </g>
   <g id="matplotlib.axis_5">
    <g id="xtick_51">
     <g id="line2d_52">
      <g>
       <use xlink:href="#m0a42a35d34" x="61.1712" y="307.584" style="stroke: #000000; stroke-width: 0.8"/>
      </g>
     </g>
    </g>
    <g id="xtick_52">
     <g id="line2d_53">
      <g>
       <use xlink:href="#m0a42a35d34" x="75.456" y="307.584" style="stroke: #000000; stroke-width: 0.8"/>
      </g>
     </g>
    </g>
    <g id="xtick_53">
     <g id="line2d_54">
      <g>
       <use xlink:href="#m0a42a35d34" x="89.7408" y="307.584" style="stroke: #000000; stroke-width: 0.8"/>
      </g>
     </g>
    </g>
    <g id="xtick_54">
     <g id="line2d_55">
      <g>
       <use xlink:href="#m0a42a35d34" x="104.0256" y="307.584" style="stroke: #000000; stroke-width: 0.8"/>
      </g>
     </g>
    </g>
    <g id="xtick_55">
     <g id="line2d_56">
      <g>
       <use xlink:href="#m0a42a35d34" x="118.3104" y="307.584" style="stroke: #000000; stroke-width: 0.8"/>
      </g>
     </g>
    </g>
    <g id="xtick_56">
     <g id="line2d_57">
      <g>
       <use xlink:href="#m0a42a35d34" x="132.5952" y="307.584" style="stroke: #000000; stroke-width: 0.8"/>
      </g>
     </g>
    </g>
    <g id="xtick_57">
     <g id="line2d_58">
      <g>
       <use xlink:href="#m0a42a35d34" x="146.88" y="307.584" style="stroke: #000000; stroke-width: 0.8"/>
      </g>
     </g>
    </g>
    <g id="xtick_58">
     <g id="line2d_59">
      <g>
       <use xlink:href="#m0a42a35d34" x="161.1648" y="307.584" style="stroke: #000000; stroke-width: 0.8"/>
      </g>
     </g>
    </g>
    <g id="xtick_59">
     <g id="line2d_60">
      <g>
       <use xlink:href="#m0a42a35d34" x="175.4496" y="307.584" style="stroke: #000000; stroke-width: 0.8"/>
      </g>
     </g>
    </g>
    <g id="xtick_60">
     <g id="line2d_61">
      <g>
       <use xlink:href="#m0a42a35d34" x="189.7344" y="307.584" style="stroke: #000000; stroke-width: 0.8"/>
      </g>
     </g>
    </g>
    <g id="xtick_61">
     <g id="line2d_62">
      <g>
       <use xlink:href="#m0a42a35d34" x="204.0192" y="307.584" style="stroke: #000000; stroke-width: 0.8"/>
      </g>
     </g>
    </g>
    <g id="xtick_62">
     <g id="line2d_63">
      <g>
       <use xlink:href="#m0a42a35d34" x="218.304" y="307.584" style="stroke: #000000; stroke-width: 0.8"/>
      </g>
     </g>
    </g>
    <g id="xtick_63">
     <g id="line2d_64">
      <g>
       <use xlink:href="#m0a42a35d34" x="232.5888" y="307.584" style="stroke: #000000; stroke-width: 0.8"/>
      </g>
     </g>
    </g>
    <g id="xtick_64">
     <g id="line2d_65">
      <g>
       <use xlink:href="#m0a42a35d34" x="246.8736" y="307.584" style="stroke: #000000; stroke-width: 0.8"/>
      </g>
     </g>
    </g>
    <g id="xtick_65">
     <g id="line2d_66">
      <g>
       <use xlink:href="#m0a42a35d34" x="261.1584" y="307.584" style="stroke: #000000; stroke-width: 0.8"/>
      </g>
     </g>
    </g>
    <g id="xtick_66">
     <g id="line2d_67">
      <g>
       <use xlink:href="#m0a42a35d34" x="275.4432" y="307.584" style="stroke: #000000; stroke-width: 0.8"/>
      </g>
     </g>
    </g>
    <g id="xtick_67">
     <g id="line2d_68">
      <g>
       <use xlink:href="#m0a42a35d34" x="289.728" y="307.584" style="stroke: #000000; stroke-width: 0.8"/>
      </g>
     </g>
    </g>
    <g id="xtick_68">
     <g id="line2d_69">
      <g>
       <use xlink:href="#m0a42a35d34" x="304.0128" y="307.584" style="stroke: #000000; stroke-width: 0.8"/>
      </g>
     </g>
    </g>
    <g id="xtick_69">
     <g id="line2d_70">
      <g>
       <use xlink:href="#m0a42a35d34" x="318.2976" y="307.584" style="stroke: #000000; stroke-width: 0.8"/>
      </g>
     </g>
    </g>
    <g id="xtick_70">
     <g id="line2d_71">
      <g>
       <use xlink:href="#m0a42a35d34" x="332.5824" y="307.584" style="stroke: #000000; stroke-width: 0.8"/>
      </g>
     </g>
    </g>
    <g id="xtick_71">
     <g id="line2d_72">
      <g>
       <use xlink:href="#m0a42a35d34" x="346.8672" y="307.584" style="stroke: #000000; stroke-width: 0.8"/>
      </g>
     </g>
    </g>
    <g id="xtick_72">
     <g id="line2d_73">
      <g>
       <use xlink:href="#m0a42a35d34" x="361.152" y="307.584" style="stroke: #000000; stroke-width: 0.8"/>
      </g>
     </g>
    </g>
    <g id="xtick_73">
     <g id="line2d_74">
      <g>
       <use xlink:href="#m0a42a35d34" x="375.4368" y="307.584" style="stroke: #000000; stroke-width: 0.8"/>
      </g>
     </g>
    </g>
    <g id="xtick_74">
     <g id="line2d_75">
      <g>
       <use xlink:href="#m0a42a35d34" x="389.7216" y="307.584" style="stroke: #000000; stroke-width: 0.8"/>
      </g>
     </g>
    </g>
    <g id="xtick_75">
     <g id="line2d_76">
      <g>
       <use xlink:href="#m0a42a35d34" x="404.0064" y="307.584" style="stroke: #000000; stroke-width: 0.8"/>
      </g>
     </g>
    </g>
   </g>
   <g id="matplotlib.axis_6">
    <g id="text_3">
     <!-- GT -->
     <g transform="translate(48.60875 284.642382) rotate(-90) scale(0.24 -0.24)">
      <defs>
       <path id="DejaVuSans-47" d="M 3809 666 
L 3809 1919 
L 2778 1919 
L 2778 2438 
L 4434 2438 
L 4434 434 
Q 4069 175 3628 42 
Q 3188 -91 2688 -91 
Q 1594 -91 976 548 
Q 359 1188 359 2328 
Q 359 3472 976 4111 
Q 1594 4750 2688 4750 
Q 3144 4750 3555 4637 
Q 3966 4525 4313 4306 
L 4313 3634 
Q 3963 3931 3569 4081 
Q 3175 4231 2741 4231 
Q 1884 4231 1454 3753 
Q 1025 3275 1025 2328 
Q 1025 1384 1454 906 
Q 1884 428 2741 428 
Q 3075 428 3337 486 
Q 3600 544 3809 666 
z
" transform="scale(0.015625)"/>
       <path id="DejaVuSans-54" d="M -19 4666 
L 3928 4666 
L 3928 4134 
L 2272 4134 
L 2272 0 
L 1638 0 
L 1638 4134 
L -19 4134 
L -19 4666 
z
" transform="scale(0.015625)"/>
      </defs>
      <use xlink:href="#DejaVuSans-47"/>
      <use xlink:href="#DejaVuSans-54" x="73.865234"/>
     </g>
    </g>
   </g>
  </g>
  <g id="axes_4">
   <g id="PolyCollection_1"/>
   <g id="matplotlib.axis_7">
    <g id="ytick_2">
     <g id="line2d_77">
      <defs>
       <path id="m21a0ae6d10" d="M 0 0 
L 3.5 0 
" style="stroke: #000000; stroke-width: 0.8"/>
      </defs>
      <g>
       <use xlink:href="#m21a0ae6d10" x="414.72" y="109.97668" style="stroke: #000000; stroke-width: 0.8"/>
      </g>
     </g>
    </g>
    <g id="ytick_3">
     <g id="line2d_78">
      <g>
       <use xlink:href="#m21a0ae6d10" x="414.72" y="74.125692" style="stroke: #000000; stroke-width: 0.8"/>
      </g>
     </g>
    </g>
   </g>
   <g id="line2d_79">
    <path d="M 57.6 66.184132 
L 64.7424 66.624154 
L 71.8848 52.076891 
L 79.0272 59.884317 
L 86.1696 76.432939 
L 93.312 76.960095 
L 100.4544 93.827218 
L 107.5968 88.860874 
L 114.7392 80.714975 
L 121.8816 109.114811 
L 129.024 90.601057 
L 136.1664 101.541437 
L 143.3088 95.111339 
L 150.4512 103.631424 
L 157.5936 103.006872 
L 164.736 102.136386 
L 171.8784 89.953109 
L 179.0208 88.67247 
L 186.1632 95.022865 
L 193.3056 101.384151 
L 200.448 70.591948 
L 207.5904 77.168832 
L 214.7328 116.182588 
L 221.8752 104.942541 
L 229.0176 87.334799 
L 236.16 59.653078 
L 243.3024 69.994401 
L 250.4448 79.525311 
L 257.5872 52.548172 
L 264.7296 45.029647 
L 271.872 52.406336 
L 279.0144 69.482274 
L 286.1568 78.523297 
L 293.2992 71.543825 
L 300.4416 67.79566 
L 307.584 73.032758 
L 314.7264 74.912417 
L 321.8688 62.931594 
L 329.0112 62.895734 
L 336.1536 66.890024 
L 343.296 74.942017 
L 350.4384 77.410325 
L 357.5808 62.340012 
L 364.7232 58.417489 
L 371.8656 68.355995 
L 379.008 55.446794 
L 386.1504 50.938157 
L 393.2928 59.432918 
L 400.4352 54.769637 
L 407.5776 50.080428 
" clip-path="url(#p5d0c07a2ff)" style="fill: none; stroke: #ffffff; stroke-width: 1.5; stroke-linecap: square"/>
   </g>
   <g id="patch_5">
    <path d="M 57.6 119.740235 
L 57.6 41.472 
" style="fill: none; stroke: #000000; stroke-width: 0.8; stroke-linejoin: miter; stroke-linecap: square"/>
   </g>
   <g id="patch_6">
    <path d="M 414.72 119.740235 
L 414.72 41.472 
" style="fill: none; stroke: #000000; stroke-width: 0.8; stroke-linejoin: miter; stroke-linecap: square"/>
   </g>
   <g id="patch_7">
    <path d="M 57.6 119.740235 
L 414.72 119.740235 
" style="fill: none; stroke: #000000; stroke-width: 0.8; stroke-linejoin: miter; stroke-linecap: square"/>
   </g>
   <g id="patch_8">
    <path d="M 57.6 41.472 
L 414.72 41.472 
" style="fill: none; stroke: #000000; stroke-width: 0.8; stroke-linejoin: miter; stroke-linecap: square"/>
   </g>
  </g>
  <g id="axes_5">
   <g id="PolyCollection_2"/>
   <g id="matplotlib.axis_8">
    <g id="ytick_4">
     <g id="line2d_80">
      <g>
       <use xlink:href="#m21a0ae6d10" x="414.72" y="212.861309" style="stroke: #000000; stroke-width: 0.8"/>
      </g>
     </g>
    </g>
    <g id="ytick_5">
     <g id="line2d_81">
      <g>
       <use xlink:href="#m21a0ae6d10" x="414.72" y="177.010322" style="stroke: #000000; stroke-width: 0.8"/>
      </g>
     </g>
    </g>
    <g id="ytick_6">
     <g id="line2d_82">
      <g>
       <use xlink:href="#m21a0ae6d10" x="414.72" y="141.159334" style="stroke: #000000; stroke-width: 0.8"/>
      </g>
     </g>
    </g>
   </g>
   <g id="line2d_83">
    <path d="M 57.6 160.106015 
L 64.7424 160.546036 
L 71.8848 145.998773 
L 79.0272 153.806199 
L 86.1696 170.354822 
L 93.312 170.881977 
L 100.4544 187.7491 
L 107.5968 182.782757 
L 114.7392 174.636857 
L 121.8816 203.036693 
L 129.024 184.522939 
L 136.1664 195.463319 
L 143.3088 189.033222 
L 150.4512 197.553307 
L 157.5936 196.928754 
L 164.736 196.058268 
L 171.8784 183.874991 
L 179.0208 182.594352 
L 186.1632 188.944747 
L 193.3056 195.306033 
L 200.448 164.513831 
L 207.5904 171.090714 
L 214.7328 210.104471 
L 221.8752 198.864423 
L 229.0176 181.256681 
L 236.16 153.574961 
L 243.3024 163.916283 
L 250.4448 173.447193 
L 257.5872 146.470055 
L 264.7296 138.951529 
L 271.872 146.328218 
L 279.0144 163.404157 
L 286.1568 172.44518 
L 293.2992 165.465707 
L 300.4416 161.717542 
L 307.584 166.954641 
L 314.7264 168.834299 
L 321.8688 156.853476 
L 329.0112 156.817617 
L 336.1536 160.811906 
L 343.296 168.863899 
L 350.4384 171.332207 
L 357.5808 156.261895 
L 364.7232 152.339372 
L 371.8656 162.277878 
L 379.008 149.368677 
L 386.1504 144.860039 
L 393.2928 153.3548 
L 400.4352 148.691519 
L 407.5776 144.00231 
" clip-path="url(#pa50a8e2155)" style="fill: none; stroke: #ffffff; stroke-width: 1.5; stroke-linecap: square"/>
   </g>
   <g id="patch_9">
    <path d="M 57.6 213.662118 
L 57.6 135.393882 
" style="fill: none; stroke: #000000; stroke-width: 0.8; stroke-linejoin: miter; stroke-linecap: square"/>
   </g>
   <g id="patch_10">
    <path d="M 414.72 213.662118 
L 414.72 135.393882 
" style="fill: none; stroke: #000000; stroke-width: 0.8; stroke-linejoin: miter; stroke-linecap: square"/>
   </g>
   <g id="patch_11">
    <path d="M 57.6 213.662118 
L 414.72 213.662118 
" style="fill: none; stroke: #000000; stroke-width: 0.8; stroke-linejoin: miter; stroke-linecap: square"/>
   </g>
   <g id="patch_12">
    <path d="M 57.6 135.393882 
L 414.72 135.393882 
" style="fill: none; stroke: #000000; stroke-width: 0.8; stroke-linejoin: miter; stroke-linecap: square"/>
   </g>
   <g id="legend_1"/>
  </g>
 </g>
 <defs>
  <clipPath id="p5d0c07a2ff">
   <rect x="57.6" y="41.472" width="357.12" height="78.268235"/>
  </clipPath>
  <clipPath id="pa50a8e2155">
   <rect x="57.6" y="135.393882" width="357.12" height="78.268235"/>
  </clipPath>
  <clipPath id="p63e01c91eb">
   <rect x="57.6" y="229.315765" width="357.12" height="78.268235"/>
  </clipPath>
 </defs>
</svg>
