<svg class="main-svg" xmlns="http://www.w3.org/2000/svg" xmlns:xlink="http://www.w3.org/1999/xlink" width="700" height="500" style="" viewBox="0 0 700 500"><rect x="0" y="0" width="700" height="500" style="fill: rgb(255, 255, 255); fill-opacity: 1;"/><defs id="defs-320057"><g class="clips"><clipPath id="clip320057xyplot" class="plotclip"><rect width="650" height="378"/></clipPath><clipPath class="axesclip" id="clip320057x"><rect x="50" y="0" width="650" height="500"/></clipPath><clipPath class="axesclip" id="clip320057y"><rect x="0" y="7" width="700" height="378"/></clipPath><clipPath class="axesclip" id="clip320057xy"><rect x="50" y="7" width="650" height="378"/></clipPath></g><g class="gradients"/><g class="patterns"/></defs><g class="bglayer"/><g class="layer-below"><g class="imagelayer"/><g class="shapelayer"/></g><g class="cartesianlayer"><g class="subplot xy"><g class="layer-subplot"><g class="shapelayer"/><g class="imagelayer"/></g><g class="minor-gridlayer"><g class="x"/><g class="y"/></g><g class="gridlayer"><g class="x"/><g class="y"><path class="ygrid crisp" transform="translate(0,290.5)" d="M50,0h650" style="stroke: rgb(235, 240, 248); stroke-opacity: 1; stroke-width: 1px;"/><path class="ygrid crisp" transform="translate(0,101.5)" d="M50,0h650" style="stroke: rgb(235, 240, 248); stroke-opacity: 1; stroke-width: 1px;"/></g></g><g class="zerolinelayer"><path class="yzl zl crisp" transform="translate(0,196)" d="M50,0h650" style="stroke: rgb(235, 240, 248); stroke-opacity: 1; stroke-width: 2px;"/></g><path class="xlines-below"/><path class="ylines-below"/><g class="overlines-below"/><g class="xaxislayer-below"/><g class="yaxislayer-below"/><g class="overaxes-below"/><g class="plot" transform="translate(50,7)" clip-path="url(#clip320057xyplot)"><g class="boxlayer mlayer"><g class="trace boxes" style="opacity: 1;"><path class="box" d="M13.83,179.6H23.39M13.83,202.22H23.39V154.98H13.83ZM18.61,202.22V245.34M18.61,154.98V99.2M16.22,245.34H21M16.22,99.2H21" style="vector-effect: none; stroke-width: 2px; stroke: rgb(0, 0, 0); stroke-opacity: 1; fill: rgb(211, 211, 211); fill-opacity: 1;"/><path class="box" d="M72.38,185.2H81.94M72.38,209.04H81.94V161.54H72.38ZM77.16,209.04V273.92M77.16,161.54V92.67M74.77,273.92H79.55M74.77,92.67H79.55" style="vector-effect: none; stroke-width: 2px; stroke: rgb(0, 0, 0); stroke-opacity: 1; fill: rgb(211, 211, 211); fill-opacity: 1;"/><path class="box" d="M130.92,183.65H140.48M130.92,214.45H140.48V152.48H130.92ZM135.7,214.45V286.88M135.7,152.48V61.31M133.31,286.88H138.09M133.31,61.31H138.09" style="vector-effect: none; stroke-width: 2px; stroke: rgb(0, 0, 0); stroke-opacity: 1; fill: rgb(211, 211, 211); fill-opacity: 1;"/><path class="box" d="M189.47,193.32H199.03M189.47,212.8H199.03V170.32H189.47ZM194.25,212.8V273.28M194.25,170.32V115.43M191.86,273.28H196.64M191.86,115.43H196.64" style="vector-effect: none; stroke-width: 2px; stroke: rgb(0, 0, 0); stroke-opacity: 1; fill: rgb(211, 211, 211); fill-opacity: 1;"/><path class="box" d="M248.01,174.87H257.58M248.01,201.06H257.58V150H248.01ZM252.79,201.06V276.39M252.79,150V79.58M250.4,276.39H255.18M250.4,79.58H255.18" style="vector-effect: none; stroke-width: 2px; stroke: rgb(0, 0, 0); stroke-opacity: 1; fill: rgb(211, 211, 211); fill-opacity: 1;"/><path class="box" d="M306.56,188.34H316.12M306.56,210.22H316.12V168H306.56ZM311.34,210.22V272.29M311.34,168V129.01M308.95,272.29H313.73M308.95,129.01H313.73" style="vector-effect: none; stroke-width: 2px; stroke: rgb(0, 0, 0); stroke-opacity: 1; fill: rgb(211, 211, 211); fill-opacity: 1;"/><path class="box" d="M365.1,181.6H374.67M365.1,206.32H374.67V152.33H365.1ZM369.88,206.32V273.65M369.88,152.33V86.12M367.49,273.65H372.28M367.49,86.12H372.28" style="vector-effect: none; stroke-width: 2px; stroke: rgb(0, 0, 0); stroke-opacity: 1; fill: rgb(211, 211, 211); fill-opacity: 1;"/><path class="box" d="M423.65,189.53H433.21M423.65,209.85H433.21V172H423.65ZM428.43,209.85V260.63M428.43,172V126.67M426.04,260.63H430.82M426.04,126.67H430.82" style="vector-effect: none; stroke-width: 2px; stroke: rgb(0, 0, 0); stroke-opacity: 1; fill: rgb(211, 211, 211); fill-opacity: 1;"/><path class="box" d="M482.19,185.2H491.76M482.19,207.59H491.76V151.47H482.19ZM486.98,207.59V283.14M486.98,151.47V70.45M484.59,283.14H489.37M484.59,70.45H489.37" style="vector-effect: none; stroke-width: 2px; stroke: rgb(0, 0, 0); stroke-opacity: 1; fill: rgb(211, 211, 211); fill-opacity: 1;"/><path class="box" d="M540.74,187.56H550.3M540.74,212.74H550.3V163.72H540.74ZM545.52,212.74V277.33M545.52,163.72V102.23M543.13,277.33H547.91M543.13,102.23H547.91" style="vector-effect: none; stroke-width: 2px; stroke: rgb(0, 0, 0); stroke-opacity: 1; fill: rgb(211, 211, 211); fill-opacity: 1;"/><path class="box" d="M599.29,199.79H608.85M599.29,222.76H608.85V172.76H599.29ZM604.07,222.76V279.46M604.07,172.76V98M601.68,279.46H606.46M601.68,98H606.46" style="vector-effect: none; stroke-width: 2px; stroke: rgb(0, 0, 0); stroke-opacity: 1; fill: rgb(211, 211, 211); fill-opacity: 1;"/><g class="points"/><g class="points"><path class="point" transform="translate(77.16,304.3)" d="M3,0A3,3 0 1,1 0,-3A3,3 0 0,1 3,0Z" style="opacity: 1; stroke-width: 0px; fill: rgb(0, 0, 0); fill-opacity: 1;"/><path class="point" transform="translate(77.16,292.21)" d="M3,0A3,3 0 1,1 0,-3A3,3 0 0,1 3,0Z" style="opacity: 1; stroke-width: 0px; fill: rgb(0, 0, 0); fill-opacity: 1;"/><path class="point" transform="translate(77.16,290.07)" d="M3,0A3,3 0 1,1 0,-3A3,3 0 0,1 3,0Z" style="opacity: 1; stroke-width: 0px; fill: rgb(0, 0, 0); fill-opacity: 1;"/><path class="point" transform="translate(77.16,280.68)" d="M3,0A3,3 0 1,1 0,-3A3,3 0 0,1 3,0Z" style="opacity: 1; stroke-width: 0px; fill: rgb(0, 0, 0); fill-opacity: 1;"/><path class="point" transform="translate(77.16,85.11)" d="M3,0A3,3 0 1,1 0,-3A3,3 0 0,1 3,0Z" style="opacity: 1; stroke-width: 0px; fill: rgb(0, 0, 0); fill-opacity: 1;"/><path class="point" transform="translate(77.16,79.26)" d="M3,0A3,3 0 1,1 0,-3A3,3 0 0,1 3,0Z" style="opacity: 1; stroke-width: 0px; fill: rgb(0, 0, 0); fill-opacity: 1;"/></g><g class="points"><path class="point" transform="translate(135.7,56.64)" d="M3,0A3,3 0 1,1 0,-3A3,3 0 0,1 3,0Z" style="opacity: 1; stroke-width: 0px; fill: rgb(0, 0, 0); fill-opacity: 1;"/><path class="point" transform="translate(135.7,48.02)" d="M3,0A3,3 0 1,1 0,-3A3,3 0 0,1 3,0Z" style="opacity: 1; stroke-width: 0px; fill: rgb(0, 0, 0); fill-opacity: 1;"/><path class="point" transform="translate(135.7,45.32)" d="M3,0A3,3 0 1,1 0,-3A3,3 0 0,1 3,0Z" style="opacity: 1; stroke-width: 0px; fill: rgb(0, 0, 0); fill-opacity: 1;"/><path class="point" transform="translate(135.7,43.49)" d="M3,0A3,3 0 1,1 0,-3A3,3 0 0,1 3,0Z" style="opacity: 1; stroke-width: 0px; fill: rgb(0, 0, 0); fill-opacity: 1;"/><path class="point" transform="translate(135.7,41.18)" d="M3,0A3,3 0 1,1 0,-3A3,3 0 0,1 3,0Z" style="opacity: 1; stroke-width: 0px; fill: rgb(0, 0, 0); fill-opacity: 1;"/><path class="point" transform="translate(135.7,39.35)" d="M3,0A3,3 0 1,1 0,-3A3,3 0 0,1 3,0Z" style="opacity: 1; stroke-width: 0px; fill: rgb(0, 0, 0); fill-opacity: 1;"/></g><g class="points"><path class="point" transform="translate(194.25,292.31)" d="M3,0A3,3 0 1,1 0,-3A3,3 0 0,1 3,0Z" style="opacity: 1; stroke-width: 0px; fill: rgb(0, 0, 0); fill-opacity: 1;"/><path class="point" transform="translate(194.25,277.49)" d="M3,0A3,3 0 1,1 0,-3A3,3 0 0,1 3,0Z" style="opacity: 1; stroke-width: 0px; fill: rgb(0, 0, 0); fill-opacity: 1;"/><path class="point" transform="translate(194.25,105.37)" d="M3,0A3,3 0 1,1 0,-3A3,3 0 0,1 3,0Z" style="opacity: 1; stroke-width: 0px; fill: rgb(0, 0, 0); fill-opacity: 1;"/><path class="point" transform="translate(194.25,98.99)" d="M3,0A3,3 0 1,1 0,-3A3,3 0 0,1 3,0Z" style="opacity: 1; stroke-width: 0px; fill: rgb(0, 0, 0); fill-opacity: 1;"/><path class="point" transform="translate(194.25,97.78)" d="M3,0A3,3 0 1,1 0,-3A3,3 0 0,1 3,0Z" style="opacity: 1; stroke-width: 0px; fill: rgb(0, 0, 0); fill-opacity: 1;"/><path class="point" transform="translate(194.25,90.63)" d="M3,0A3,3 0 1,1 0,-3A3,3 0 0,1 3,0Z" style="opacity: 1; stroke-width: 0px; fill: rgb(0, 0, 0); fill-opacity: 1;"/></g><g class="points"><path class="point" transform="translate(252.79,292.89)" d="M3,0A3,3 0 1,1 0,-3A3,3 0 0,1 3,0Z" style="opacity: 1; stroke-width: 0px; fill: rgb(0, 0, 0); fill-opacity: 1;"/><path class="point" transform="translate(252.79,73.38)" d="M3,0A3,3 0 1,1 0,-3A3,3 0 0,1 3,0Z" style="opacity: 1; stroke-width: 0px; fill: rgb(0, 0, 0); fill-opacity: 1;"/><path class="point" transform="translate(252.79,62.55)" d="M3,0A3,3 0 1,1 0,-3A3,3 0 0,1 3,0Z" style="opacity: 1; stroke-width: 0px; fill: rgb(0, 0, 0); fill-opacity: 1;"/><path class="point" transform="translate(252.79,59.97)" d="M3,0A3,3 0 1,1 0,-3A3,3 0 0,1 3,0Z" style="opacity: 1; stroke-width: 0px; fill: rgb(0, 0, 0); fill-opacity: 1;"/><path class="point" transform="translate(252.79,55.35)" d="M3,0A3,3 0 1,1 0,-3A3,3 0 0,1 3,0Z" style="opacity: 1; stroke-width: 0px; fill: rgb(0, 0, 0); fill-opacity: 1;"/><path class="point" transform="translate(252.79,52.66)" d="M3,0A3,3 0 1,1 0,-3A3,3 0 0,1 3,0Z" style="opacity: 1; stroke-width: 0px; fill: rgb(0, 0, 0); fill-opacity: 1;"/><path class="point" transform="translate(252.79,50.83)" d="M3,0A3,3 0 1,1 0,-3A3,3 0 0,1 3,0Z" style="opacity: 1; stroke-width: 0px; fill: rgb(0, 0, 0); fill-opacity: 1;"/></g><g class="points"><path class="point" transform="translate(311.34,99.03)" d="M3,0A3,3 0 1,1 0,-3A3,3 0 0,1 3,0Z" style="opacity: 1; stroke-width: 0px; fill: rgb(0, 0, 0); fill-opacity: 1;"/></g><g class="points"><path class="point" transform="translate(369.88,314.86)" d="M3,0A3,3 0 1,1 0,-3A3,3 0 0,1 3,0Z" style="opacity: 1; stroke-width: 0px; fill: rgb(0, 0, 0); fill-opacity: 1;"/><path class="point" transform="translate(369.88,304.79)" d="M3,0A3,3 0 1,1 0,-3A3,3 0 0,1 3,0Z" style="opacity: 1; stroke-width: 0px; fill: rgb(0, 0, 0); fill-opacity: 1;"/></g><g class="points"><path class="point" transform="translate(428.43,305.21)" d="M3,0A3,3 0 1,1 0,-3A3,3 0 0,1 3,0Z" style="opacity: 1; stroke-width: 0px; fill: rgb(0, 0, 0); fill-opacity: 1;"/><path class="point" transform="translate(428.43,112.2)" d="M3,0A3,3 0 1,1 0,-3A3,3 0 0,1 3,0Z" style="opacity: 1; stroke-width: 0px; fill: rgb(0, 0, 0); fill-opacity: 1;"/><path class="point" transform="translate(428.43,111.08)" d="M3,0A3,3 0 1,1 0,-3A3,3 0 0,1 3,0Z" style="opacity: 1; stroke-width: 0px; fill: rgb(0, 0, 0); fill-opacity: 1;"/><path class="point" transform="translate(428.43,110.5)" d="M3,0A3,3 0 1,1 0,-3A3,3 0 0,1 3,0Z" style="opacity: 1; stroke-width: 0px; fill: rgb(0, 0, 0); fill-opacity: 1;"/></g><g class="points"><path class="point" transform="translate(486.98,329.52)" d="M3,0A3,3 0 1,1 0,-3A3,3 0 0,1 3,0Z" style="opacity: 1; stroke-width: 0px; fill: rgb(0, 0, 0); fill-opacity: 1;"/><path class="point" transform="translate(486.98,305.38)" d="M3,0A3,3 0 1,1 0,-3A3,3 0 0,1 3,0Z" style="opacity: 1; stroke-width: 0px; fill: rgb(0, 0, 0); fill-opacity: 1;"/><path class="point" transform="translate(486.98,63.27)" d="M3,0A3,3 0 1,1 0,-3A3,3 0 0,1 3,0Z" style="opacity: 1; stroke-width: 0px; fill: rgb(0, 0, 0); fill-opacity: 1;"/><path class="point" transform="translate(486.98,60.37)" d="M3,0A3,3 0 1,1 0,-3A3,3 0 0,1 3,0Z" style="opacity: 1; stroke-width: 0px; fill: rgb(0, 0, 0); fill-opacity: 1;"/><path class="point" transform="translate(486.98,47.66)" d="M3,0A3,3 0 1,1 0,-3A3,3 0 0,1 3,0Z" style="opacity: 1; stroke-width: 0px; fill: rgb(0, 0, 0); fill-opacity: 1;"/><path class="point" transform="translate(486.98,44.64)" d="M3,0A3,3 0 1,1 0,-3A3,3 0 0,1 3,0Z" style="opacity: 1; stroke-width: 0px; fill: rgb(0, 0, 0); fill-opacity: 1;"/><path class="point" transform="translate(486.98,21.91)" d="M3,0A3,3 0 1,1 0,-3A3,3 0 0,1 3,0Z" style="opacity: 1; stroke-width: 0px; fill: rgb(0, 0, 0); fill-opacity: 1;"/></g><g class="points"><path class="point" transform="translate(545.52,313.59)" d="M3,0A3,3 0 1,1 0,-3A3,3 0 0,1 3,0Z" style="opacity: 1; stroke-width: 0px; fill: rgb(0, 0, 0); fill-opacity: 1;"/></g><g class="points"/><path class="mean" d="M13.83,177.53H23.39" style="fill: none; vector-effect: non-scaling-stroke; stroke-width: 2; stroke-dasharray: 4px, 2px; stroke: rgb(0, 0, 0); stroke-opacity: 1;"/><path class="mean" d="M72.38,185.08H81.94" style="fill: none; vector-effect: non-scaling-stroke; stroke-width: 2; stroke-dasharray: 4px, 2px; stroke: rgb(0, 0, 0); stroke-opacity: 1;"/><path class="mean" d="M130.92,182.01H140.48" style="fill: none; vector-effect: non-scaling-stroke; stroke-width: 2; stroke-dasharray: 4px, 2px; stroke: rgb(0, 0, 0); stroke-opacity: 1;"/><path class="mean" d="M189.47,191.28H199.03" style="fill: none; vector-effect: non-scaling-stroke; stroke-width: 2; stroke-dasharray: 4px, 2px; stroke: rgb(0, 0, 0); stroke-opacity: 1;"/><path class="mean" d="M248.01,174.49H257.58" style="fill: none; vector-effect: non-scaling-stroke; stroke-width: 2; stroke-dasharray: 4px, 2px; stroke: rgb(0, 0, 0); stroke-opacity: 1;"/><path class="mean" d="M306.56,188.89H316.12" style="fill: none; vector-effect: non-scaling-stroke; stroke-width: 2; stroke-dasharray: 4px, 2px; stroke: rgb(0, 0, 0); stroke-opacity: 1;"/><path class="mean" d="M365.1,180.3H374.67" style="fill: none; vector-effect: non-scaling-stroke; stroke-width: 2; stroke-dasharray: 4px, 2px; stroke: rgb(0, 0, 0); stroke-opacity: 1;"/><path class="mean" d="M423.65,190.02H433.21" style="fill: none; vector-effect: non-scaling-stroke; stroke-width: 2; stroke-dasharray: 4px, 2px; stroke: rgb(0, 0, 0); stroke-opacity: 1;"/><path class="mean" d="M482.19,180.03H491.76" style="fill: none; vector-effect: non-scaling-stroke; stroke-width: 2; stroke-dasharray: 4px, 2px; stroke: rgb(0, 0, 0); stroke-opacity: 1;"/><path class="mean" d="M540.74,188.58H550.3" style="fill: none; vector-effect: non-scaling-stroke; stroke-width: 2; stroke-dasharray: 4px, 2px; stroke: rgb(0, 0, 0); stroke-opacity: 1;"/><path class="mean" d="M599.29,196.78H608.85" style="fill: none; vector-effect: non-scaling-stroke; stroke-width: 2; stroke-dasharray: 4px, 2px; stroke: rgb(0, 0, 0); stroke-opacity: 1;"/></g><g class="trace boxes" style="opacity: 1;"><path class="box" d="M27.49,185.67H37.05M27.49,203.57H37.05V162.25H27.49ZM32.27,203.57V225.66M32.27,162.25V101.84M29.88,225.66H34.66M29.88,101.84H34.66" style="vector-effect: none; stroke-width: 2px; stroke: rgb(0, 0, 0); stroke-opacity: 1; fill: rgb(255, 255, 255); fill-opacity: 1;"/><path class="box" d="M86.04,184.25H95.6M86.04,201.73H95.6V166.38H86.04ZM90.82,201.73V254.71M90.82,166.38V116.29M88.43,254.71H93.21M88.43,116.29H93.21" style="vector-effect: none; stroke-width: 2px; stroke: rgb(0, 0, 0); stroke-opacity: 1; fill: rgb(255, 255, 255); fill-opacity: 1;"/><path class="box" d="M144.58,184.37H154.14M144.58,203.55H154.14V162.26H144.58ZM149.36,203.55V255.66M149.36,162.26V101.07M146.97,255.66H151.75M146.97,101.07H151.75" style="vector-effect: none; stroke-width: 2px; stroke: rgb(0, 0, 0); stroke-opacity: 1; fill: rgb(255, 255, 255); fill-opacity: 1;"/><path class="box" d="M203.13,191.21H212.69M203.13,207.97H212.69V176.74H203.13ZM207.91,207.97V250.33M207.91,176.74V132.6M205.52,250.33H210.3M205.52,132.6H210.3" style="vector-effect: none; stroke-width: 2px; stroke: rgb(0, 0, 0); stroke-opacity: 1; fill: rgb(255, 255, 255); fill-opacity: 1;"/><path class="box" d="M261.67,174.07H271.24M261.67,192.28H271.24V151.19H261.67ZM266.45,192.28V242.92M266.45,151.19V92.57M264.06,242.92H268.85M264.06,92.57H268.85" style="vector-effect: none; stroke-width: 2px; stroke: rgb(0, 0, 0); stroke-opacity: 1; fill: rgb(255, 255, 255); fill-opacity: 1;"/><path class="box" d="M320.22,190.08H329.78M320.22,203.89H329.78V174.8H320.22ZM325,203.89V239.89M325,174.8V141.33M322.61,239.89H327.39M322.61,141.33H327.39" style="vector-effect: none; stroke-width: 2px; stroke: rgb(0, 0, 0); stroke-opacity: 1; fill: rgb(255, 255, 255); fill-opacity: 1;"/><path class="box" d="M378.76,183.58H388.33M378.76,199.55H388.33V165.41H378.76ZM383.55,199.55V246.57M383.55,165.41V116.92M381.15,246.57H385.94M381.15,116.92H385.94" style="vector-effect: none; stroke-width: 2px; stroke: rgb(0, 0, 0); stroke-opacity: 1; fill: rgb(255, 255, 255); fill-opacity: 1;"/><path class="box" d="M437.31,187.39H446.87M437.31,201.39H446.87V175.32H437.31ZM442.09,201.39V236.42M442.09,175.32V143.07M439.7,236.42H444.48M439.7,143.07H444.48" style="vector-effect: none; stroke-width: 2px; stroke: rgb(0, 0, 0); stroke-opacity: 1; fill: rgb(255, 255, 255); fill-opacity: 1;"/><path class="box" d="M495.86,177.85H505.42M495.86,197.61H505.42V154.56H495.86ZM500.64,197.61V260.39M500.64,154.56V90.4M498.25,260.39H503.03M498.25,90.4H503.03" style="vector-effect: none; stroke-width: 2px; stroke: rgb(0, 0, 0); stroke-opacity: 1; fill: rgb(255, 255, 255); fill-opacity: 1;"/><path class="box" d="M554.4,192.62H563.96M554.4,208.97H563.96V178.98H554.4ZM559.18,208.97V246.01M559.18,178.98V141.53M556.79,246.01H561.57M556.79,141.53H561.57" style="vector-effect: none; stroke-width: 2px; stroke: rgb(0, 0, 0); stroke-opacity: 1; fill: rgb(255, 255, 255); fill-opacity: 1;"/><path class="box" d="M612.95,195.27H622.51M612.95,208.08H622.51V178.7H612.95ZM617.73,208.08V246.95M617.73,178.7V143.17M615.34,246.95H620.12M615.34,143.17H620.12" style="vector-effect: none; stroke-width: 2px; stroke: rgb(0, 0, 0); stroke-opacity: 1; fill: rgb(255, 255, 255); fill-opacity: 1;"/><g class="points"/><g class="points"><path class="point" transform="translate(90.82,265.22)" d="M3,0A3,3 0 1,1 0,-3A3,3 0 0,1 3,0Z" style="opacity: 1; stroke-width: 0px; fill: rgb(0, 0, 0); fill-opacity: 1;"/><path class="point" transform="translate(90.82,256.52)" d="M3,0A3,3 0 1,1 0,-3A3,3 0 0,1 3,0Z" style="opacity: 1; stroke-width: 0px; fill: rgb(0, 0, 0); fill-opacity: 1;"/><path class="point" transform="translate(90.82,110.24)" d="M3,0A3,3 0 1,1 0,-3A3,3 0 0,1 3,0Z" style="opacity: 1; stroke-width: 0px; fill: rgb(0, 0, 0); fill-opacity: 1;"/></g><g class="points"><path class="point" transform="translate(149.36,273.4)" d="M3,0A3,3 0 1,1 0,-3A3,3 0 0,1 3,0Z" style="opacity: 1; stroke-width: 0px; fill: rgb(0, 0, 0); fill-opacity: 1;"/><path class="point" transform="translate(149.36,99.6)" d="M3,0A3,3 0 1,1 0,-3A3,3 0 0,1 3,0Z" style="opacity: 1; stroke-width: 0px; fill: rgb(0, 0, 0); fill-opacity: 1;"/><path class="point" transform="translate(149.36,98.21)" d="M3,0A3,3 0 1,1 0,-3A3,3 0 0,1 3,0Z" style="opacity: 1; stroke-width: 0px; fill: rgb(0, 0, 0); fill-opacity: 1;"/><path class="point" transform="translate(149.36,98.13)" d="M3,0A3,3 0 1,1 0,-3A3,3 0 0,1 3,0Z" style="opacity: 1; stroke-width: 0px; fill: rgb(0, 0, 0); fill-opacity: 1;"/><path class="point" transform="translate(149.36,97.76)" d="M3,0A3,3 0 1,1 0,-3A3,3 0 0,1 3,0Z" style="opacity: 1; stroke-width: 0px; fill: rgb(0, 0, 0); fill-opacity: 1;"/><path class="point" transform="translate(149.36,95.45)" d="M3,0A3,3 0 1,1 0,-3A3,3 0 0,1 3,0Z" style="opacity: 1; stroke-width: 0px; fill: rgb(0, 0, 0); fill-opacity: 1;"/><path class="point" transform="translate(149.36,90.49)" d="M3,0A3,3 0 1,1 0,-3A3,3 0 0,1 3,0Z" style="opacity: 1; stroke-width: 0px; fill: rgb(0, 0, 0); fill-opacity: 1;"/><path class="point" transform="translate(149.36,88.78)" d="M3,0A3,3 0 1,1 0,-3A3,3 0 0,1 3,0Z" style="opacity: 1; stroke-width: 0px; fill: rgb(0, 0, 0); fill-opacity: 1;"/><path class="point" transform="translate(149.36,87.59)" d="M3,0A3,3 0 1,1 0,-3A3,3 0 0,1 3,0Z" style="opacity: 1; stroke-width: 0px; fill: rgb(0, 0, 0); fill-opacity: 1;"/><path class="point" transform="translate(149.36,80.7)" d="M3,0A3,3 0 1,1 0,-3A3,3 0 0,1 3,0Z" style="opacity: 1; stroke-width: 0px; fill: rgb(0, 0, 0); fill-opacity: 1;"/></g><g class="points"><path class="point" transform="translate(207.91,272.55)" d="M3,0A3,3 0 1,1 0,-3A3,3 0 0,1 3,0Z" style="opacity: 1; stroke-width: 0px; fill: rgb(0, 0, 0); fill-opacity: 1;"/><path class="point" transform="translate(207.91,118.02)" d="M3,0A3,3 0 1,1 0,-3A3,3 0 0,1 3,0Z" style="opacity: 1; stroke-width: 0px; fill: rgb(0, 0, 0); fill-opacity: 1;"/></g><g class="points"><path class="point" transform="translate(266.45,275.8)" d="M3,0A3,3 0 1,1 0,-3A3,3 0 0,1 3,0Z" style="opacity: 1; stroke-width: 0px; fill: rgb(0, 0, 0); fill-opacity: 1;"/><path class="point" transform="translate(266.45,270.31)" d="M3,0A3,3 0 1,1 0,-3A3,3 0 0,1 3,0Z" style="opacity: 1; stroke-width: 0px; fill: rgb(0, 0, 0); fill-opacity: 1;"/><path class="point" transform="translate(266.45,86.05)" d="M3,0A3,3 0 1,1 0,-3A3,3 0 0,1 3,0Z" style="opacity: 1; stroke-width: 0px; fill: rgb(0, 0, 0); fill-opacity: 1;"/><path class="point" transform="translate(266.45,74.09)" d="M3,0A3,3 0 1,1 0,-3A3,3 0 0,1 3,0Z" style="opacity: 1; stroke-width: 0px; fill: rgb(0, 0, 0); fill-opacity: 1;"/></g><g class="points"><path class="point" transform="translate(325,130.29)" d="M3,0A3,3 0 1,1 0,-3A3,3 0 0,1 3,0Z" style="opacity: 1; stroke-width: 0px; fill: rgb(0, 0, 0); fill-opacity: 1;"/><path class="point" transform="translate(325,129.49)" d="M3,0A3,3 0 1,1 0,-3A3,3 0 0,1 3,0Z" style="opacity: 1; stroke-width: 0px; fill: rgb(0, 0, 0); fill-opacity: 1;"/></g><g class="points"><path class="point" transform="translate(383.55,113.63)" d="M3,0A3,3 0 1,1 0,-3A3,3 0 0,1 3,0Z" style="opacity: 1; stroke-width: 0px; fill: rgb(0, 0, 0); fill-opacity: 1;"/></g><g class="points"><path class="point" transform="translate(442.09,244.06)" d="M3,0A3,3 0 1,1 0,-3A3,3 0 0,1 3,0Z" style="opacity: 1; stroke-width: 0px; fill: rgb(0, 0, 0); fill-opacity: 1;"/><path class="point" transform="translate(442.09,241.07)" d="M3,0A3,3 0 1,1 0,-3A3,3 0 0,1 3,0Z" style="opacity: 1; stroke-width: 0px; fill: rgb(0, 0, 0); fill-opacity: 1;"/><path class="point" transform="translate(442.09,129.31)" d="M3,0A3,3 0 1,1 0,-3A3,3 0 0,1 3,0Z" style="opacity: 1; stroke-width: 0px; fill: rgb(0, 0, 0); fill-opacity: 1;"/></g><g class="points"><path class="point" transform="translate(500.64,299.53)" d="M3,0A3,3 0 1,1 0,-3A3,3 0 0,1 3,0Z" style="opacity: 1; stroke-width: 0px; fill: rgb(0, 0, 0); fill-opacity: 1;"/><path class="point" transform="translate(500.64,78.53)" d="M3,0A3,3 0 1,1 0,-3A3,3 0 0,1 3,0Z" style="opacity: 1; stroke-width: 0px; fill: rgb(0, 0, 0); fill-opacity: 1;"/><path class="point" transform="translate(500.64,78.29)" d="M3,0A3,3 0 1,1 0,-3A3,3 0 0,1 3,0Z" style="opacity: 1; stroke-width: 0px; fill: rgb(0, 0, 0); fill-opacity: 1;"/><path class="point" transform="translate(500.64,44.86)" d="M3,0A3,3 0 1,1 0,-3A3,3 0 0,1 3,0Z" style="opacity: 1; stroke-width: 0px; fill: rgb(0, 0, 0); fill-opacity: 1;"/></g><g class="points"><path class="point" transform="translate(559.18,262.45)" d="M3,0A3,3 0 1,1 0,-3A3,3 0 0,1 3,0Z" style="opacity: 1; stroke-width: 0px; fill: rgb(0, 0, 0); fill-opacity: 1;"/><path class="point" transform="translate(559.18,131.66)" d="M3,0A3,3 0 1,1 0,-3A3,3 0 0,1 3,0Z" style="opacity: 1; stroke-width: 0px; fill: rgb(0, 0, 0); fill-opacity: 1;"/></g><g class="points"><path class="point" transform="translate(617.73,262.86)" d="M3,0A3,3 0 1,1 0,-3A3,3 0 0,1 3,0Z" style="opacity: 1; stroke-width: 0px; fill: rgb(0, 0, 0); fill-opacity: 1;"/></g><path class="mean" d="M27.49,180.83H37.05" style="fill: none; vector-effect: non-scaling-stroke; stroke-width: 2; stroke-dasharray: 4px, 2px; stroke: rgb(0, 0, 0); stroke-opacity: 1;"/><path class="mean" d="M86.04,184.02H95.6" style="fill: none; vector-effect: non-scaling-stroke; stroke-width: 2; stroke-dasharray: 4px, 2px; stroke: rgb(0, 0, 0); stroke-opacity: 1;"/><path class="mean" d="M144.58,180.85H154.14" style="fill: none; vector-effect: non-scaling-stroke; stroke-width: 2; stroke-dasharray: 4px, 2px; stroke: rgb(0, 0, 0); stroke-opacity: 1;"/><path class="mean" d="M203.13,191.91H212.69" style="fill: none; vector-effect: non-scaling-stroke; stroke-width: 2; stroke-dasharray: 4px, 2px; stroke: rgb(0, 0, 0); stroke-opacity: 1;"/><path class="mean" d="M261.67,170.65H271.24" style="fill: none; vector-effect: non-scaling-stroke; stroke-width: 2; stroke-dasharray: 4px, 2px; stroke: rgb(0, 0, 0); stroke-opacity: 1;"/><path class="mean" d="M320.22,189.48H329.78" style="fill: none; vector-effect: non-scaling-stroke; stroke-width: 2; stroke-dasharray: 4px, 2px; stroke: rgb(0, 0, 0); stroke-opacity: 1;"/><path class="mean" d="M378.76,182.06H388.33" style="fill: none; vector-effect: non-scaling-stroke; stroke-width: 2; stroke-dasharray: 4px, 2px; stroke: rgb(0, 0, 0); stroke-opacity: 1;"/><path class="mean" d="M437.31,187.99H446.87" style="fill: none; vector-effect: non-scaling-stroke; stroke-width: 2; stroke-dasharray: 4px, 2px; stroke: rgb(0, 0, 0); stroke-opacity: 1;"/><path class="mean" d="M495.86,175.06H505.42" style="fill: none; vector-effect: non-scaling-stroke; stroke-width: 2; stroke-dasharray: 4px, 2px; stroke: rgb(0, 0, 0); stroke-opacity: 1;"/><path class="mean" d="M554.4,193.18H563.96" style="fill: none; vector-effect: non-scaling-stroke; stroke-width: 2; stroke-dasharray: 4px, 2px; stroke: rgb(0, 0, 0); stroke-opacity: 1;"/><path class="mean" d="M612.95,194.88H622.51" style="fill: none; vector-effect: non-scaling-stroke; stroke-width: 2; stroke-dasharray: 4px, 2px; stroke: rgb(0, 0, 0); stroke-opacity: 1;"/></g><g class="trace boxes" style="opacity: 1;"><path class="box" d="M41.15,184.08H50.71M41.15,202.02H50.71V160.15H41.15ZM45.93,202.02V242.91M45.93,160.15V97.52M43.54,242.91H48.32M43.54,97.52H48.32" style="vector-effect: none; stroke-width: 2px; stroke: rgb(0, 0, 0); stroke-opacity: 1; fill: rgb(84, 83, 83); fill-opacity: 1;"/><path class="box" d="M99.7,179H109.26M99.7,211.23H109.26V147.19H99.7ZM104.48,211.23V296.51M104.48,147.19V54.48M102.09,296.51H106.87M102.09,54.48H106.87" style="vector-effect: none; stroke-width: 2px; stroke: rgb(0, 0, 0); stroke-opacity: 1; fill: rgb(84, 83, 83); fill-opacity: 1;"/><path class="box" d="M158.24,195.5H167.81M158.24,249.76H167.81V133.88H158.24ZM163.02,249.76V368.4M163.02,133.88V8.28M160.63,368.4H165.41M160.63,8.28H165.41" style="vector-effect: none; stroke-width: 2px; stroke: rgb(0, 0, 0); stroke-opacity: 1; fill: rgb(84, 83, 83); fill-opacity: 1;"/><path class="box" d="M216.79,195.21H226.35M216.79,223.97H226.35V162.06H216.79ZM221.57,223.97V303.76M221.57,162.06V70.31M219.18,303.76H223.96M219.18,70.31H223.96" style="vector-effect: none; stroke-width: 2px; stroke: rgb(0, 0, 0); stroke-opacity: 1; fill: rgb(84, 83, 83); fill-opacity: 1;"/><path class="box" d="M275.33,152.4H284.9M275.33,188.11H284.9V106.87H275.33ZM280.12,188.11V309.29M280.12,106.87V26.63M277.72,309.29H282.51M277.72,26.63H282.51" style="vector-effect: none; stroke-width: 2px; stroke: rgb(0, 0, 0); stroke-opacity: 1; fill: rgb(84, 83, 83); fill-opacity: 1;"/><path class="box" d="M333.88,193.61H343.44M333.88,216.12H343.44V166.02H333.88ZM338.66,216.12V275.11M338.66,166.02V109.87M336.27,275.11H341.05M336.27,109.87H341.05" style="vector-effect: none; stroke-width: 2px; stroke: rgb(0, 0, 0); stroke-opacity: 1; fill: rgb(84, 83, 83); fill-opacity: 1;"/><path class="box" d="M392.42,170.6H401.99M392.42,196.76H401.99V138.51H392.42ZM397.21,196.76V280.34M397.21,138.51V56.97M394.82,280.34H399.6M394.82,56.97H399.6" style="vector-effect: none; stroke-width: 2px; stroke: rgb(0, 0, 0); stroke-opacity: 1; fill: rgb(84, 83, 83); fill-opacity: 1;"/><path class="box" d="M450.97,192.82H460.53M450.97,214.32H460.53V170.07H450.97ZM455.75,214.32V273.2M455.75,170.07V107.44M453.36,273.2H458.14M453.36,107.44H458.14" style="vector-effect: none; stroke-width: 2px; stroke: rgb(0, 0, 0); stroke-opacity: 1; fill: rgb(84, 83, 83); fill-opacity: 1;"/><path class="box" d="M509.52,158.79H519.08M509.52,199.59H519.08V119.04H509.52ZM514.3,199.59V316.46M514.3,119.04V10.89M511.91,316.46H516.69M511.91,10.89H516.69" style="vector-effect: none; stroke-width: 2px; stroke: rgb(0, 0, 0); stroke-opacity: 1; fill: rgb(84, 83, 83); fill-opacity: 1;"/><path class="box" d="M568.06,199.22H577.62M568.06,228.94H577.62V164.45H568.06ZM572.84,228.94V305.5M572.84,164.45V84.59M570.45,305.5H575.23M570.45,84.59H575.23" style="vector-effect: none; stroke-width: 2px; stroke: rgb(0, 0, 0); stroke-opacity: 1; fill: rgb(84, 83, 83); fill-opacity: 1;"/><path class="box" d="M626.61,208.1H636.17M626.61,225.61H636.17V187.81H626.61ZM631.39,225.61V279.93M631.39,187.81V131.85M629,279.93H633.78M629,131.85H633.78" style="vector-effect: none; stroke-width: 2px; stroke: rgb(0, 0, 0); stroke-opacity: 1; fill: rgb(84, 83, 83); fill-opacity: 1;"/><g class="points"><path class="point" transform="translate(45.93,77.63)" d="M3,0A3,3 0 1,1 0,-3A3,3 0 0,1 3,0Z" style="opacity: 1; stroke-width: 0px; fill: rgb(0, 0, 0); fill-opacity: 1;"/></g><g class="points"><path class="point" transform="translate(104.48,327.09)" d="M3,0A3,3 0 1,1 0,-3A3,3 0 0,1 3,0Z" style="opacity: 1; stroke-width: 0px; fill: rgb(0, 0, 0); fill-opacity: 1;"/><path class="point" transform="translate(104.48,314.66)" d="M3,0A3,3 0 1,1 0,-3A3,3 0 0,1 3,0Z" style="opacity: 1; stroke-width: 0px; fill: rgb(0, 0, 0); fill-opacity: 1;"/><path class="point" transform="translate(104.48,49.66)" d="M3,0A3,3 0 1,1 0,-3A3,3 0 0,1 3,0Z" style="opacity: 1; stroke-width: 0px; fill: rgb(0, 0, 0); fill-opacity: 1;"/><path class="point" transform="translate(104.48,47.47)" d="M3,0A3,3 0 1,1 0,-3A3,3 0 0,1 3,0Z" style="opacity: 1; stroke-width: 0px; fill: rgb(0, 0, 0); fill-opacity: 1;"/><path class="point" transform="translate(104.48,44.46)" d="M3,0A3,3 0 1,1 0,-3A3,3 0 0,1 3,0Z" style="opacity: 1; stroke-width: 0px; fill: rgb(0, 0, 0); fill-opacity: 1;"/><path class="point" transform="translate(104.48,43.76)" d="M3,0A3,3 0 1,1 0,-3A3,3 0 0,1 3,0Z" style="opacity: 1; stroke-width: 0px; fill: rgb(0, 0, 0); fill-opacity: 1;"/><path class="point" transform="translate(104.48,41.32)" d="M3,0A3,3 0 1,1 0,-3A3,3 0 0,1 3,0Z" style="opacity: 1; stroke-width: 0px; fill: rgb(0, 0, 0); fill-opacity: 1;"/><path class="point" transform="translate(104.48,39.25)" d="M3,0A3,3 0 1,1 0,-3A3,3 0 0,1 3,0Z" style="opacity: 1; stroke-width: 0px; fill: rgb(0, 0, 0); fill-opacity: 1;"/><path class="point" transform="translate(104.48,29.67)" d="M3,0A3,3 0 1,1 0,-3A3,3 0 0,1 3,0Z" style="opacity: 1; stroke-width: 0px; fill: rgb(0, 0, 0); fill-opacity: 1;"/></g><g class="points"/><g class="points"><path class="point" transform="translate(221.57,68.91)" d="M3,0A3,3 0 1,1 0,-3A3,3 0 0,1 3,0Z" style="opacity: 1; stroke-width: 0px; fill: rgb(0, 0, 0); fill-opacity: 1;"/></g><g class="points"><path class="point" transform="translate(280.12,335.71)" d="M3,0A3,3 0 1,1 0,-3A3,3 0 0,1 3,0Z" style="opacity: 1; stroke-width: 0px; fill: rgb(0, 0, 0); fill-opacity: 1;"/><path class="point" transform="translate(280.12,327.16)" d="M3,0A3,3 0 1,1 0,-3A3,3 0 0,1 3,0Z" style="opacity: 1; stroke-width: 0px; fill: rgb(0, 0, 0); fill-opacity: 1;"/><path class="point" transform="translate(280.12,319.7)" d="M3,0A3,3 0 1,1 0,-3A3,3 0 0,1 3,0Z" style="opacity: 1; stroke-width: 0px; fill: rgb(0, 0, 0); fill-opacity: 1;"/><path class="point" transform="translate(280.12,314.93)" d="M3,0A3,3 0 1,1 0,-3A3,3 0 0,1 3,0Z" style="opacity: 1; stroke-width: 0px; fill: rgb(0, 0, 0); fill-opacity: 1;"/></g><g class="points"/><g class="points"><path class="point" transform="translate(397.21,302.08)" d="M3,0A3,3 0 1,1 0,-3A3,3 0 0,1 3,0Z" style="opacity: 1; stroke-width: 0px; fill: rgb(0, 0, 0); fill-opacity: 1;"/><path class="point" transform="translate(397.21,298.94)" d="M3,0A3,3 0 1,1 0,-3A3,3 0 0,1 3,0Z" style="opacity: 1; stroke-width: 0px; fill: rgb(0, 0, 0); fill-opacity: 1;"/><path class="point" transform="translate(397.21,50.03)" d="M3,0A3,3 0 1,1 0,-3A3,3 0 0,1 3,0Z" style="opacity: 1; stroke-width: 0px; fill: rgb(0, 0, 0); fill-opacity: 1;"/></g><g class="points"><path class="point" transform="translate(455.75,298.01)" d="M3,0A3,3 0 1,1 0,-3A3,3 0 0,1 3,0Z" style="opacity: 1; stroke-width: 0px; fill: rgb(0, 0, 0); fill-opacity: 1;"/><path class="point" transform="translate(455.75,280.76)" d="M3,0A3,3 0 1,1 0,-3A3,3 0 0,1 3,0Z" style="opacity: 1; stroke-width: 0px; fill: rgb(0, 0, 0); fill-opacity: 1;"/></g><g class="points"><path class="point" transform="translate(514.3,342.61)" d="M3,0A3,3 0 1,1 0,-3A3,3 0 0,1 3,0Z" style="opacity: 1; stroke-width: 0px; fill: rgb(0, 0, 0); fill-opacity: 1;"/><path class="point" transform="translate(514.3,340.33)" d="M3,0A3,3 0 1,1 0,-3A3,3 0 0,1 3,0Z" style="opacity: 1; stroke-width: 0px; fill: rgb(0, 0, 0); fill-opacity: 1;"/><path class="point" transform="translate(514.3,334.89)" d="M3,0A3,3 0 1,1 0,-3A3,3 0 0,1 3,0Z" style="opacity: 1; stroke-width: 0px; fill: rgb(0, 0, 0); fill-opacity: 1;"/><path class="point" transform="translate(514.3,322.41)" d="M3,0A3,3 0 1,1 0,-3A3,3 0 0,1 3,0Z" style="opacity: 1; stroke-width: 0px; fill: rgb(0, 0, 0); fill-opacity: 1;"/></g><g class="points"/><g class="points"><path class="point" transform="translate(631.39,289.62)" d="M3,0A3,3 0 1,1 0,-3A3,3 0 0,1 3,0Z" style="opacity: 1; stroke-width: 0px; fill: rgb(0, 0, 0); fill-opacity: 1;"/><path class="point" transform="translate(631.39,98.27)" d="M3,0A3,3 0 1,1 0,-3A3,3 0 0,1 3,0Z" style="opacity: 1; stroke-width: 0px; fill: rgb(0, 0, 0); fill-opacity: 1;"/></g><path class="mean" d="M41.15,179.33H50.71" style="fill: none; vector-effect: non-scaling-stroke; stroke-width: 2; stroke-dasharray: 4px, 2px; stroke: rgb(0, 0, 0); stroke-opacity: 1;"/><path class="mean" d="M99.7,176.66H109.26" style="fill: none; vector-effect: non-scaling-stroke; stroke-width: 2; stroke-dasharray: 4px, 2px; stroke: rgb(0, 0, 0); stroke-opacity: 1;"/><path class="mean" d="M158.24,188.6H167.81" style="fill: none; vector-effect: non-scaling-stroke; stroke-width: 2; stroke-dasharray: 4px, 2px; stroke: rgb(0, 0, 0); stroke-opacity: 1;"/><path class="mean" d="M216.79,191.52H226.35" style="fill: none; vector-effect: non-scaling-stroke; stroke-width: 2; stroke-dasharray: 4px, 2px; stroke: rgb(0, 0, 0); stroke-opacity: 1;"/><path class="mean" d="M275.33,151.64H284.9" style="fill: none; vector-effect: non-scaling-stroke; stroke-width: 2; stroke-dasharray: 4px, 2px; stroke: rgb(0, 0, 0); stroke-opacity: 1;"/><path class="mean" d="M333.88,192.04H343.44" style="fill: none; vector-effect: non-scaling-stroke; stroke-width: 2; stroke-dasharray: 4px, 2px; stroke: rgb(0, 0, 0); stroke-opacity: 1;"/><path class="mean" d="M392.42,169.03H401.99" style="fill: none; vector-effect: non-scaling-stroke; stroke-width: 2; stroke-dasharray: 4px, 2px; stroke: rgb(0, 0, 0); stroke-opacity: 1;"/><path class="mean" d="M450.97,191.1H460.53" style="fill: none; vector-effect: non-scaling-stroke; stroke-width: 2; stroke-dasharray: 4px, 2px; stroke: rgb(0, 0, 0); stroke-opacity: 1;"/><path class="mean" d="M509.52,163.05H519.08" style="fill: none; vector-effect: non-scaling-stroke; stroke-width: 2; stroke-dasharray: 4px, 2px; stroke: rgb(0, 0, 0); stroke-opacity: 1;"/><path class="mean" d="M568.06,195.43H577.62" style="fill: none; vector-effect: non-scaling-stroke; stroke-width: 2; stroke-dasharray: 4px, 2px; stroke: rgb(0, 0, 0); stroke-opacity: 1;"/><path class="mean" d="M626.61,207.62H636.17" style="fill: none; vector-effect: non-scaling-stroke; stroke-width: 2; stroke-dasharray: 4px, 2px; stroke: rgb(0, 0, 0); stroke-opacity: 1;"/></g></g></g><g class="overplot"/><path class="xlines-above crisp" d="M0,0" style="fill: none;"/><path class="ylines-above crisp" d="M0,0" style="fill: none;"/><g class="overlines-above"/><g class="xaxislayer-above"><path class="xdivider crisp" transform="translate(697,0)" d="M0,386v115.140625" style="stroke: rgb(68, 68, 68); stroke-opacity: 1; stroke-width: 1px;"/><path class="xdivider crisp" transform="translate(521.36,0)" d="M0,386v115.140625" style="stroke: rgb(68, 68, 68); stroke-opacity: 1; stroke-width: 1px;"/><path class="xdivider crisp" transform="translate(170.09,0)" d="M0,386v115.140625" style="stroke: rgb(68, 68, 68); stroke-opacity: 1; stroke-width: 1px;"/><path class="xdivider crisp" transform="translate(53,0)" d="M0,386v115.140625" style="stroke: rgb(68, 68, 68); stroke-opacity: 1; stroke-width: 1px;"/><g class="xtick"><text text-anchor="start" x="0" y="398" transform="translate(82.27000000000001,0) rotate(90,0,392)" style="font-family: 'Open Sans', verdana, arial, sans-serif; font-size: 12px; fill: rgb(42, 63, 95); fill-opacity: 1; white-space: pre; opacity: 1;">NativeGuideCF</text></g><g class="xtick"><text text-anchor="start" x="0" y="398" transform="translate(140.82,0) rotate(90,0,392)" style="font-family: 'Open Sans', verdana, arial, sans-serif; font-size: 12px; fill: rgb(42, 63, 95); fill-opacity: 1; white-space: pre; opacity: 1;">TSEvo</text></g><g class="xtick"><text text-anchor="start" x="0" y="398" transform="translate(199.36,0) rotate(90,0,392)" style="font-family: 'Open Sans', verdana, arial, sans-serif; font-size: 12px; fill: rgb(42, 63, 95); fill-opacity: 1; white-space: pre; opacity: 1;">GRAD</text></g><g class="xtick"><text text-anchor="start" x="0" y="398" transform="translate(257.90999999999997,0) rotate(90,0,392)" style="font-family: 'Open Sans', verdana, arial, sans-serif; font-size: 12px; fill: rgb(42, 63, 95); fill-opacity: 1; white-space: pre; opacity: 1;">GRAD - TSR</text></g><g class="xtick"><text text-anchor="start" x="0" y="398" transform="translate(316.45,0) rotate(90,0,392)" style="font-family: 'Open Sans', verdana, arial, sans-serif; font-size: 12px; fill: rgb(42, 63, 95); fill-opacity: 1; white-space: pre; opacity: 1;">GS</text></g><g class="xtick"><text text-anchor="start" x="0" y="398" transform="translate(375,0) rotate(90,0,392)" style="font-family: 'Open Sans', verdana, arial, sans-serif; font-size: 12px; fill: rgb(42, 63, 95); fill-opacity: 1; white-space: pre; opacity: 1;">GS - TSR</text></g><g class="xtick"><text text-anchor="start" x="0" y="398" transform="translate(433.55,0) rotate(90,0,392)" style="font-family: 'Open Sans', verdana, arial, sans-serif; font-size: 12px; fill: rgb(42, 63, 95); fill-opacity: 1; white-space: pre; opacity: 1;">SG</text></g><g class="xtick"><text text-anchor="start" x="0" y="398" transform="translate(492.09,0) rotate(90,0,392)" style="font-family: 'Open Sans', verdana, arial, sans-serif; font-size: 12px; fill: rgb(42, 63, 95); fill-opacity: 1; white-space: pre; opacity: 1;">SG - TSR</text></g><g class="xtick"><text text-anchor="start" x="0" y="398" transform="translate(550.64,0) rotate(90,0,392)" style="font-family: 'Open Sans', verdana, arial, sans-serif; font-size: 12px; fill: rgb(42, 63, 95); fill-opacity: 1; white-space: pre; opacity: 1;">FO</text></g><g class="xtick"><text text-anchor="start" x="0" y="398" transform="translate(609.18,0) rotate(90,0,392)" style="font-family: 'Open Sans', verdana, arial, sans-serif; font-size: 12px; fill: rgb(42, 63, 95); fill-opacity: 1; white-space: pre; opacity: 1;">FO - TSR</text></g><g class="xtick"><text text-anchor="start" x="0" y="398" transform="translate(667.73,0) rotate(90,0,392)" style="font-family: 'Open Sans', verdana, arial, sans-serif; font-size: 12px; fill: rgb(42, 63, 95); fill-opacity: 1; white-space: pre; opacity: 1;">LEFTIST</text></g><g class="xtick2"><text text-anchor="middle" x="0" y="497.63125" transform="translate(111.55,0)" style="font-family: 'Open Sans', verdana, arial, sans-serif; font-size: 12px; fill: rgb(42, 63, 95); fill-opacity: 1; white-space: pre; opacity: 1;">Example</text></g><g class="xtick2"><text text-anchor="middle" x="0" y="497.63125" transform="translate(345.73,0)" style="font-family: 'Open Sans', verdana, arial, sans-serif; font-size: 12px; fill: rgb(42, 63, 95); fill-opacity: 1; white-space: pre; opacity: 1;">Gradient</text></g><g class="xtick2"><text text-anchor="middle" x="0" y="497.63125" transform="translate(609.18,0)" style="font-family: 'Open Sans', verdana, arial, sans-serif; font-size: 12px; fill: rgb(42, 63, 95); fill-opacity: 1; white-space: pre; opacity: 1;">Perturbation</text></g></g><g class="yaxislayer-above"><g class="ytick"><text text-anchor="end" x="49" y="4.199999999999999" transform="translate(0,385)" style="font-family: 'Open Sans', verdana, arial, sans-serif; font-size: 12px; fill: rgb(42, 63, 95); fill-opacity: 1; white-space: pre; opacity: 1;">−1</text></g><g class="ytick"><text text-anchor="end" x="49" y="4.199999999999999" style="font-family: 'Open Sans', verdana, arial, sans-serif; font-size: 12px; fill: rgb(42, 63, 95); fill-opacity: 1; white-space: pre; opacity: 1;" transform="translate(0,290.5)">−0.5</text></g><g class="ytick"><text text-anchor="end" x="49" y="4.199999999999999" style="font-family: 'Open Sans', verdana, arial, sans-serif; font-size: 12px; fill: rgb(42, 63, 95); fill-opacity: 1; white-space: pre; opacity: 1;" transform="translate(0,196)">0</text></g><g class="ytick"><text text-anchor="end" x="49" y="4.199999999999999" style="font-family: 'Open Sans', verdana, arial, sans-serif; font-size: 12px; fill: rgb(42, 63, 95); fill-opacity: 1; white-space: pre; opacity: 1;" transform="translate(0,101.5)">0.5</text></g><g class="ytick"><text text-anchor="end" x="49" y="4.199999999999999" style="font-family: 'Open Sans', verdana, arial, sans-serif; font-size: 12px; fill: rgb(42, 63, 95); fill-opacity: 1; white-space: pre; opacity: 1;" transform="translate(0,7)">1</text></g></g><g class="overaxes-above"/></g></g><g class="polarlayer"/><g class="smithlayer"/><g class="ternarylayer"/><g class="geolayer"/><g class="funnelarealayer"/><g class="pielayer"/><g class="iciclelayer"/><g class="treemaplayer"/><g class="sunburstlayer"/><g class="glimages"/><defs id="topdefs-320057"><g class="clips"/><clipPath id="legend320057"><rect width="238" height="67" x="0" y="0"/></clipPath></defs><g class="layer-above"><g class="imagelayer"/><g class="shapelayer"/></g><g class="infolayer"><g class="legend" pointer-events="all" transform="translate(56.5,10.780000000000003)"><rect class="bg" shape-rendering="crispEdges" width="238" height="67" x="0" y="0" style="stroke: rgb(68, 68, 68); stroke-opacity: 1; fill: rgb(255, 255, 255); fill-opacity: 1; stroke-width: 0px;"/><g class="scrollbox" transform="" clip-path="url(#legend320057)"><g class="groups"><g class="traces" transform="translate(0,14.5)" style="opacity: 1;"><text class="legendtext" text-anchor="start" x="40" y="4.680000000000001" style="font-family: 'Open Sans', verdana, arial, sans-serif; font-size: 12px; fill: rgb(42, 63, 95); fill-opacity: 1; white-space: pre;">faithfulness correlation synthetic flex</text><g class="layers" style="opacity: 1;"><g class="legendfill"/><g class="legendlines"/><g class="legendsymbols"><g class="legendpoints"><path class="legendbox" d="M6,6H-6V-6H6Z" transform="translate(20,0)" style="stroke-width: 2px; fill: rgb(211, 211, 211); fill-opacity: 1; stroke: rgb(0, 0, 0); stroke-opacity: 1;"/></g></g></g><rect class="legendtoggle" x="0" y="-9.5" width="232.765625" height="19" style="fill: rgb(0, 0, 0); fill-opacity: 0;"/></g><g class="traces" transform="translate(0,33.5)" style="opacity: 1;"><text class="legendtext" text-anchor="start" x="40" y="4.680000000000001" style="font-family: 'Open Sans', verdana, arial, sans-serif; font-size: 12px; fill: rgb(42, 63, 95); fill-opacity: 1; white-space: pre;">faithfulness correlation uniform</text><g class="layers" style="opacity: 1;"><g class="legendfill"/><g class="legendlines"/><g class="legendsymbols"><g class="legendpoints"><path class="legendbox" d="M6,6H-6V-6H6Z" transform="translate(20,0)" style="stroke-width: 2px; fill: rgb(255, 255, 255); fill-opacity: 1; stroke: rgb(0, 0, 0); stroke-opacity: 1;"/></g></g></g><rect class="legendtoggle" x="0" y="-9.5" width="232.765625" height="19" style="fill: rgb(0, 0, 0); fill-opacity: 0;"/></g><g class="traces" transform="translate(0,52.5)" style="opacity: 1;"><text class="legendtext" text-anchor="start" x="40" y="4.680000000000001" style="font-family: 'Open Sans', verdana, arial, sans-serif; font-size: 12px; fill: rgb(42, 63, 95); fill-opacity: 1; white-space: pre;">faithfulness correlation mean</text><g class="layers" style="opacity: 1;"><g class="legendfill"/><g class="legendlines"/><g class="legendsymbols"><g class="legendpoints"><path class="legendbox" d="M6,6H-6V-6H6Z" transform="translate(20,0)" style="stroke-width: 2px; fill: rgb(84, 83, 83); fill-opacity: 1; stroke: rgb(0, 0, 0); stroke-opacity: 1;"/></g></g></g><rect class="legendtoggle" x="0" y="-9.5" width="232.765625" height="19" style="fill: rgb(0, 0, 0); fill-opacity: 0;"/></g></g></g><rect class="scrollbar" rx="20" ry="3" width="0" height="0" x="0" y="0" style="fill: rgb(128, 139, 164); fill-opacity: 1;"/></g><g class="g-gtitle"/><g class="g-xtitle"/><g class="g-ytitle" transform="translate(12.0029296875,0)"><text class="ytitle" transform="rotate(-90,0.9968750000000028,196)" x="0.9968750000000028" y="196" text-anchor="middle" style="font-family: 'Open Sans', verdana, arial, sans-serif; font-size: 14px; fill: rgb(42, 63, 95); opacity: 1; font-weight: normal; white-space: pre;">values</text></g></g></svg>