<svg class="main-svg" xmlns="http://www.w3.org/2000/svg" xmlns:xlink="http://www.w3.org/1999/xlink" width="700" height="500" style="" viewBox="0 0 700 500"><rect x="0" y="0" width="700" height="500" style="fill: rgb(255, 255, 255); fill-opacity: 1;"/><defs id="defs-008933"><g class="clips"><clipPath id="clip008933xyplot" class="plotclip"><rect width="650" height="378"/></clipPath><clipPath class="axesclip" id="clip008933x"><rect x="50" y="0" width="650" height="500"/></clipPath><clipPath class="axesclip" id="clip008933y"><rect x="0" y="7" width="700" height="378"/></clipPath><clipPath class="axesclip" id="clip008933xy"><rect x="50" y="7" width="650" height="378"/></clipPath></g><g class="gradients"/><g class="patterns"/></defs><g class="bglayer"/><g class="layer-below"><g class="imagelayer"/><g class="shapelayer"/></g><g class="cartesianlayer"><g class="subplot xy"><g class="layer-subplot"><g class="shapelayer"/><g class="imagelayer"/></g><g class="minor-gridlayer"><g class="x"/><g class="y"/></g><g class="gridlayer"><g class="x"/><g class="y"><path class="ygrid crisp" transform="translate(0,290.5)" d="M50,0h650" style="stroke: rgb(235, 240, 248); stroke-opacity: 1; stroke-width: 1px;"/><path class="ygrid crisp" transform="translate(0,101.5)" d="M50,0h650" style="stroke: rgb(235, 240, 248); stroke-opacity: 1; stroke-width: 1px;"/></g></g><g class="zerolinelayer"><path class="yzl zl crisp" transform="translate(0,196)" d="M50,0h650" style="stroke: rgb(235, 240, 248); stroke-opacity: 1; stroke-width: 2px;"/></g><path class="xlines-below"/><path class="ylines-below"/><g class="overlines-below"/><g class="xaxislayer-below"/><g class="yaxislayer-below"/><g class="overaxes-below"/><g class="plot" transform="translate(50,7)" clip-path="url(#clip008933xyplot)"><g class="boxlayer mlayer"><g class="trace boxes" style="opacity: 1;"><path class="box" d="M14.86,179.6H29.2M14.86,202.22H29.2V154.98H14.86ZM22.03,202.22V245.34M22.03,154.98V99.2M18.44,245.34H25.61M18.44,99.2H25.61" style="vector-effect: none; stroke-width: 2px; stroke: rgb(0, 0, 0); stroke-opacity: 1; fill: rgb(211, 211, 211); fill-opacity: 1;"/><path class="box" d="M73.4,182.72H87.74M73.4,208.84H87.74V160.9H73.4ZM80.57,208.84V273.92M80.57,160.9V92.67M76.99,273.92H84.16M76.99,92.67H84.16" style="vector-effect: none; stroke-width: 2px; stroke: rgb(0, 0, 0); stroke-opacity: 1; fill: rgb(211, 211, 211); fill-opacity: 1;"/><path class="box" d="M131.95,180.78H146.29M131.95,211.54H146.29V149.77H131.95ZM139.12,211.54V286.88M139.12,149.77V61.31M135.53,286.88H142.7M135.53,61.31H142.7" style="vector-effect: none; stroke-width: 2px; stroke: rgb(0, 0, 0); stroke-opacity: 1; fill: rgb(211, 211, 211); fill-opacity: 1;"/><path class="box" d="M190.49,191.8H204.84M190.49,212.07H204.84V169.77H190.49ZM197.66,212.07V273.28M197.66,169.77V118.53M194.08,273.28H201.25M194.08,118.53H201.25" style="vector-effect: none; stroke-width: 2px; stroke: rgb(0, 0, 0); stroke-opacity: 1; fill: rgb(211, 211, 211); fill-opacity: 1;"/><path class="box" d="M249.04,172.32H263.38M249.04,198.68H263.38V145.28H249.04ZM256.21,198.68V276.39M256.21,145.28V73.38M252.62,276.39H259.8M252.62,73.38H259.8" style="vector-effect: none; stroke-width: 2px; stroke: rgb(0, 0, 0); stroke-opacity: 1; fill: rgb(211, 211, 211); fill-opacity: 1;"/><path class="box" d="M307.58,188.19H321.93M307.58,210.65H321.93V167.94H307.58ZM314.75,210.65V272.29M314.75,167.94V129.01M311.17,272.29H318.34M311.17,129.01H318.34" style="vector-effect: none; stroke-width: 2px; stroke: rgb(0, 0, 0); stroke-opacity: 1; fill: rgb(211, 211, 211); fill-opacity: 1;"/><path class="box" d="M366.13,177.76H380.47M366.13,199.52H380.47V149.71H366.13ZM373.3,199.52V265.49M373.3,149.71V86.12M369.71,265.49H376.89M369.71,86.12H376.89" style="vector-effect: none; stroke-width: 2px; stroke: rgb(0, 0, 0); stroke-opacity: 1; fill: rgb(211, 211, 211); fill-opacity: 1;"/><path class="box" d="M424.67,191.11H439.02M424.67,209.85H439.02V172H424.67ZM431.85,209.85V260.63M431.85,172V126.67M428.26,260.63H435.43M428.26,126.67H435.43" style="vector-effect: none; stroke-width: 2px; stroke: rgb(0, 0, 0); stroke-opacity: 1; fill: rgb(211, 211, 211); fill-opacity: 1;"/><path class="box" d="M483.22,183.58H497.56M483.22,204.41H497.56V151.13H483.22ZM490.39,204.41V283.14M490.39,151.13V72.85M486.81,283.14H493.98M486.81,72.85H493.98" style="vector-effect: none; stroke-width: 2px; stroke: rgb(0, 0, 0); stroke-opacity: 1; fill: rgb(211, 211, 211); fill-opacity: 1;"/><path class="box" d="M541.76,188.3H556.11M541.76,213.92H556.11V164.09H541.76ZM548.94,213.92V277.33M548.94,164.09V102.23M545.35,277.33H552.52M545.35,102.23H552.52" style="vector-effect: none; stroke-width: 2px; stroke: rgb(0, 0, 0); stroke-opacity: 1; fill: rgb(211, 211, 211); fill-opacity: 1;"/><path class="box" d="M600.31,199.88H614.65M600.31,228.81H614.65V173.43H600.31ZM607.48,228.81V279.46M607.48,173.43V113.85M603.9,279.46H611.07M603.9,113.85H611.07" style="vector-effect: none; stroke-width: 2px; stroke: rgb(0, 0, 0); stroke-opacity: 1; fill: rgb(211, 211, 211); fill-opacity: 1;"/><g class="points"/><g class="points"><path class="point" transform="translate(80.57,304.3)" d="M3,0A3,3 0 1,1 0,-3A3,3 0 0,1 3,0Z" style="opacity: 1; stroke-width: 0px; fill: rgb(0, 0, 0); fill-opacity: 1;"/><path class="point" transform="translate(80.57,292.21)" d="M3,0A3,3 0 1,1 0,-3A3,3 0 0,1 3,0Z" style="opacity: 1; stroke-width: 0px; fill: rgb(0, 0, 0); fill-opacity: 1;"/><path class="point" transform="translate(80.57,290.07)" d="M3,0A3,3 0 1,1 0,-3A3,3 0 0,1 3,0Z" style="opacity: 1; stroke-width: 0px; fill: rgb(0, 0, 0); fill-opacity: 1;"/><path class="point" transform="translate(80.57,85.11)" d="M3,0A3,3 0 1,1 0,-3A3,3 0 0,1 3,0Z" style="opacity: 1; stroke-width: 0px; fill: rgb(0, 0, 0); fill-opacity: 1;"/><path class="point" transform="translate(80.57,79.26)" d="M3,0A3,3 0 1,1 0,-3A3,3 0 0,1 3,0Z" style="opacity: 1; stroke-width: 0px; fill: rgb(0, 0, 0); fill-opacity: 1;"/></g><g class="points"><path class="point" transform="translate(139.12,56.64)" d="M3,0A3,3 0 1,1 0,-3A3,3 0 0,1 3,0Z" style="opacity: 1; stroke-width: 0px; fill: rgb(0, 0, 0); fill-opacity: 1;"/><path class="point" transform="translate(139.12,48.02)" d="M3,0A3,3 0 1,1 0,-3A3,3 0 0,1 3,0Z" style="opacity: 1; stroke-width: 0px; fill: rgb(0, 0, 0); fill-opacity: 1;"/><path class="point" transform="translate(139.12,45.32)" d="M3,0A3,3 0 1,1 0,-3A3,3 0 0,1 3,0Z" style="opacity: 1; stroke-width: 0px; fill: rgb(0, 0, 0); fill-opacity: 1;"/><path class="point" transform="translate(139.12,43.49)" d="M3,0A3,3 0 1,1 0,-3A3,3 0 0,1 3,0Z" style="opacity: 1; stroke-width: 0px; fill: rgb(0, 0, 0); fill-opacity: 1;"/><path class="point" transform="translate(139.12,41.18)" d="M3,0A3,3 0 1,1 0,-3A3,3 0 0,1 3,0Z" style="opacity: 1; stroke-width: 0px; fill: rgb(0, 0, 0); fill-opacity: 1;"/><path class="point" transform="translate(139.12,39.35)" d="M3,0A3,3 0 1,1 0,-3A3,3 0 0,1 3,0Z" style="opacity: 1; stroke-width: 0px; fill: rgb(0, 0, 0); fill-opacity: 1;"/></g><g class="points"><path class="point" transform="translate(197.66,292.31)" d="M3,0A3,3 0 1,1 0,-3A3,3 0 0,1 3,0Z" style="opacity: 1; stroke-width: 0px; fill: rgb(0, 0, 0); fill-opacity: 1;"/><path class="point" transform="translate(197.66,98.99)" d="M3,0A3,3 0 1,1 0,-3A3,3 0 0,1 3,0Z" style="opacity: 1; stroke-width: 0px; fill: rgb(0, 0, 0); fill-opacity: 1;"/><path class="point" transform="translate(197.66,97.78)" d="M3,0A3,3 0 1,1 0,-3A3,3 0 0,1 3,0Z" style="opacity: 1; stroke-width: 0px; fill: rgb(0, 0, 0); fill-opacity: 1;"/><path class="point" transform="translate(197.66,90.63)" d="M3,0A3,3 0 1,1 0,-3A3,3 0 0,1 3,0Z" style="opacity: 1; stroke-width: 0px; fill: rgb(0, 0, 0); fill-opacity: 1;"/></g><g class="points"><path class="point" transform="translate(256.21,292.89)" d="M3,0A3,3 0 1,1 0,-3A3,3 0 0,1 3,0Z" style="opacity: 1; stroke-width: 0px; fill: rgb(0, 0, 0); fill-opacity: 1;"/><path class="point" transform="translate(256.21,62.55)" d="M3,0A3,3 0 1,1 0,-3A3,3 0 0,1 3,0Z" style="opacity: 1; stroke-width: 0px; fill: rgb(0, 0, 0); fill-opacity: 1;"/><path class="point" transform="translate(256.21,59.97)" d="M3,0A3,3 0 1,1 0,-3A3,3 0 0,1 3,0Z" style="opacity: 1; stroke-width: 0px; fill: rgb(0, 0, 0); fill-opacity: 1;"/><path class="point" transform="translate(256.21,55.35)" d="M3,0A3,3 0 1,1 0,-3A3,3 0 0,1 3,0Z" style="opacity: 1; stroke-width: 0px; fill: rgb(0, 0, 0); fill-opacity: 1;"/><path class="point" transform="translate(256.21,52.66)" d="M3,0A3,3 0 1,1 0,-3A3,3 0 0,1 3,0Z" style="opacity: 1; stroke-width: 0px; fill: rgb(0, 0, 0); fill-opacity: 1;"/><path class="point" transform="translate(256.21,50.83)" d="M3,0A3,3 0 1,1 0,-3A3,3 0 0,1 3,0Z" style="opacity: 1; stroke-width: 0px; fill: rgb(0, 0, 0); fill-opacity: 1;"/></g><g class="points"><path class="point" transform="translate(314.75,99.03)" d="M3,0A3,3 0 1,1 0,-3A3,3 0 0,1 3,0Z" style="opacity: 1; stroke-width: 0px; fill: rgb(0, 0, 0); fill-opacity: 1;"/></g><g class="points"/><g class="points"><path class="point" transform="translate(431.85,111.08)" d="M3,0A3,3 0 1,1 0,-3A3,3 0 0,1 3,0Z" style="opacity: 1; stroke-width: 0px; fill: rgb(0, 0, 0); fill-opacity: 1;"/></g><g class="points"><path class="point" transform="translate(490.39,70.73)" d="M3,0A3,3 0 1,1 0,-3A3,3 0 0,1 3,0Z" style="opacity: 1; stroke-width: 0px; fill: rgb(0, 0, 0); fill-opacity: 1;"/><path class="point" transform="translate(490.39,70.45)" d="M3,0A3,3 0 1,1 0,-3A3,3 0 0,1 3,0Z" style="opacity: 1; stroke-width: 0px; fill: rgb(0, 0, 0); fill-opacity: 1;"/><path class="point" transform="translate(490.39,63.27)" d="M3,0A3,3 0 1,1 0,-3A3,3 0 0,1 3,0Z" style="opacity: 1; stroke-width: 0px; fill: rgb(0, 0, 0); fill-opacity: 1;"/><path class="point" transform="translate(490.39,60.37)" d="M3,0A3,3 0 1,1 0,-3A3,3 0 0,1 3,0Z" style="opacity: 1; stroke-width: 0px; fill: rgb(0, 0, 0); fill-opacity: 1;"/><path class="point" transform="translate(490.39,47.66)" d="M3,0A3,3 0 1,1 0,-3A3,3 0 0,1 3,0Z" style="opacity: 1; stroke-width: 0px; fill: rgb(0, 0, 0); fill-opacity: 1;"/><path class="point" transform="translate(490.39,44.64)" d="M3,0A3,3 0 1,1 0,-3A3,3 0 0,1 3,0Z" style="opacity: 1; stroke-width: 0px; fill: rgb(0, 0, 0); fill-opacity: 1;"/><path class="point" transform="translate(490.39,21.91)" d="M3,0A3,3 0 1,1 0,-3A3,3 0 0,1 3,0Z" style="opacity: 1; stroke-width: 0px; fill: rgb(0, 0, 0); fill-opacity: 1;"/></g><g class="points"><path class="point" transform="translate(548.94,313.59)" d="M3,0A3,3 0 1,1 0,-3A3,3 0 0,1 3,0Z" style="opacity: 1; stroke-width: 0px; fill: rgb(0, 0, 0); fill-opacity: 1;"/></g><g class="points"/><path class="mean" d="M14.86,177.53H29.2" style="fill: none; vector-effect: non-scaling-stroke; stroke-width: 2; stroke-dasharray: 4px, 2px; stroke: rgb(0, 0, 0); stroke-opacity: 1;"/><path class="mean" d="M73.4,183.53H87.74" style="fill: none; vector-effect: non-scaling-stroke; stroke-width: 2; stroke-dasharray: 4px, 2px; stroke: rgb(0, 0, 0); stroke-opacity: 1;"/><path class="mean" d="M131.95,179.34H146.29" style="fill: none; vector-effect: non-scaling-stroke; stroke-width: 2; stroke-dasharray: 4px, 2px; stroke: rgb(0, 0, 0); stroke-opacity: 1;"/><path class="mean" d="M190.49,190.64H204.84" style="fill: none; vector-effect: non-scaling-stroke; stroke-width: 2; stroke-dasharray: 4px, 2px; stroke: rgb(0, 0, 0); stroke-opacity: 1;"/><path class="mean" d="M249.04,171.51H263.38" style="fill: none; vector-effect: non-scaling-stroke; stroke-width: 2; stroke-dasharray: 4px, 2px; stroke: rgb(0, 0, 0); stroke-opacity: 1;"/><path class="mean" d="M307.58,189.12H321.93" style="fill: none; vector-effect: non-scaling-stroke; stroke-width: 2; stroke-dasharray: 4px, 2px; stroke: rgb(0, 0, 0); stroke-opacity: 1;"/><path class="mean" d="M366.13,175.09H380.47" style="fill: none; vector-effect: non-scaling-stroke; stroke-width: 2; stroke-dasharray: 4px, 2px; stroke: rgb(0, 0, 0); stroke-opacity: 1;"/><path class="mean" d="M424.67,190.31H439.02" style="fill: none; vector-effect: non-scaling-stroke; stroke-width: 2; stroke-dasharray: 4px, 2px; stroke: rgb(0, 0, 0); stroke-opacity: 1;"/><path class="mean" d="M483.22,177.63H497.56" style="fill: none; vector-effect: non-scaling-stroke; stroke-width: 2; stroke-dasharray: 4px, 2px; stroke: rgb(0, 0, 0); stroke-opacity: 1;"/><path class="mean" d="M541.76,189.38H556.11" style="fill: none; vector-effect: non-scaling-stroke; stroke-width: 2; stroke-dasharray: 4px, 2px; stroke: rgb(0, 0, 0); stroke-opacity: 1;"/><path class="mean" d="M600.31,202.01H614.65" style="fill: none; vector-effect: non-scaling-stroke; stroke-width: 2; stroke-dasharray: 4px, 2px; stroke: rgb(0, 0, 0); stroke-opacity: 1;"/></g><g class="trace boxes" style="opacity: 1;"><path class="box" d="M93.89,191.62H108.24M93.89,211.43H108.24V163.03H93.89ZM101.06,211.43V280.68M101.06,163.03V113.45M97.48,280.68H104.65M97.48,113.45H104.65" style="vector-effect: none; stroke-width: 2px; stroke: rgb(0, 0, 0); stroke-opacity: 1; fill: rgb(255, 255, 255); fill-opacity: 1;"/><path class="box" d="M152.44,195.5H166.78M152.44,217.1H166.78V166.85H152.44ZM159.61,217.1V252.92M159.61,166.85V107.51M156.02,252.92H163.2M156.02,107.51H163.2" style="vector-effect: none; stroke-width: 2px; stroke: rgb(0, 0, 0); stroke-opacity: 1; fill: rgb(255, 255, 255); fill-opacity: 1;"/><path class="box" d="M210.98,195.59H225.33M210.98,216.48H225.33V175.85H210.98ZM218.15,216.48V269.47M218.15,175.85V115.43M214.57,269.47H221.74M214.57,115.43H221.74" style="vector-effect: none; stroke-width: 2px; stroke: rgb(0, 0, 0); stroke-opacity: 1; fill: rgb(255, 255, 255); fill-opacity: 1;"/><path class="box" d="M269.53,185.95H283.87M269.53,207.82H283.87V156.4H269.53ZM276.7,207.82V264.5M276.7,156.4V120.11M273.11,264.5H280.29M273.11,120.11H280.29" style="vector-effect: none; stroke-width: 2px; stroke: rgb(0, 0, 0); stroke-opacity: 1; fill: rgb(255, 255, 255); fill-opacity: 1;"/><path class="box" d="M328.07,188.59H342.42M328.07,205.08H342.42V168.45H328.07ZM335.25,205.08V247.37M335.25,168.45V133.22M331.66,247.37H338.83M331.66,133.22H338.83" style="vector-effect: none; stroke-width: 2px; stroke: rgb(0, 0, 0); stroke-opacity: 1; fill: rgb(255, 255, 255); fill-opacity: 1;"/><path class="box" d="M386.62,199H400.96M386.62,220.77H400.96V170.8H386.62ZM393.79,220.77V273.65M393.79,170.8V107.04M390.21,273.65H397.38M390.21,107.04H397.38" style="vector-effect: none; stroke-width: 2px; stroke: rgb(0, 0, 0); stroke-opacity: 1; fill: rgb(255, 255, 255); fill-opacity: 1;"/><path class="box" d="M445.16,187.74H459.51M445.16,209.36H459.51V173.1H445.16ZM452.34,209.36V258.07M452.34,173.1V128.41M448.75,258.07H455.92M448.75,128.41H455.92" style="vector-effect: none; stroke-width: 2px; stroke: rgb(0, 0, 0); stroke-opacity: 1; fill: rgb(255, 255, 255); fill-opacity: 1;"/><path class="box" d="M503.71,195.29H518.05M503.71,224.63H518.05V151.7H503.71ZM510.88,224.63V329.52M510.88,151.7V86.28M507.3,329.52H514.47M507.3,86.28H514.47" style="vector-effect: none; stroke-width: 2px; stroke: rgb(0, 0, 0); stroke-opacity: 1; fill: rgb(255, 255, 255); fill-opacity: 1;"/><path class="box" d="M562.26,187.28H576.6M562.26,204.88H576.6V161.84H562.26ZM569.43,204.88V236.29M569.43,161.84V126.93M565.84,236.29H573.01M565.84,126.93H573.01" style="vector-effect: none; stroke-width: 2px; stroke: rgb(0, 0, 0); stroke-opacity: 1; fill: rgb(255, 255, 255); fill-opacity: 1;"/><path class="box" d="M620.8,198.91H635.14M620.8,211.85H635.14V149.33H620.8ZM627.97,211.85V232.97M627.97,149.33V98M624.39,232.97H631.56M624.39,98H631.56" style="vector-effect: none; stroke-width: 2px; stroke: rgb(0, 0, 0); stroke-opacity: 1; fill: rgb(255, 255, 255); fill-opacity: 1;"/><g class="points"/><g class="points"/><g class="points"><path class="point" transform="translate(218.15,277.49)" d="M3,0A3,3 0 1,1 0,-3A3,3 0 0,1 3,0Z" style="opacity: 1; stroke-width: 0px; fill: rgb(0, 0, 0); fill-opacity: 1;"/><path class="point" transform="translate(218.15,105.37)" d="M3,0A3,3 0 1,1 0,-3A3,3 0 0,1 3,0Z" style="opacity: 1; stroke-width: 0px; fill: rgb(0, 0, 0); fill-opacity: 1;"/></g><g class="points"/><g class="points"/><g class="points"><path class="point" transform="translate(393.79,314.86)" d="M3,0A3,3 0 1,1 0,-3A3,3 0 0,1 3,0Z" style="opacity: 1; stroke-width: 0px; fill: rgb(0, 0, 0); fill-opacity: 1;"/><path class="point" transform="translate(393.79,304.79)" d="M3,0A3,3 0 1,1 0,-3A3,3 0 0,1 3,0Z" style="opacity: 1; stroke-width: 0px; fill: rgb(0, 0, 0); fill-opacity: 1;"/></g><g class="points"><path class="point" transform="translate(452.34,305.21)" d="M3,0A3,3 0 1,1 0,-3A3,3 0 0,1 3,0Z" style="opacity: 1; stroke-width: 0px; fill: rgb(0, 0, 0); fill-opacity: 1;"/><path class="point" transform="translate(452.34,112.2)" d="M3,0A3,3 0 1,1 0,-3A3,3 0 0,1 3,0Z" style="opacity: 1; stroke-width: 0px; fill: rgb(0, 0, 0); fill-opacity: 1;"/><path class="point" transform="translate(452.34,110.5)" d="M3,0A3,3 0 1,1 0,-3A3,3 0 0,1 3,0Z" style="opacity: 1; stroke-width: 0px; fill: rgb(0, 0, 0); fill-opacity: 1;"/></g><g class="points"/><g class="points"><path class="point" transform="translate(569.43,270.34)" d="M3,0A3,3 0 1,1 0,-3A3,3 0 0,1 3,0Z" style="opacity: 1; stroke-width: 0px; fill: rgb(0, 0, 0); fill-opacity: 1;"/></g><g class="points"/><path class="mean" d="M93.89,188.68H108.24" style="fill: none; vector-effect: non-scaling-stroke; stroke-width: 2; stroke-dasharray: 4px, 2px; stroke: rgb(0, 0, 0); stroke-opacity: 1;"/><path class="mean" d="M152.44,191.5H166.78" style="fill: none; vector-effect: non-scaling-stroke; stroke-width: 2; stroke-dasharray: 4px, 2px; stroke: rgb(0, 0, 0); stroke-opacity: 1;"/><path class="mean" d="M210.98,193.59H225.33" style="fill: none; vector-effect: non-scaling-stroke; stroke-width: 2; stroke-dasharray: 4px, 2px; stroke: rgb(0, 0, 0); stroke-opacity: 1;"/><path class="mean" d="M269.53,185.27H283.87" style="fill: none; vector-effect: non-scaling-stroke; stroke-width: 2; stroke-dasharray: 4px, 2px; stroke: rgb(0, 0, 0); stroke-opacity: 1;"/><path class="mean" d="M328.07,188.04H342.42" style="fill: none; vector-effect: non-scaling-stroke; stroke-width: 2; stroke-dasharray: 4px, 2px; stroke: rgb(0, 0, 0); stroke-opacity: 1;"/><path class="mean" d="M386.62,199.09H400.96" style="fill: none; vector-effect: non-scaling-stroke; stroke-width: 2; stroke-dasharray: 4px, 2px; stroke: rgb(0, 0, 0); stroke-opacity: 1;"/><path class="mean" d="M445.16,188.97H459.51" style="fill: none; vector-effect: non-scaling-stroke; stroke-width: 2; stroke-dasharray: 4px, 2px; stroke: rgb(0, 0, 0); stroke-opacity: 1;"/><path class="mean" d="M503.71,190.43H518.05" style="fill: none; vector-effect: non-scaling-stroke; stroke-width: 2; stroke-dasharray: 4px, 2px; stroke: rgb(0, 0, 0); stroke-opacity: 1;"/><path class="mean" d="M562.26,185.12H576.6" style="fill: none; vector-effect: non-scaling-stroke; stroke-width: 2; stroke-dasharray: 4px, 2px; stroke: rgb(0, 0, 0); stroke-opacity: 1;"/><path class="mean" d="M620.8,184.59H635.14" style="fill: none; vector-effect: non-scaling-stroke; stroke-width: 2; stroke-dasharray: 4px, 2px; stroke: rgb(0, 0, 0); stroke-opacity: 1;"/></g></g></g><g class="overplot"/><path class="xlines-above crisp" d="M0,0" style="fill: none;"/><path class="ylines-above crisp" d="M0,0" style="fill: none;"/><g class="overlines-above"/><g class="xaxislayer-above"><path class="xdivider crisp" transform="translate(697,0)" d="M0,386v115.140625" style="stroke: rgb(68, 68, 68); stroke-opacity: 1; stroke-width: 1px;"/><path class="xdivider crisp" transform="translate(521.36,0)" d="M0,386v115.140625" style="stroke: rgb(68, 68, 68); stroke-opacity: 1; stroke-width: 1px;"/><path class="xdivider crisp" transform="translate(170.09,0)" d="M0,386v115.140625" style="stroke: rgb(68, 68, 68); stroke-opacity: 1; stroke-width: 1px;"/><path class="xdivider crisp" transform="translate(53,0)" d="M0,386v115.140625" style="stroke: rgb(68, 68, 68); stroke-opacity: 1; stroke-width: 1px;"/><g class="xtick"><text text-anchor="start" x="0" y="398" transform="translate(82.27000000000001,0) rotate(90,0,392)" style="font-family: 'Open Sans', verdana, arial, sans-serif; font-size: 12px; fill: rgb(42, 63, 95); fill-opacity: 1; white-space: pre; opacity: 1;">NativeGuideCF</text></g><g class="xtick"><text text-anchor="start" x="0" y="398" transform="translate(140.82,0) rotate(90,0,392)" style="font-family: 'Open Sans', verdana, arial, sans-serif; font-size: 12px; fill: rgb(42, 63, 95); fill-opacity: 1; white-space: pre; opacity: 1;">TSEvo</text></g><g class="xtick"><text text-anchor="start" x="0" y="398" transform="translate(199.36,0) rotate(90,0,392)" style="font-family: 'Open Sans', verdana, arial, sans-serif; font-size: 12px; fill: rgb(42, 63, 95); fill-opacity: 1; white-space: pre; opacity: 1;">GRAD</text></g><g class="xtick"><text text-anchor="start" x="0" y="398" transform="translate(257.90999999999997,0) rotate(90,0,392)" style="font-family: 'Open Sans', verdana, arial, sans-serif; font-size: 12px; fill: rgb(42, 63, 95); fill-opacity: 1; white-space: pre; opacity: 1;">GRAD - TSR</text></g><g class="xtick"><text text-anchor="start" x="0" y="398" transform="translate(316.45,0) rotate(90,0,392)" style="font-family: 'Open Sans', verdana, arial, sans-serif; font-size: 12px; fill: rgb(42, 63, 95); fill-opacity: 1; white-space: pre; opacity: 1;">GS</text></g><g class="xtick"><text text-anchor="start" x="0" y="398" transform="translate(375,0) rotate(90,0,392)" style="font-family: 'Open Sans', verdana, arial, sans-serif; font-size: 12px; fill: rgb(42, 63, 95); fill-opacity: 1; white-space: pre; opacity: 1;">GS - TSR</text></g><g class="xtick"><text text-anchor="start" x="0" y="398" transform="translate(433.55,0) rotate(90,0,392)" style="font-family: 'Open Sans', verdana, arial, sans-serif; font-size: 12px; fill: rgb(42, 63, 95); fill-opacity: 1; white-space: pre; opacity: 1;">SG</text></g><g class="xtick"><text text-anchor="start" x="0" y="398" transform="translate(492.09,0) rotate(90,0,392)" style="font-family: 'Open Sans', verdana, arial, sans-serif; font-size: 12px; fill: rgb(42, 63, 95); fill-opacity: 1; white-space: pre; opacity: 1;">SG - TSR</text></g><g class="xtick"><text text-anchor="start" x="0" y="398" transform="translate(550.64,0) rotate(90,0,392)" style="font-family: 'Open Sans', verdana, arial, sans-serif; font-size: 12px; fill: rgb(42, 63, 95); fill-opacity: 1; white-space: pre; opacity: 1;">FO</text></g><g class="xtick"><text text-anchor="start" x="0" y="398" transform="translate(609.18,0) rotate(90,0,392)" style="font-family: 'Open Sans', verdana, arial, sans-serif; font-size: 12px; fill: rgb(42, 63, 95); fill-opacity: 1; white-space: pre; opacity: 1;">FO - TSR</text></g><g class="xtick"><text text-anchor="start" x="0" y="398" transform="translate(667.73,0) rotate(90,0,392)" style="font-family: 'Open Sans', verdana, arial, sans-serif; font-size: 12px; fill: rgb(42, 63, 95); fill-opacity: 1; white-space: pre; opacity: 1;">LEFTIST</text></g><g class="xtick2"><text text-anchor="middle" x="0" y="497.63125" transform="translate(111.55,0)" style="font-family: 'Open Sans', verdana, arial, sans-serif; font-size: 12px; fill: rgb(42, 63, 95); fill-opacity: 1; white-space: pre; opacity: 1;">Example</text></g><g class="xtick2"><text text-anchor="middle" x="0" y="497.63125" transform="translate(345.73,0)" style="font-family: 'Open Sans', verdana, arial, sans-serif; font-size: 12px; fill: rgb(42, 63, 95); fill-opacity: 1; white-space: pre; opacity: 1;">Gradient</text></g><g class="xtick2"><text text-anchor="middle" x="0" y="497.63125" transform="translate(609.18,0)" style="font-family: 'Open Sans', verdana, arial, sans-serif; font-size: 12px; fill: rgb(42, 63, 95); fill-opacity: 1; white-space: pre; opacity: 1;">Perturbation</text></g></g><g class="yaxislayer-above"><g class="ytick"><text text-anchor="end" x="49" y="4.199999999999999" transform="translate(0,385)" style="font-family: 'Open Sans', verdana, arial, sans-serif; font-size: 12px; fill: rgb(42, 63, 95); fill-opacity: 1; white-space: pre; opacity: 1;">−1</text></g><g class="ytick"><text text-anchor="end" x="49" y="4.199999999999999" style="font-family: 'Open Sans', verdana, arial, sans-serif; font-size: 12px; fill: rgb(42, 63, 95); fill-opacity: 1; white-space: pre; opacity: 1;" transform="translate(0,290.5)">−0.5</text></g><g class="ytick"><text text-anchor="end" x="49" y="4.199999999999999" style="font-family: 'Open Sans', verdana, arial, sans-serif; font-size: 12px; fill: rgb(42, 63, 95); fill-opacity: 1; white-space: pre; opacity: 1;" transform="translate(0,196)">0</text></g><g class="ytick"><text text-anchor="end" x="49" y="4.199999999999999" style="font-family: 'Open Sans', verdana, arial, sans-serif; font-size: 12px; fill: rgb(42, 63, 95); fill-opacity: 1; white-space: pre; opacity: 1;" transform="translate(0,101.5)">0.5</text></g><g class="ytick"><text text-anchor="end" x="49" y="4.199999999999999" style="font-family: 'Open Sans', verdana, arial, sans-serif; font-size: 12px; fill: rgb(42, 63, 95); fill-opacity: 1; white-space: pre; opacity: 1;" transform="translate(0,7)">1</text></g></g><g class="overaxes-above"/></g></g><g class="polarlayer"/><g class="smithlayer"/><g class="ternarylayer"/><g class="geolayer"/><g class="funnelarealayer"/><g class="pielayer"/><g class="iciclelayer"/><g class="treemaplayer"/><g class="sunburstlayer"/><g class="glimages"/><defs id="topdefs-008933"><g class="clips"/><clipPath id="legend008933"><rect width="78" height="48" x="0" y="0"/></clipPath></defs><g class="layer-above"><g class="imagelayer"/><g class="shapelayer"/></g><g class="infolayer"><g class="legend" pointer-events="all" transform="translate(56.5,10.780000000000003)"><rect class="bg" shape-rendering="crispEdges" width="78" height="48" x="0" y="0" style="stroke: rgb(68, 68, 68); stroke-opacity: 1; fill: rgb(255, 255, 255); fill-opacity: 1; stroke-width: 0px;"/><g class="scrollbox" transform="" clip-path="url(#legend008933)"><g class="groups"><g class="traces" transform="translate(0,14.5)" style="opacity: 1;"><text class="legendtext" text-anchor="start" x="40" y="4.680000000000001" style="font-family: 'Open Sans', verdana, arial, sans-serif; font-size: 12px; fill: rgb(42, 63, 95); fill-opacity: 1; white-space: pre;">CNN</text><g class="layers" style="opacity: 1;"><g class="legendfill"/><g class="legendlines"/><g class="legendsymbols"><g class="legendpoints"><path class="legendbox" d="M6,6H-6V-6H6Z" transform="translate(20,0)" style="stroke-width: 2px; fill: rgb(211, 211, 211); fill-opacity: 1; stroke: rgb(0, 0, 0); stroke-opacity: 1;"/></g></g></g><rect class="legendtoggle" x="0" y="-9.5" width="72.015625" height="19" style="fill: rgb(0, 0, 0); fill-opacity: 0;"/></g><g class="traces" transform="translate(0,33.5)" style="opacity: 1;"><text class="legendtext" text-anchor="start" x="40" y="4.680000000000001" style="font-family: 'Open Sans', verdana, arial, sans-serif; font-size: 12px; fill: rgb(42, 63, 95); fill-opacity: 1; white-space: pre;">LSTM</text><g class="layers" style="opacity: 1;"><g class="legendfill"/><g class="legendlines"/><g class="legendsymbols"><g class="legendpoints"><path class="legendbox" d="M6,6H-6V-6H6Z" transform="translate(20,0)" style="stroke-width: 2px; fill: rgb(255, 255, 255); fill-opacity: 1; stroke: rgb(0, 0, 0); stroke-opacity: 1;"/></g></g></g><rect class="legendtoggle" x="0" y="-9.5" width="72.015625" height="19" style="fill: rgb(0, 0, 0); fill-opacity: 0;"/></g></g></g><rect class="scrollbar" rx="20" ry="3" width="0" height="0" x="0" y="0" style="fill: rgb(128, 139, 164); fill-opacity: 1;"/></g><g class="g-gtitle"/><g class="g-xtitle"/><g class="g-ytitle" transform="translate(12.0029296875,0)"><text class="ytitle" transform="rotate(-90,0.9968750000000028,196)" x="0.9968750000000028" y="196" text-anchor="middle" style="font-family: 'Open Sans', verdana, arial, sans-serif; font-size: 14px; fill: rgb(42, 63, 95); opacity: 1; font-weight: normal; white-space: pre;">values</text></g></g></svg>