<svg class="main-svg" xmlns="http://www.w3.org/2000/svg" xmlns:xlink="http://www.w3.org/1999/xlink" width="700" height="500" style="" viewBox="0 0 700 500"><rect x="0" y="0" width="700" height="500" style="fill: rgb(255, 255, 255); fill-opacity: 1;"/><defs id="defs-1b1db3"><g class="clips"><clipPath id="clip1b1db3xyplot" class="plotclip"><rect width="658" height="385"/></clipPath><clipPath class="axesclip" id="clip1b1db3x"><rect x="42" y="0" width="658" height="500"/></clipPath><clipPath class="axesclip" id="clip1b1db3y"><rect x="0" y="0" width="700" height="385"/></clipPath><clipPath class="axesclip" id="clip1b1db3xy"><rect x="42" y="0" width="658" height="385"/></clipPath></g><g class="gradients"/><g class="patterns"/></defs><g class="bglayer"/><g class="layer-below"><g class="imagelayer"/><g class="shapelayer"/></g><g class="cartesianlayer"><g class="subplot xy"><g class="layer-subplot"><g class="shapelayer"/><g class="imagelayer"/></g><g class="minor-gridlayer"><g class="x"/><g class="y"/></g><g class="gridlayer"><g class="x"/><g class="y"><path class="ygrid crisp" transform="translate(0,326.66)" d="M42,0h658" style="stroke: rgb(235, 240, 248); stroke-opacity: 1; stroke-width: 1px;"/><path class="ygrid crisp" transform="translate(0,287.57)" d="M42,0h658" style="stroke: rgb(235, 240, 248); stroke-opacity: 1; stroke-width: 1px;"/><path class="ygrid crisp" transform="translate(0,248.48)" d="M42,0h658" style="stroke: rgb(235, 240, 248); stroke-opacity: 1; stroke-width: 1px;"/><path class="ygrid crisp" transform="translate(0,209.38)" d="M42,0h658" style="stroke: rgb(235, 240, 248); stroke-opacity: 1; stroke-width: 1px;"/><path class="ygrid crisp" transform="translate(0,170.29)" d="M42,0h658" style="stroke: rgb(235, 240, 248); stroke-opacity: 1; stroke-width: 1px;"/><path class="ygrid crisp" transform="translate(0,131.2)" d="M42,0h658" style="stroke: rgb(235, 240, 248); stroke-opacity: 1; stroke-width: 1px;"/><path class="ygrid crisp" transform="translate(0,92.11)" d="M42,0h658" style="stroke: rgb(235, 240, 248); stroke-opacity: 1; stroke-width: 1px;"/><path class="ygrid crisp" transform="translate(0,53.02)" d="M42,0h658" style="stroke: rgb(235, 240, 248); stroke-opacity: 1; stroke-width: 1px;"/><path class="ygrid crisp" transform="translate(0,13.93)" d="M42,0h658" style="stroke: rgb(235, 240, 248); stroke-opacity: 1; stroke-width: 1px;"/></g></g><g class="zerolinelayer"><path class="yzl zl crisp" transform="translate(0,365.75)" d="M42,0h658" style="stroke: rgb(235, 240, 248); stroke-opacity: 1; stroke-width: 2px;"/></g><path class="xlines-below"/><path class="ylines-below"/><g class="overlines-below"/><g class="xaxislayer-below"/><g class="yaxislayer-below"/><g class="overaxes-below"/><g class="plot" transform="translate(42,0)" clip-path="url(#clip1b1db3xyplot)"><g class="boxlayer mlayer"><g class="trace boxes" style="opacity: 1;"><path class="box" d="M15,264.25H29.52M15,280.04H29.52V236.45H15ZM22.26,280.04V297.8M22.26,236.45V178.46M18.63,297.8H25.89M18.63,178.46H25.89" style="vector-effect: none; stroke-width: 2px; stroke: rgb(0, 0, 0); stroke-opacity: 1; fill: rgb(211, 211, 211); fill-opacity: 1;"/><path class="box" d="M74.28,257.8H88.8M74.28,278.31H88.8V242.92H74.28ZM81.54,278.31V321.23M81.54,242.92V204.84M77.91,321.23H85.17M77.91,204.84H85.17" style="vector-effect: none; stroke-width: 2px; stroke: rgb(0, 0, 0); stroke-opacity: 1; fill: rgb(211, 211, 211); fill-opacity: 1;"/><path class="box" d="M133.55,289.73H148.07M133.55,308.2H148.07V268.28H133.55ZM140.81,308.2V340.76M140.81,268.28V210.97M137.18,340.76H144.44M137.18,210.97H144.44" style="vector-effect: none; stroke-width: 2px; stroke: rgb(0, 0, 0); stroke-opacity: 1; fill: rgb(211, 211, 211); fill-opacity: 1;"/><path class="box" d="M192.82,213.39H207.34M192.82,230.77H207.34V191.25H192.82ZM200.08,230.77V270.64M200.08,191.25V144.2M196.45,270.64H203.71M196.45,144.2H203.71" style="vector-effect: none; stroke-width: 2px; stroke: rgb(0, 0, 0); stroke-opacity: 1; fill: rgb(211, 211, 211); fill-opacity: 1;"/><path class="box" d="M252.09,263.32H266.62M252.09,276.32H266.62V245.41H252.09ZM259.35,276.32V293.74M259.35,245.41V220.37M255.72,293.74H262.99M255.72,220.37H262.99" style="vector-effect: none; stroke-width: 2px; stroke: rgb(0, 0, 0); stroke-opacity: 1; fill: rgb(211, 211, 211); fill-opacity: 1;"/><path class="box" d="M311.37,164.43H325.89M311.37,190.74H325.89V149.14H311.37ZM318.63,190.74V229.68M318.63,149.14V89.6M315,229.68H322.26M315,89.6H322.26" style="vector-effect: none; stroke-width: 2px; stroke: rgb(0, 0, 0); stroke-opacity: 1; fill: rgb(211, 211, 211); fill-opacity: 1;"/><path class="box" d="M370.64,257.32H385.16M370.64,274.82H385.16V242.35H370.64ZM377.9,274.82V310.26M377.9,242.35V201.55M374.27,310.26H381.53M374.27,201.55H381.53" style="vector-effect: none; stroke-width: 2px; stroke: rgb(0, 0, 0); stroke-opacity: 1; fill: rgb(211, 211, 211); fill-opacity: 1;"/><path class="box" d="M429.91,171.33H444.43M429.91,196.44H444.43V147.72H429.91ZM437.17,196.44V223.31M437.17,147.72V82.27M433.54,223.31H440.8M433.54,82.27H440.8" style="vector-effect: none; stroke-width: 2px; stroke: rgb(0, 0, 0); stroke-opacity: 1; fill: rgb(211, 211, 211); fill-opacity: 1;"/><path class="box" d="M489.18,264.5H503.71M489.18,277.86H503.71V247.27H489.18ZM496.45,277.86V305.4M496.45,247.27V204.64M492.82,305.4H500.08M492.82,204.64H500.08" style="vector-effect: none; stroke-width: 2px; stroke: rgb(0, 0, 0); stroke-opacity: 1; fill: rgb(211, 211, 211); fill-opacity: 1;"/><path class="box" d="M548.46,214.95H562.98M548.46,226.53H562.98V191.46H548.46ZM555.72,226.53V264.04M555.72,191.46V148.08M552.09,264.04H559.35M552.09,148.08H559.35" style="vector-effect: none; stroke-width: 2px; stroke: rgb(0, 0, 0); stroke-opacity: 1; fill: rgb(211, 211, 211); fill-opacity: 1;"/><path class="box" d="M607.73,331.96H622.25M607.73,341.04H622.25V311.1H607.73ZM614.99,341.04V355.14M614.99,311.1V267.46M611.36,355.14H618.62M611.36,267.46H618.62" style="vector-effect: none; stroke-width: 2px; stroke: rgb(0, 0, 0); stroke-opacity: 1; fill: rgb(211, 211, 211); fill-opacity: 1;"/><g class="points"><path class="point" transform="translate(22.26,134.78)" d="M3,0A3,3 0 1,1 0,-3A3,3 0 0,1 3,0Z" style="opacity: 1; stroke-width: 0px; fill: rgb(0, 0, 0); fill-opacity: 1;"/></g><g class="points"/><g class="points"><path class="point" transform="translate(140.81,201.91)" d="M3,0A3,3 0 1,1 0,-3A3,3 0 0,1 3,0Z" style="opacity: 1; stroke-width: 0px; fill: rgb(0, 0, 0); fill-opacity: 1;"/><path class="point" transform="translate(140.81,201.14)" d="M3,0A3,3 0 1,1 0,-3A3,3 0 0,1 3,0Z" style="opacity: 1; stroke-width: 0px; fill: rgb(0, 0, 0); fill-opacity: 1;"/></g><g class="points"><path class="point" transform="translate(200.08,110.84)" d="M3,0A3,3 0 1,1 0,-3A3,3 0 0,1 3,0Z" style="opacity: 1; stroke-width: 0px; fill: rgb(0, 0, 0); fill-opacity: 1;"/></g><g class="points"/><g class="points"><path class="point" transform="translate(318.63,85.78)" d="M3,0A3,3 0 1,1 0,-3A3,3 0 0,1 3,0Z" style="opacity: 1; stroke-width: 0px; fill: rgb(0, 0, 0); fill-opacity: 1;"/><path class="point" transform="translate(318.63,83.9)" d="M3,0A3,3 0 1,1 0,-3A3,3 0 0,1 3,0Z" style="opacity: 1; stroke-width: 0px; fill: rgb(0, 0, 0); fill-opacity: 1;"/></g><g class="points"><path class="point" transform="translate(377.9,192.07)" d="M3,0A3,3 0 1,1 0,-3A3,3 0 0,1 3,0Z" style="opacity: 1; stroke-width: 0px; fill: rgb(0, 0, 0); fill-opacity: 1;"/></g><g class="points"><path class="point" transform="translate(437.17,74.15)" d="M3,0A3,3 0 1,1 0,-3A3,3 0 0,1 3,0Z" style="opacity: 1; stroke-width: 0px; fill: rgb(0, 0, 0); fill-opacity: 1;"/><path class="point" transform="translate(437.17,66.05)" d="M3,0A3,3 0 1,1 0,-3A3,3 0 0,1 3,0Z" style="opacity: 1; stroke-width: 0px; fill: rgb(0, 0, 0); fill-opacity: 1;"/></g><g class="points"><path class="point" transform="translate(496.45,167.73)" d="M3,0A3,3 0 1,1 0,-3A3,3 0 0,1 3,0Z" style="opacity: 1; stroke-width: 0px; fill: rgb(0, 0, 0); fill-opacity: 1;"/></g><g class="points"/><g class="points"/><path class="mean" d="M15,256.84H29.52" style="fill: none; vector-effect: non-scaling-stroke; stroke-width: 2; stroke-dasharray: 4px, 2px; stroke: rgb(0, 0, 0); stroke-opacity: 1;"/><path class="mean" d="M74.28,260.5H88.8" style="fill: none; vector-effect: non-scaling-stroke; stroke-width: 2; stroke-dasharray: 4px, 2px; stroke: rgb(0, 0, 0); stroke-opacity: 1;"/><path class="mean" d="M133.55,285.7H148.07" style="fill: none; vector-effect: non-scaling-stroke; stroke-width: 2; stroke-dasharray: 4px, 2px; stroke: rgb(0, 0, 0); stroke-opacity: 1;"/><path class="mean" d="M192.82,209.99H207.34" style="fill: none; vector-effect: non-scaling-stroke; stroke-width: 2; stroke-dasharray: 4px, 2px; stroke: rgb(0, 0, 0); stroke-opacity: 1;"/><path class="mean" d="M252.09,261.17H266.62" style="fill: none; vector-effect: non-scaling-stroke; stroke-width: 2; stroke-dasharray: 4px, 2px; stroke: rgb(0, 0, 0); stroke-opacity: 1;"/><path class="mean" d="M311.37,167.51H325.89" style="fill: none; vector-effect: non-scaling-stroke; stroke-width: 2; stroke-dasharray: 4px, 2px; stroke: rgb(0, 0, 0); stroke-opacity: 1;"/><path class="mean" d="M370.64,259.47H385.16" style="fill: none; vector-effect: non-scaling-stroke; stroke-width: 2; stroke-dasharray: 4px, 2px; stroke: rgb(0, 0, 0); stroke-opacity: 1;"/><path class="mean" d="M429.91,168.87H444.43" style="fill: none; vector-effect: non-scaling-stroke; stroke-width: 2; stroke-dasharray: 4px, 2px; stroke: rgb(0, 0, 0); stroke-opacity: 1;"/><path class="mean" d="M489.18,261.33H503.71" style="fill: none; vector-effect: non-scaling-stroke; stroke-width: 2; stroke-dasharray: 4px, 2px; stroke: rgb(0, 0, 0); stroke-opacity: 1;"/><path class="mean" d="M548.46,209.33H562.98" style="fill: none; vector-effect: non-scaling-stroke; stroke-width: 2; stroke-dasharray: 4px, 2px; stroke: rgb(0, 0, 0); stroke-opacity: 1;"/><path class="mean" d="M607.73,324.97H622.25" style="fill: none; vector-effect: non-scaling-stroke; stroke-width: 2; stroke-dasharray: 4px, 2px; stroke: rgb(0, 0, 0); stroke-opacity: 1;"/></g><g class="trace boxes" style="opacity: 1;"><path class="box" d="M95.02,249.6H109.54M95.02,264.03H109.54V230.2H95.02ZM102.28,264.03V282.51M102.28,230.2V194.52M98.65,282.51H105.91M98.65,194.52H105.91" style="vector-effect: none; stroke-width: 2px; stroke: rgb(0, 0, 0); stroke-opacity: 1; fill: rgb(255, 255, 255); fill-opacity: 1;"/><path class="box" d="M154.29,344.81H168.82M154.29,348.88H168.82V334.36H154.29ZM161.55,348.88V359.68M161.55,334.36V314.27M157.92,359.68H165.19M157.92,314.27H165.19" style="vector-effect: none; stroke-width: 2px; stroke: rgb(0, 0, 0); stroke-opacity: 1; fill: rgb(255, 255, 255); fill-opacity: 1;"/><path class="box" d="M213.57,244.74H228.09M213.57,256.68H228.09V224.6H213.57ZM220.83,256.68V302.82M220.83,224.6V192.3M217.2,302.82H224.46M217.2,192.3H224.46" style="vector-effect: none; stroke-width: 2px; stroke: rgb(0, 0, 0); stroke-opacity: 1; fill: rgb(255, 255, 255); fill-opacity: 1;"/><path class="box" d="M272.84,271.97H287.36M272.84,297.34H287.36V249.58H272.84ZM280.1,297.34V318.98M280.1,249.58V191.98M276.47,318.98H283.73M276.47,191.98H283.73" style="vector-effect: none; stroke-width: 2px; stroke: rgb(0, 0, 0); stroke-opacity: 1; fill: rgb(255, 255, 255); fill-opacity: 1;"/><path class="box" d="M332.11,177.47H346.63M332.11,203.75H346.63V124.43H332.11ZM339.37,203.75V246.41M339.37,124.43V20M335.74,246.41H343M335.74,20H343" style="vector-effect: none; stroke-width: 2px; stroke: rgb(0, 0, 0); stroke-opacity: 1; fill: rgb(255, 255, 255); fill-opacity: 1;"/><path class="box" d="M391.38,257.69H405.91M391.38,274.5H405.91V235.71H391.38ZM398.65,274.5V299.9M398.65,235.71V198.46M395.02,299.9H402.28M395.02,198.46H402.28" style="vector-effect: none; stroke-width: 2px; stroke: rgb(0, 0, 0); stroke-opacity: 1; fill: rgb(255, 255, 255); fill-opacity: 1;"/><path class="box" d="M450.66,192.13H465.18M450.66,212.95H465.18V168.07H450.66ZM457.92,212.95V260.29M457.92,168.07V115.19M454.29,260.29H461.55M454.29,115.19H461.55" style="vector-effect: none; stroke-width: 2px; stroke: rgb(0, 0, 0); stroke-opacity: 1; fill: rgb(255, 255, 255); fill-opacity: 1;"/><path class="box" d="M509.93,298.43H524.45M509.93,329.64H524.45V277.09H509.93ZM517.19,329.64V365.75M517.19,277.09V226.05M513.56,365.75H520.82M513.56,226.05H520.82" style="vector-effect: none; stroke-width: 2px; stroke: rgb(0, 0, 0); stroke-opacity: 1; fill: rgb(255, 255, 255); fill-opacity: 1;"/><path class="box" d="M569.2,242.45H583.72M569.2,255.91H583.72V203.97H569.2ZM576.46,255.91V297.52M576.46,203.97V160.45M572.83,297.52H580.09M572.83,160.45H580.09" style="vector-effect: none; stroke-width: 2px; stroke: rgb(0, 0, 0); stroke-opacity: 1; fill: rgb(255, 255, 255); fill-opacity: 1;"/><path class="box" d="M628.48,353.49H643M628.48,356.33H643V350.56H628.48ZM635.74,356.33V362.81M635.74,350.56V344.53M632.11,362.81H639.37M632.11,344.53H639.37" style="vector-effect: none; stroke-width: 2px; stroke: rgb(0, 0, 0); stroke-opacity: 1; fill: rgb(255, 255, 255); fill-opacity: 1;"/><g class="points"><path class="point" transform="translate(102.28,138.13)" d="M3,0A3,3 0 1,1 0,-3A3,3 0 0,1 3,0Z" style="opacity: 1; stroke-width: 0px; fill: rgb(0, 0, 0); fill-opacity: 1;"/></g><g class="points"><path class="point" transform="translate(161.55,309.71)" d="M3,0A3,3 0 1,1 0,-3A3,3 0 0,1 3,0Z" style="opacity: 1; stroke-width: 0px; fill: rgb(0, 0, 0); fill-opacity: 1;"/><path class="point" transform="translate(161.55,304.03)" d="M3,0A3,3 0 1,1 0,-3A3,3 0 0,1 3,0Z" style="opacity: 1; stroke-width: 0px; fill: rgb(0, 0, 0); fill-opacity: 1;"/><path class="point" transform="translate(161.55,298.53)" d="M3,0A3,3 0 1,1 0,-3A3,3 0 0,1 3,0Z" style="opacity: 1; stroke-width: 0px; fill: rgb(0, 0, 0); fill-opacity: 1;"/><path class="point" transform="translate(161.55,292.72)" d="M3,0A3,3 0 1,1 0,-3A3,3 0 0,1 3,0Z" style="opacity: 1; stroke-width: 0px; fill: rgb(0, 0, 0); fill-opacity: 1;"/><path class="point" transform="translate(161.55,277.07)" d="M3,0A3,3 0 1,1 0,-3A3,3 0 0,1 3,0Z" style="opacity: 1; stroke-width: 0px; fill: rgb(0, 0, 0); fill-opacity: 1;"/><path class="point" transform="translate(161.55,265.46)" d="M3,0A3,3 0 1,1 0,-3A3,3 0 0,1 3,0Z" style="opacity: 1; stroke-width: 0px; fill: rgb(0, 0, 0); fill-opacity: 1;"/><path class="point" transform="translate(161.55,264.19)" d="M3,0A3,3 0 1,1 0,-3A3,3 0 0,1 3,0Z" style="opacity: 1; stroke-width: 0px; fill: rgb(0, 0, 0); fill-opacity: 1;"/></g><g class="points"/><g class="points"/><g class="points"/><g class="points"><path class="point" transform="translate(398.65,155.74)" d="M3,0A3,3 0 1,1 0,-3A3,3 0 0,1 3,0Z" style="opacity: 1; stroke-width: 0px; fill: rgb(0, 0, 0); fill-opacity: 1;"/><path class="point" transform="translate(398.65,108.53)" d="M3,0A3,3 0 1,1 0,-3A3,3 0 0,1 3,0Z" style="opacity: 1; stroke-width: 0px; fill: rgb(0, 0, 0); fill-opacity: 1;"/></g><g class="points"><path class="point" transform="translate(457.92,23.37)" d="M3,0A3,3 0 1,1 0,-3A3,3 0 0,1 3,0Z" style="opacity: 1; stroke-width: 0px; fill: rgb(0, 0, 0); fill-opacity: 1;"/><path class="point" transform="translate(457.92,19.25)" d="M3,0A3,3 0 1,1 0,-3A3,3 0 0,1 3,0Z" style="opacity: 1; stroke-width: 0px; fill: rgb(0, 0, 0); fill-opacity: 1;"/></g><g class="points"/><g class="points"/><g class="points"><path class="point" transform="translate(635.74,340.89)" d="M3,0A3,3 0 1,1 0,-3A3,3 0 0,1 3,0Z" style="opacity: 1; stroke-width: 0px; fill: rgb(0, 0, 0); fill-opacity: 1;"/><path class="point" transform="translate(635.74,338.01)" d="M3,0A3,3 0 1,1 0,-3A3,3 0 0,1 3,0Z" style="opacity: 1; stroke-width: 0px; fill: rgb(0, 0, 0); fill-opacity: 1;"/><path class="point" transform="translate(635.74,337.73)" d="M3,0A3,3 0 1,1 0,-3A3,3 0 0,1 3,0Z" style="opacity: 1; stroke-width: 0px; fill: rgb(0, 0, 0); fill-opacity: 1;"/><path class="point" transform="translate(635.74,337.26)" d="M3,0A3,3 0 1,1 0,-3A3,3 0 0,1 3,0Z" style="opacity: 1; stroke-width: 0px; fill: rgb(0, 0, 0); fill-opacity: 1;"/><path class="point" transform="translate(635.74,334.98)" d="M3,0A3,3 0 1,1 0,-3A3,3 0 0,1 3,0Z" style="opacity: 1; stroke-width: 0px; fill: rgb(0, 0, 0); fill-opacity: 1;"/><path class="point" transform="translate(635.74,333.11)" d="M3,0A3,3 0 1,1 0,-3A3,3 0 0,1 3,0Z" style="opacity: 1; stroke-width: 0px; fill: rgb(0, 0, 0); fill-opacity: 1;"/><path class="point" transform="translate(635.74,330.53)" d="M3,0A3,3 0 1,1 0,-3A3,3 0 0,1 3,0Z" style="opacity: 1; stroke-width: 0px; fill: rgb(0, 0, 0); fill-opacity: 1;"/><path class="point" transform="translate(635.74,328.11)" d="M3,0A3,3 0 1,1 0,-3A3,3 0 0,1 3,0Z" style="opacity: 1; stroke-width: 0px; fill: rgb(0, 0, 0); fill-opacity: 1;"/><path class="point" transform="translate(635.74,326.43)" d="M3,0A3,3 0 1,1 0,-3A3,3 0 0,1 3,0Z" style="opacity: 1; stroke-width: 0px; fill: rgb(0, 0, 0); fill-opacity: 1;"/><path class="point" transform="translate(635.74,318.06)" d="M3,0A3,3 0 1,1 0,-3A3,3 0 0,1 3,0Z" style="opacity: 1; stroke-width: 0px; fill: rgb(0, 0, 0); fill-opacity: 1;"/></g><path class="mean" d="M95.02,245.66H109.54" style="fill: none; vector-effect: non-scaling-stroke; stroke-width: 2; stroke-dasharray: 4px, 2px; stroke: rgb(0, 0, 0); stroke-opacity: 1;"/><path class="mean" d="M154.29,336.78H168.82" style="fill: none; vector-effect: non-scaling-stroke; stroke-width: 2; stroke-dasharray: 4px, 2px; stroke: rgb(0, 0, 0); stroke-opacity: 1;"/><path class="mean" d="M213.57,242.69H228.09" style="fill: none; vector-effect: non-scaling-stroke; stroke-width: 2; stroke-dasharray: 4px, 2px; stroke: rgb(0, 0, 0); stroke-opacity: 1;"/><path class="mean" d="M272.84,268.16H287.36" style="fill: none; vector-effect: non-scaling-stroke; stroke-width: 2; stroke-dasharray: 4px, 2px; stroke: rgb(0, 0, 0); stroke-opacity: 1;"/><path class="mean" d="M332.11,161.71H346.63" style="fill: none; vector-effect: non-scaling-stroke; stroke-width: 2; stroke-dasharray: 4px, 2px; stroke: rgb(0, 0, 0); stroke-opacity: 1;"/><path class="mean" d="M391.38,250.22H405.91" style="fill: none; vector-effect: non-scaling-stroke; stroke-width: 2; stroke-dasharray: 4px, 2px; stroke: rgb(0, 0, 0); stroke-opacity: 1;"/><path class="mean" d="M450.66,184.85H465.18" style="fill: none; vector-effect: non-scaling-stroke; stroke-width: 2; stroke-dasharray: 4px, 2px; stroke: rgb(0, 0, 0); stroke-opacity: 1;"/><path class="mean" d="M509.93,303.13H524.45" style="fill: none; vector-effect: non-scaling-stroke; stroke-width: 2; stroke-dasharray: 4px, 2px; stroke: rgb(0, 0, 0); stroke-opacity: 1;"/><path class="mean" d="M569.2,232.39H583.72" style="fill: none; vector-effect: non-scaling-stroke; stroke-width: 2; stroke-dasharray: 4px, 2px; stroke: rgb(0, 0, 0); stroke-opacity: 1;"/><path class="mean" d="M628.48,350.72H643" style="fill: none; vector-effect: non-scaling-stroke; stroke-width: 2; stroke-dasharray: 4px, 2px; stroke: rgb(0, 0, 0); stroke-opacity: 1;"/></g></g></g><g class="overplot"/><path class="xlines-above crisp" d="M0,0" style="fill: none;"/><path class="ylines-above crisp" d="M0,0" style="fill: none;"/><g class="overlines-above"/><g class="xaxislayer-above"><path class="xdivider crisp" transform="translate(697,0)" d="M0,386v115.140625" style="stroke: rgb(68, 68, 68); stroke-opacity: 1; stroke-width: 1px;"/><path class="xdivider crisp" transform="translate(519.1800000000001,0)" d="M0,386v115.140625" style="stroke: rgb(68, 68, 68); stroke-opacity: 1; stroke-width: 1px;"/><path class="xdivider crisp" transform="translate(163.55,0)" d="M0,386v115.140625" style="stroke: rgb(68, 68, 68); stroke-opacity: 1; stroke-width: 1px;"/><path class="xdivider crisp" transform="translate(45,0)" d="M0,386v115.140625" style="stroke: rgb(68, 68, 68); stroke-opacity: 1; stroke-width: 1px;"/><g class="xtick"><text text-anchor="start" x="0" y="398" transform="translate(74.64,0) rotate(90,0,392)" style="font-family: 'Open Sans', verdana, arial, sans-serif; font-size: 12px; fill: rgb(42, 63, 95); fill-opacity: 1; white-space: pre; opacity: 1;">NativeGuideCF</text></g><g class="xtick"><text text-anchor="start" x="0" y="398" transform="translate(133.91,0) rotate(90,0,392)" style="font-family: 'Open Sans', verdana, arial, sans-serif; font-size: 12px; fill: rgb(42, 63, 95); fill-opacity: 1; white-space: pre; opacity: 1;">TSEvo</text></g><g class="xtick"><text text-anchor="start" x="0" y="398" transform="translate(193.18,0) rotate(90,0,392)" style="font-family: 'Open Sans', verdana, arial, sans-serif; font-size: 12px; fill: rgb(42, 63, 95); fill-opacity: 1; white-space: pre; opacity: 1;">GRAD</text></g><g class="xtick"><text text-anchor="start" x="0" y="398" transform="translate(252.45,0) rotate(90,0,392)" style="font-family: 'Open Sans', verdana, arial, sans-serif; font-size: 12px; fill: rgb(42, 63, 95); fill-opacity: 1; white-space: pre; opacity: 1;">GRAD - TSR</text></g><g class="xtick"><text text-anchor="start" x="0" y="398" transform="translate(311.73,0) rotate(90,0,392)" style="font-family: 'Open Sans', verdana, arial, sans-serif; font-size: 12px; fill: rgb(42, 63, 95); fill-opacity: 1; white-space: pre; opacity: 1;">GS</text></g><g class="xtick"><text text-anchor="start" x="0" y="398" transform="translate(371,0) rotate(90,0,392)" style="font-family: 'Open Sans', verdana, arial, sans-serif; font-size: 12px; fill: rgb(42, 63, 95); fill-opacity: 1; white-space: pre; opacity: 1;">GS - TSR</text></g><g class="xtick"><text text-anchor="start" x="0" y="398" transform="translate(430.27,0) rotate(90,0,392)" style="font-family: 'Open Sans', verdana, arial, sans-serif; font-size: 12px; fill: rgb(42, 63, 95); fill-opacity: 1; white-space: pre; opacity: 1;">SG</text></g><g class="xtick"><text text-anchor="start" x="0" y="398" transform="translate(489.55,0) rotate(90,0,392)" style="font-family: 'Open Sans', verdana, arial, sans-serif; font-size: 12px; fill: rgb(42, 63, 95); fill-opacity: 1; white-space: pre; opacity: 1;">SG - TSR</text></g><g class="xtick"><text text-anchor="start" x="0" y="398" transform="translate(548.8199999999999,0) rotate(90,0,392)" style="font-family: 'Open Sans', verdana, arial, sans-serif; font-size: 12px; fill: rgb(42, 63, 95); fill-opacity: 1; white-space: pre; opacity: 1;">FO</text></g><g class="xtick"><text text-anchor="start" x="0" y="398" transform="translate(608.09,0) rotate(90,0,392)" style="font-family: 'Open Sans', verdana, arial, sans-serif; font-size: 12px; fill: rgb(42, 63, 95); fill-opacity: 1; white-space: pre; opacity: 1;">FO - TSR</text></g><g class="xtick"><text text-anchor="start" x="0" y="398" transform="translate(667.36,0) rotate(90,0,392)" style="font-family: 'Open Sans', verdana, arial, sans-serif; font-size: 12px; fill: rgb(42, 63, 95); fill-opacity: 1; white-space: pre; opacity: 1;">LEFTIST</text></g><g class="xtick2"><text text-anchor="middle" x="0" y="497.63125" transform="translate(104.27000000000001,0)" style="font-family: 'Open Sans', verdana, arial, sans-serif; font-size: 12px; fill: rgb(42, 63, 95); fill-opacity: 1; white-space: pre; opacity: 1;">Example</text></g><g class="xtick2"><text text-anchor="middle" x="0" y="497.63125" transform="translate(341.36,0)" style="font-family: 'Open Sans', verdana, arial, sans-serif; font-size: 12px; fill: rgb(42, 63, 95); fill-opacity: 1; white-space: pre; opacity: 1;">Gradient</text></g><g class="xtick2"><text text-anchor="middle" x="0" y="497.63125" transform="translate(608.09,0)" style="font-family: 'Open Sans', verdana, arial, sans-serif; font-size: 12px; fill: rgb(42, 63, 95); fill-opacity: 1; white-space: pre; opacity: 1;">Perturbation</text></g></g><g class="yaxislayer-above"><g class="ytick"><text text-anchor="end" x="41" y="4.199999999999999" transform="translate(0,365.75)" style="font-family: 'Open Sans', verdana, arial, sans-serif; font-size: 12px; fill: rgb(42, 63, 95); fill-opacity: 1; white-space: pre; opacity: 1;">0</text></g><g class="ytick"><text text-anchor="end" x="41" y="4.199999999999999" style="font-family: 'Open Sans', verdana, arial, sans-serif; font-size: 12px; fill: rgb(42, 63, 95); fill-opacity: 1; white-space: pre; opacity: 1;" transform="translate(0,326.66)">0.2</text></g><g class="ytick"><text text-anchor="end" x="41" y="4.199999999999999" style="font-family: 'Open Sans', verdana, arial, sans-serif; font-size: 12px; fill: rgb(42, 63, 95); fill-opacity: 1; white-space: pre; opacity: 1;" transform="translate(0,287.57)">0.4</text></g><g class="ytick"><text text-anchor="end" x="41" y="4.199999999999999" style="font-family: 'Open Sans', verdana, arial, sans-serif; font-size: 12px; fill: rgb(42, 63, 95); fill-opacity: 1; white-space: pre; opacity: 1;" transform="translate(0,248.48)">0.6</text></g><g class="ytick"><text text-anchor="end" x="41" y="4.199999999999999" style="font-family: 'Open Sans', verdana, arial, sans-serif; font-size: 12px; fill: rgb(42, 63, 95); fill-opacity: 1; white-space: pre; opacity: 1;" transform="translate(0,209.38)">0.8</text></g><g class="ytick"><text text-anchor="end" x="41" y="4.199999999999999" style="font-family: 'Open Sans', verdana, arial, sans-serif; font-size: 12px; fill: rgb(42, 63, 95); fill-opacity: 1; white-space: pre; opacity: 1;" transform="translate(0,170.29)">1</text></g><g class="ytick"><text text-anchor="end" x="41" y="4.199999999999999" style="font-family: 'Open Sans', verdana, arial, sans-serif; font-size: 12px; fill: rgb(42, 63, 95); fill-opacity: 1; white-space: pre; opacity: 1;" transform="translate(0,131.2)">1.2</text></g><g class="ytick"><text text-anchor="end" x="41" y="4.199999999999999" style="font-family: 'Open Sans', verdana, arial, sans-serif; font-size: 12px; fill: rgb(42, 63, 95); fill-opacity: 1; white-space: pre; opacity: 1;" transform="translate(0,92.11)">1.4</text></g><g class="ytick"><text text-anchor="end" x="41" y="4.199999999999999" style="font-family: 'Open Sans', verdana, arial, sans-serif; font-size: 12px; fill: rgb(42, 63, 95); fill-opacity: 1; white-space: pre; opacity: 1;" transform="translate(0,53.02)">1.6</text></g><g class="ytick"><text text-anchor="end" x="41" y="4.199999999999999" style="font-family: 'Open Sans', verdana, arial, sans-serif; font-size: 12px; fill: rgb(42, 63, 95); fill-opacity: 1; white-space: pre; opacity: 1;" transform="translate(0,13.93)">1.8</text></g></g><g class="overaxes-above"/></g></g><g class="polarlayer"/><g class="smithlayer"/><g class="ternarylayer"/><g class="geolayer"/><g class="funnelarealayer"/><g class="pielayer"/><g class="iciclelayer"/><g class="treemaplayer"/><g class="sunburstlayer"/><g class="glimages"/><defs id="topdefs-1b1db3"><g class="clips"/><clipPath id="legend1b1db3"><rect width="78" height="48" x="0" y="0"/></clipPath></defs><g class="layer-above"><g class="imagelayer"/><g class="shapelayer"/></g><g class="infolayer"><g class="legend" pointer-events="all" transform="translate(48.58,3.850000000000003)"><rect class="bg" shape-rendering="crispEdges" width="78" height="48" x="0" y="0" style="stroke: rgb(68, 68, 68); stroke-opacity: 1; fill: rgb(255, 255, 255); fill-opacity: 1; stroke-width: 0px;"/><g class="scrollbox" transform="" clip-path="url(#legend1b1db3)"><g class="groups"><g class="traces" transform="translate(0,14.5)" style="opacity: 1;"><text class="legendtext" text-anchor="start" x="40" y="4.680000000000001" style="font-family: 'Open Sans', verdana, arial, sans-serif; font-size: 12px; fill: rgb(42, 63, 95); fill-opacity: 1; white-space: pre;">CNN</text><g class="layers" style="opacity: 1;"><g class="legendfill"/><g class="legendlines"/><g class="legendsymbols"><g class="legendpoints"><path class="legendbox" d="M6,6H-6V-6H6Z" transform="translate(20,0)" style="stroke-width: 2px; fill: rgb(211, 211, 211); fill-opacity: 1; stroke: rgb(0, 0, 0); stroke-opacity: 1;"/></g></g></g><rect class="legendtoggle" x="0" y="-9.5" width="72.015625" height="19" style="fill: rgb(0, 0, 0); fill-opacity: 0;"/></g><g class="traces" transform="translate(0,33.5)" style="opacity: 1;"><text class="legendtext" text-anchor="start" x="40" y="4.680000000000001" style="font-family: 'Open Sans', verdana, arial, sans-serif; font-size: 12px; fill: rgb(42, 63, 95); fill-opacity: 1; white-space: pre;">LSTM</text><g class="layers" style="opacity: 1;"><g class="legendfill"/><g class="legendlines"/><g class="legendsymbols"><g class="legendpoints"><path class="legendbox" d="M6,6H-6V-6H6Z" transform="translate(20,0)" style="stroke-width: 2px; fill: rgb(255, 255, 255); fill-opacity: 1; stroke: rgb(0, 0, 0); stroke-opacity: 1;"/></g></g></g><rect class="legendtoggle" x="0" y="-9.5" width="72.015625" height="19" style="fill: rgb(0, 0, 0); fill-opacity: 0;"/></g></g></g><rect class="scrollbar" rx="20" ry="3" width="0" height="0" x="0" y="0" style="fill: rgb(128, 139, 164); fill-opacity: 1;"/></g><g class="g-gtitle"/><g class="g-xtitle"/><g class="g-ytitle" transform="translate(12.9873046875,0)"><text class="ytitle" transform="rotate(-90,0.012500000000002842,192.5)" x="0.012500000000002842" y="192.5" text-anchor="middle" style="font-family: 'Open Sans', verdana, arial, sans-serif; font-size: 14px; fill: rgb(42, 63, 95); opacity: 1; font-weight: normal; white-space: pre;">values</text></g></g></svg>